<?xml version="1.0" encoding="UTF-8"?>
<!DOCTYPE svg PUBLIC "-//W3C//DTD SVG 1.1//EN" "http://www.w3.org/Graphics/SVG/1.1/DTD/svg11.dtd">
<svg xmlns="http://www.w3.org/2000/svg" version="1.1" width="1000px" height="1000px" style="shape-rendering:geometricPrecision; text-rendering:geometricPrecision; image-rendering:optimizeQuality; fill-rule:evenodd; clip-rule:evenodd" xmlns:xlink="http://www.w3.org/1999/xlink">
<g><path style="opacity:0.996" fill="#172a31" d="M 473.5,315.5 C 475.5,315.5 477.5,315.5 479.5,315.5C 483.24,315.382 486.573,316.382 489.5,318.5C 493.005,325.437 495.672,332.77 497.5,340.5C 501.467,366.849 497.8,391.849 486.5,415.5C 485.39,417.2 484.057,418.534 482.5,419.5C 479.203,420.797 476.87,423.13 475.5,426.5C 470.33,429.11 464.996,431.11 459.5,432.5C 458.614,433.325 458.281,434.325 458.5,435.5C 449.485,436.724 440.485,436.724 431.5,435.5C 426.905,453.902 415.238,461.569 396.5,458.5C 392.746,456.486 389.08,454.486 385.5,452.5C 386.092,455.127 386.425,457.794 386.5,460.5C 384.727,459.612 383.394,458.279 382.5,456.5C 381.589,452.089 380.755,447.756 380,443.5C 384.915,448.497 390.415,452.663 396.5,456C 402.523,457.164 408.19,456.33 413.5,453.5C 408.868,452.672 404.202,452.172 399.5,452C 398.944,451.617 398.611,451.117 398.5,450.5C 411.383,452.813 419.883,447.813 424,435.5C 425.392,431.78 424.225,429.78 420.5,429.5C 422.042,428.837 423.709,428.17 425.5,427.5C 423.345,426.999 421.678,425.999 420.5,424.5C 422.764,425.219 425.097,425.552 427.5,425.5C 428.842,426.793 430.509,427.626 432.5,428C 441.851,428.832 451.184,428.665 460.5,427.5C 461.993,426.859 462.993,425.859 463.5,424.5C 466.408,423.046 469.408,421.546 472.5,420C 475.027,416.076 478.027,412.576 481.5,409.5C 484,404.833 486.5,400.167 489,395.5C 489.822,392.883 490.322,390.216 490.5,387.5C 491.314,385.369 491.814,383.036 492,380.5C 492.667,372.833 492.667,365.167 492,357.5C 491.23,350.422 489.73,343.755 487.5,337.5C 487.785,335.712 487.452,334.045 486.5,332.5C 485.642,330.099 484.309,328.099 482.5,326.5C 482.279,325.265 481.612,324.265 480.5,323.5C 478.167,322.167 475.833,322.167 473.5,323.5C 471.326,327.157 468.659,330.49 465.5,333.5C 461.3,335.895 456.966,337.895 452.5,339.5C 451.502,348.141 451.169,356.808 451.5,365.5C 450.833,368.833 450.167,372.167 449.5,375.5C 448.509,369.021 448.176,362.354 448.5,355.5C 445.423,355.179 443.09,356.179 441.5,358.5C 440.265,358.721 439.265,359.388 438.5,360.5C 437.858,364.023 436.692,367.356 435,370.5C 433.446,364.24 434.946,358.907 439.5,354.5C 438.311,353.571 436.978,353.238 435.5,353.5C 439.06,352.499 443.393,352.166 448.5,352.5C 448.923,350.219 448.256,348.552 446.5,347.5C 443.375,346.521 440.042,346.187 436.5,346.5C 437.209,345.596 438.209,345.263 439.5,345.5C 439.173,340.834 436.84,339.5 432.5,341.5C 431.979,338.364 432.979,336.03 435.5,334.5C 438.837,333.261 442.17,333.261 445.5,334.5C 446.833,332.833 446.833,331.167 445.5,329.5C 441.116,320.972 434.449,315.306 425.5,312.5C 425.029,311.099 424.362,309.766 423.5,308.5C 418.652,304.911 413.652,301.578 408.5,298.5C 406.389,294.398 403.056,291.731 398.5,290.5C 397.993,289.141 396.993,288.141 395.5,287.5C 391.46,286.9 387.793,285.567 384.5,283.5C 377.901,281.274 371.068,280.941 364,282.5C 362.319,282.608 361.152,283.275 360.5,284.5C 358.219,284.077 356.552,284.744 355.5,286.5C 353.143,286.337 350.81,286.503 348.5,287C 341.675,289.997 335.008,293.331 328.5,297C 324.72,301.098 321.387,305.431 318.5,310C 322.633,309.906 326.299,310.74 329.5,312.5C 327.833,312.5 326.167,312.5 324.5,312.5C 319.205,312.678 314.205,313.678 309.5,315.5C 308.833,315.5 308.167,315.5 307.5,315.5C 306.022,315.238 304.689,315.571 303.5,316.5C 295.354,324.467 287.854,332.801 281,341.5C 278.017,344.065 275.017,346.732 272,349.5C 271.51,350.793 271.343,352.127 271.5,353.5C 270.178,353.33 269.011,353.663 268,354.5C 263.057,360.085 258.89,366.085 255.5,372.5C 255.821,371.183 256.154,369.849 256.5,368.5C 256.253,367.287 255.586,366.62 254.5,366.5C 255.883,364.022 256.883,361.355 257.5,358.5C 262.097,352.965 266.763,347.298 271.5,341.5C 274.456,340.545 276.456,338.545 277.5,335.5C 276.5,335.167 275.5,334.833 274.5,334.5C 267.111,336.296 259.777,338.296 252.5,340.5C 250.64,341.325 248.974,342.325 247.5,343.5C 243.614,345.042 239.948,347.042 236.5,349.5C 229.83,355.005 223.33,360.672 217,366.5C 214.871,372.279 211.704,377.445 207.5,382C 206.417,386.627 204.751,390.794 202.5,394.5C 203.519,392.46 203.519,390.46 202.5,388.5C 201.712,389.77 200.712,390.77 199.5,391.5C 200.218,389.863 200.384,388.197 200,386.5C 197.056,387.257 194.056,387.923 191,388.5C 185.186,386.245 184.353,382.912 188.5,378.5C 189.694,372.867 190.194,367.2 190,361.5C 182.488,365.8 179.321,372.133 180.5,380.5C 178.598,377.663 177.931,374.329 178.5,370.5C 177.5,370.5 176.5,370.5 175.5,370.5C 174.832,382.156 178.832,391.822 187.5,399.5C 190.086,400.48 192.753,400.813 195.5,400.5C 195.759,402.989 194.759,404.656 192.5,405.5C 192.5,404.5 192.5,403.5 192.5,402.5C 187.134,402.884 182.968,400.884 180,396.5C 176.199,389.928 173.699,382.928 172.5,375.5C 171.827,370.527 173.16,366.194 176.5,362.5C 180.019,359.146 183.686,355.98 187.5,353C 189.345,351.872 191.345,351.372 193.5,351.5C 195.5,351.5 197.5,351.5 199.5,351.5C 199.5,353.167 199.5,354.833 199.5,356.5C 200.502,358.011 201.169,359.678 201.5,361.5C 202.103,366.619 201.436,371.285 199.5,375.5C 197.952,375.179 197.285,374.179 197.5,372.5C 196.5,372.5 195.5,372.5 194.5,372.5C 194.561,375.488 193.895,378.321 192.5,381C 192.833,381.833 193.167,382.667 193.5,383.5C 195.813,382.5 197.813,381.166 199.5,379.5C 204.149,375.637 207.149,370.637 208.5,364.5C 216.993,351.847 228.16,342.18 242,335.5C 254.869,329.982 268.369,326.315 282.5,324.5C 288.974,316.096 297.308,310.43 307.5,307.5C 315.877,295.322 326.877,286.489 340.5,281C 356.364,274.78 372.697,273.114 389.5,276C 393.558,278.557 397.891,280.557 402.5,282C 416.336,293.858 430.669,305.191 445.5,316C 449.18,320.713 452.68,325.546 456,330.5C 461.298,326.95 465.464,322.284 468.5,316.5C 470.045,315.548 471.712,315.215 473.5,315.5 Z M 385.5,452.5 C 383.775,452.157 383.275,451.157 384,449.5C 385.039,450.244 385.539,451.244 385.5,452.5 Z"/></g>
<g><path style="opacity:0.637" fill="#374a58" d="M 309.5,296.5 C 307.766,297.562 306.099,297.562 304.5,296.5C 304.798,293.735 305.798,291.235 307.5,289C 305.82,288.653 304.82,287.653 304.5,286C 305.684,281.824 308.017,278.49 311.5,276C 318.171,275.474 324.837,274.974 331.5,274.5C 331.703,276.39 331.037,277.89 329.5,279C 320.737,282.606 314.071,288.439 309.5,296.5 Z"/></g>
<g><path style="opacity:1" fill="#656f42" d="M 384.5,283.5 C 376.445,283.23 368.445,283.563 360.5,284.5C 361.152,283.275 362.319,282.608 364,282.5C 371.068,280.941 377.901,281.274 384.5,283.5 Z"/></g>
<g><path style="opacity:1" fill="#c6c253" d="M 384.5,283.5 C 387.793,285.567 391.46,286.9 395.5,287.5C 396.993,288.141 397.993,289.141 398.5,290.5C 393.054,288.056 387.388,286.389 381.5,285.5C 372.912,284.179 364.245,284.512 355.5,286.5C 356.552,284.744 358.219,284.077 360.5,284.5C 368.445,283.563 376.445,283.23 384.5,283.5 Z"/></g>
<g><path style="opacity:1" fill="#f0ebbe" d="M 355.5,286.5 C 354.175,288.813 352.175,290.479 349.5,291.5C 348.349,294.903 347.683,298.403 347.5,302C 348.135,306.902 348.635,311.735 349,316.5C 345.487,313.827 341.654,311.827 337.5,310.5C 334.664,310.59 331.997,311.257 329.5,312.5C 326.299,310.74 322.633,309.906 318.5,310C 321.387,305.431 324.72,301.098 328.5,297C 335.008,293.331 341.675,289.997 348.5,287C 350.81,286.503 353.143,286.337 355.5,286.5 Z"/></g>
<g><path style="opacity:0.043" fill="#9db3b9" d="M 304.5,296.5 C 306.099,297.562 307.766,297.562 309.5,296.5C 308.554,299.313 306.554,300.646 303.5,300.5C 303.232,298.901 303.566,297.568 304.5,296.5 Z"/></g>
<g><path style="opacity:1" fill="#fbef3a" d="M 381.5,285.5 C 387.388,286.389 393.054,288.056 398.5,290.5C 403.056,291.731 406.389,294.398 408.5,298.5C 409.419,301.964 411.419,304.631 414.5,306.5C 415.466,308.396 415.799,310.396 415.5,312.5C 418.833,312.5 422.167,312.5 425.5,312.5C 425.5,312.833 425.5,313.167 425.5,313.5C 421.5,313.5 417.5,313.5 413.5,313.5C 413.852,310.927 413.352,308.594 412,306.5C 404.652,311.097 397.152,315.597 389.5,320C 383.4,325.04 376.9,329.54 370,333.5C 369.74,337.424 368.74,341.091 367,344.5C 364.172,340.757 362.839,336.424 363,331.5C 355.408,337.382 347.242,342.382 338.5,346.5C 338.022,352.112 338.022,357.778 338.5,363.5C 337.833,363.5 337.167,363.5 336.5,363.5C 336.5,359.5 336.5,355.5 336.5,351.5C 336.657,350.127 336.49,348.793 336,347.5C 334.815,349.377 333.815,351.377 333,353.5C 332.501,359.157 332.334,364.824 332.5,370.5C 331.517,366.702 331.183,362.702 331.5,358.5C 330.07,358.421 328.736,358.754 327.5,359.5C 314.642,367.851 301.642,376.018 288.5,384C 286.692,385.844 285.026,387.677 283.5,389.5C 283.103,388.475 282.437,388.308 281.5,389C 278.333,393.33 275,397.497 271.5,401.5C 270.129,403.804 268.296,405.804 266,407.5C 263.594,405.018 261.427,402.351 259.5,399.5C 259.229,394.087 259.729,388.754 261,383.5C 264.437,378.919 267.937,374.586 271.5,370.5C 278.764,366.085 285.931,361.419 293,356.5C 293.944,362.995 292.444,368.828 288.5,374C 288.833,374.5 289.167,375 289.5,375.5C 296.226,368.717 300.893,360.717 303.5,351.5C 304.625,348.872 306.625,348.039 309.5,349C 310.059,351.941 310.893,354.775 312,357.5C 313.001,347.769 316.834,339.435 323.5,332.5C 325.534,331.441 327.534,330.441 329.5,329.5C 333.463,328.52 336.796,326.52 339.5,323.5C 338.624,322.749 337.624,322.249 336.5,322C 338.996,320.92 341.33,319.586 343.5,318C 346.257,317.218 348.757,317.718 351,319.5C 350.283,314.893 349.949,310.226 350,305.5C 360.134,298.188 370.634,291.521 381.5,285.5 Z"/></g>
<g><path style="opacity:1" fill="#c0bc42" d="M 408.5,298.5 C 413.652,301.578 418.652,304.911 423.5,308.5C 424.362,309.766 425.029,311.099 425.5,312.5C 422.167,312.5 418.833,312.5 415.5,312.5C 415.799,310.396 415.466,308.396 414.5,306.5C 411.419,304.631 409.419,301.964 408.5,298.5 Z"/></g>
<g><path style="opacity:1" fill="#828848" d="M 324.5,312.5 C 319.795,314.322 314.795,315.322 309.5,315.5C 314.205,313.678 319.205,312.678 324.5,312.5 Z"/></g>
<g><path style="opacity:1" fill="#faed54" d="M 381.5,285.5 C 370.634,291.521 360.134,298.188 350,305.5C 349.949,310.226 350.283,314.893 351,319.5C 348.757,317.718 346.257,317.218 343.5,318C 341.33,319.586 338.996,320.92 336.5,322C 337.624,322.249 338.624,322.749 339.5,323.5C 336.796,326.52 333.463,328.52 329.5,329.5C 329.281,328.325 329.614,327.325 330.5,326.5C 337.334,323.708 336.834,322.374 329,322.5C 326.39,322.533 324.223,323.2 322.5,324.5C 314.107,322.795 307.774,325.629 303.5,333C 301.189,338.398 299.189,343.898 297.5,349.5C 295.404,352.191 295.07,355.191 296.5,358.5C 297.913,356.632 299.08,354.632 300,352.5C 301.011,351.663 302.178,351.33 303.5,351.5C 300.893,360.717 296.226,368.717 289.5,375.5C 289.167,375 288.833,374.5 288.5,374C 292.444,368.828 293.944,362.995 293,356.5C 285.931,361.419 278.764,366.085 271.5,370.5C 275.067,363.227 278.567,355.893 282,348.5C 286.8,343.525 290.633,337.858 293.5,331.5C 298.255,326.09 302.921,320.756 307.5,315.5C 308.167,315.5 308.833,315.5 309.5,315.5C 314.795,315.322 319.795,314.322 324.5,312.5C 326.167,312.5 327.833,312.5 329.5,312.5C 331.997,311.257 334.664,310.59 337.5,310.5C 341.654,311.827 345.487,313.827 349,316.5C 348.635,311.735 348.135,306.902 347.5,302C 347.683,298.403 348.349,294.903 349.5,291.5C 352.175,290.479 354.175,288.813 355.5,286.5C 364.245,284.512 372.912,284.179 381.5,285.5 Z"/></g>
<g><path style="opacity:0.039" fill="#d1e0e2" d="M 479.5,315.5 C 477.5,315.5 475.5,315.5 473.5,315.5C 473.791,314.351 474.624,313.684 476,313.5C 477.699,313.387 478.866,314.053 479.5,315.5 Z"/></g>
<g><path style="opacity:1" fill="#f8e605" d="M 427.5,315.5 C 436.487,319.144 439.154,325.477 435.5,334.5C 432.979,336.03 431.979,338.364 432.5,341.5C 432.5,343.167 432.5,344.833 432.5,346.5C 433.833,346.5 435.167,346.5 436.5,346.5C 440.042,346.187 443.375,346.521 446.5,347.5C 446.5,348.833 446.5,350.167 446.5,351.5C 440.593,350.987 434.927,351.82 429.5,354C 427.34,356.805 426.507,359.972 427,363.5C 427.958,361.376 429.125,359.376 430.5,357.5C 432.419,356.388 434.086,355.054 435.5,353.5C 436.978,353.238 438.311,353.571 439.5,354.5C 434.946,358.907 433.446,364.24 435,370.5C 436.692,367.356 437.858,364.023 438.5,360.5C 439.265,359.388 440.265,358.721 441.5,358.5C 443.258,358.123 444.925,357.456 446.5,356.5C 447.728,363.833 447.728,371.166 446.5,378.5C 446.667,379.5 446.833,380.5 447,381.5C 448.663,379.842 449.496,377.842 449.5,375.5C 450.167,372.167 450.833,368.833 451.5,365.5C 452.222,365.082 452.722,364.416 453,363.5C 453.79,357.448 453.624,351.448 452.5,345.5C 457.5,344.833 462.5,344.167 467.5,343.5C 469.288,342.717 470.288,341.384 470.5,339.5C 473.557,337.444 475.891,334.778 477.5,331.5C 479.256,330.448 479.923,328.781 479.5,326.5C 480.5,326.5 481.5,326.5 482.5,326.5C 483.766,334.524 485.266,342.524 487,350.5C 488.871,366.644 487.204,382.31 482,397.5C 471.205,420.585 453.038,429.419 427.5,424C 420.159,422.167 412.825,420.333 405.5,418.5C 404.508,418.672 403.842,418.338 403.5,417.5C 402.215,416.215 400.881,414.881 399.5,413.5C 400.167,412.167 400.833,410.833 401.5,409.5C 398.582,408.287 395.915,408.621 393.5,410.5C 390.985,412.682 390.985,414.682 393.5,416.5C 394.482,415.859 395.482,415.193 396.5,414.5C 398.217,418.991 398.883,423.657 398.5,428.5C 398.5,429.833 398.5,431.167 398.5,432.5C 397.883,432.611 397.383,432.944 397,433.5C 396.333,436.833 396.333,440.167 397,443.5C 397.383,444.056 397.883,444.389 398.5,444.5C 398.81,446.144 399.81,447.144 401.5,447.5C 402.609,448.29 403.942,448.79 405.5,449C 403.19,449.497 400.857,449.663 398.5,449.5C 392.648,446.657 387.648,442.657 383.5,437.5C 381.757,435.962 379.757,434.962 377.5,434.5C 372.488,431.834 367.488,429.167 362.5,426.5C 360.919,423.932 358.586,422.599 355.5,422.5C 355.343,423.873 355.51,425.207 356,426.5C 358.415,430.737 360.581,435.07 362.5,439.5C 360.169,453.156 355.835,466.156 349.5,478.5C 342.887,485.59 335.887,492.257 328.5,498.5C 323.9,499.443 319.233,499.777 314.5,499.5C 312.806,507.002 308.139,509.835 300.5,508C 299.922,506.583 298.922,505.75 297.5,505.5C 294.224,500.625 292.391,495.292 292,489.5C 296.456,486.692 300.956,484.025 305.5,481.5C 307.827,481.247 309.827,481.914 311.5,483.5C 311.833,482.833 312.167,482.167 312.5,481.5C 311.277,475.502 311.277,469.502 312.5,463.5C 312.762,462.022 312.429,460.689 311.5,459.5C 307.528,464.964 302.194,468.63 295.5,470.5C 287.245,472.12 278.912,472.787 270.5,472.5C 271.036,469.302 270.369,466.635 268.5,464.5C 267.833,463.5 267.167,462.5 266.5,461.5C 265.253,468.163 263.753,474.83 262,481.5C 259.328,486.966 256.161,491.966 252.5,496.5C 249.574,497.461 246.574,498.127 243.5,498.5C 246.344,510.154 242.011,514.654 230.5,512C 227.647,510.57 224.647,509.737 221.5,509.5C 219.041,508.126 218.041,505.96 218.5,503C 218.99,497.861 220.49,493.028 223,488.5C 223.499,484.848 223.665,481.182 223.5,477.5C 225.22,479.658 226.053,482.325 226,485.5C 240.729,472.601 255.896,460.268 271.5,448.5C 273.542,447.497 273.875,446.163 272.5,444.5C 268.818,444.151 266.818,442.151 266.5,438.5C 269.845,440.518 273.178,442.518 276.5,444.5C 278.275,446.584 280.608,447.751 283.5,448C 287.5,448.667 291.5,448.667 295.5,448C 307.719,444.496 319.719,440.496 331.5,436C 335.541,435.827 339.541,435.327 343.5,434.5C 347.388,428.115 349.055,421.115 348.5,413.5C 347.385,398.886 345.051,384.553 341.5,370.5C 354.874,363.295 367.874,355.461 380.5,347C 381.793,346.51 383.127,346.343 384.5,346.5C 384.577,345.25 385.244,344.417 386.5,344C 384.109,343.309 384.109,342.309 386.5,341C 396.18,336.829 405.513,331.996 414.5,326.5C 418.492,323.169 422.825,320.336 427.5,318C 428.598,317.23 428.598,316.397 427.5,315.5 Z M 275.5,483.5 C 278.518,483.335 281.518,483.502 284.5,484C 281.027,490.046 281.027,496.212 284.5,502.5C 279.208,503.495 273.875,503.828 268.5,503.5C 270.294,499.485 272.294,495.485 274.5,491.5C 275.48,488.914 275.813,486.247 275.5,483.5 Z"/></g>
<g><path style="opacity:1" fill="#a4a53b" d="M 374.5,327.5 C 374.953,326.542 375.619,325.708 376.5,325C 375.906,324.536 375.239,324.369 374.5,324.5C 374.791,323.351 375.624,322.684 377,322.5C 377.833,322.833 378.667,323.167 379.5,323.5C 378.226,325.451 376.56,326.785 374.5,327.5 Z"/></g>
<g><path style="opacity:1" fill="#283830" d="M 322.5,324.5 C 324.199,324.34 325.866,324.506 327.5,325C 323.94,326.413 320.607,328.247 317.5,330.5C 315.498,334.177 313.498,337.844 311.5,341.5C 310.059,338.264 310.392,335.264 312.5,332.5C 311.224,331.355 309.891,331.355 308.5,332.5C 304.326,337.849 301.492,343.849 300,350.5C 298.059,354.554 297.225,354.22 297.5,349.5C 299.189,343.898 301.189,338.398 303.5,333C 307.774,325.629 314.107,322.795 322.5,324.5 Z"/></g>
<g><path style="opacity:1" fill="#3d4c31" d="M 374.5,324.5 C 375.239,324.369 375.906,324.536 376.5,325C 375.619,325.708 374.953,326.542 374.5,327.5C 369.88,330.133 367.214,334.133 366.5,339.5C 365.231,335.229 365.897,331.229 368.5,327.5C 370.243,325.962 372.243,324.962 374.5,324.5 Z"/></g>
<g><path style="opacity:1" fill="#c9c22c" d="M 425.5,312.5 C 434.449,315.306 441.116,320.972 445.5,329.5C 446.833,331.167 446.833,332.833 445.5,334.5C 442.17,333.261 438.837,333.261 435.5,334.5C 439.154,325.477 436.487,319.144 427.5,315.5C 426.833,314.833 426.167,314.167 425.5,313.5C 425.5,313.167 425.5,312.833 425.5,312.5 Z"/></g>
<g><path style="opacity:1" fill="#f0ebbb" d="M 307.5,315.5 C 302.921,320.756 298.255,326.09 293.5,331.5C 290.633,337.858 286.8,343.525 282,348.5C 278.567,355.893 275.067,363.227 271.5,370.5C 267.937,374.586 264.437,378.919 261,383.5C 259.729,388.754 259.229,394.087 259.5,399.5C 257.769,396.386 255.769,393.386 253.5,390.5C 253.167,388.667 252.833,386.833 252.5,385C 253.181,380.793 254.181,376.626 255.5,372.5C 258.89,366.085 263.057,360.085 268,354.5C 269.011,353.663 270.178,353.33 271.5,353.5C 271.343,352.127 271.51,350.793 272,349.5C 275.017,346.732 278.017,344.065 281,341.5C 287.854,332.801 295.354,324.467 303.5,316.5C 304.689,315.571 306.022,315.238 307.5,315.5 Z"/></g>
<g><path style="opacity:1" fill="#c5bd21" d="M 482.5,326.5 C 481.5,326.5 480.5,326.5 479.5,326.5C 479.923,328.781 479.256,330.448 477.5,331.5C 478.218,329.863 478.384,328.197 478,326.5C 473.261,335.069 466.095,340.402 456.5,342.5C 458,342.833 459.5,343.167 461,343.5C 464.571,342.997 467.738,341.664 470.5,339.5C 470.288,341.384 469.288,342.717 467.5,343.5C 462.5,344.167 457.5,344.833 452.5,345.5C 453.624,351.448 453.79,357.448 453,363.5C 452.722,364.416 452.222,365.082 451.5,365.5C 451.169,356.808 451.502,348.141 452.5,339.5C 456.966,337.895 461.3,335.895 465.5,333.5C 468.659,330.49 471.326,327.157 473.5,323.5C 475.833,322.167 478.167,322.167 480.5,323.5C 481.612,324.265 482.279,325.265 482.5,326.5 Z"/></g>
<g><path style="opacity:1" fill="#f5f0c2" d="M 271.5,341.5 C 266.763,347.298 262.097,352.965 257.5,358.5C 249.883,359.49 242.883,362.157 236.5,366.5C 229.577,371.678 223.077,377.345 217,383.5C 213.258,389.425 210.258,395.758 208,402.5C 207.39,405.827 206.89,409.161 206.5,412.5C 206.485,422.847 206.818,433.181 207.5,443.5C 204.59,439.382 202.923,434.716 202.5,429.5C 201.267,417.832 201.267,406.166 202.5,394.5C 204.751,390.794 206.417,386.627 207.5,382C 211.704,377.445 214.871,372.279 217,366.5C 223.33,360.672 229.83,355.005 236.5,349.5C 239.948,347.042 243.614,345.042 247.5,343.5C 255.619,341.177 263.785,339.177 272,337.5C 272.5,337.833 273,338.167 273.5,338.5C 272.807,339.518 272.141,340.518 271.5,341.5 Z"/></g>
<g><path style="opacity:1" fill="#b3b79c" d="M 271.5,341.5 C 272.141,340.518 272.807,339.518 273.5,338.5C 273,338.167 272.5,337.833 272,337.5C 263.785,339.177 255.619,341.177 247.5,343.5C 248.974,342.325 250.64,341.325 252.5,340.5C 259.777,338.296 267.111,336.296 274.5,334.5C 275.5,334.833 276.5,335.167 277.5,335.5C 276.456,338.545 274.456,340.545 271.5,341.5 Z"/></g>
<g><path style="opacity:1" fill="#48562f" d="M 477.5,331.5 C 475.891,334.778 473.557,337.444 470.5,339.5C 467.738,341.664 464.571,342.997 461,343.5C 459.5,343.167 458,342.833 456.5,342.5C 466.095,340.402 473.261,335.069 478,326.5C 478.384,328.197 478.218,329.863 477.5,331.5 Z"/></g>
<g><path style="opacity:1" fill="#c7c254" d="M 329.5,329.5 C 327.534,330.441 325.534,331.441 323.5,332.5C 316.834,339.435 313.001,347.769 312,357.5C 310.893,354.775 310.059,351.941 309.5,349C 306.625,348.039 304.625,348.872 303.5,351.5C 302.178,351.33 301.011,351.663 300,352.5C 299.08,354.632 297.913,356.632 296.5,358.5C 295.07,355.191 295.404,352.191 297.5,349.5C 297.225,354.22 298.059,354.554 300,350.5C 301.492,343.849 304.326,337.849 308.5,332.5C 309.891,331.355 311.224,331.355 312.5,332.5C 310.392,335.264 310.059,338.264 311.5,341.5C 313.498,337.844 315.498,334.177 317.5,330.5C 320.607,328.247 323.94,326.413 327.5,325C 325.866,324.506 324.199,324.34 322.5,324.5C 324.223,323.2 326.39,322.533 329,322.5C 336.834,322.374 337.334,323.708 330.5,326.5C 329.614,327.325 329.281,328.325 329.5,329.5 Z"/></g>
<g><path style="opacity:1" fill="#bec089" d="M 436.5,346.5 C 435.167,346.5 433.833,346.5 432.5,346.5C 432.5,344.833 432.5,343.167 432.5,341.5C 436.84,339.5 439.173,340.834 439.5,345.5C 438.209,345.263 437.209,345.596 436.5,346.5 Z"/></g>
<g><path style="opacity:1" fill="#0b1f25" d="M 398.5,346.5 C 400.701,349.154 402.367,352.154 403.5,355.5C 400.914,356.01 398.581,357.01 396.5,358.5C 395.504,358.414 394.671,358.748 394,359.5C 393.764,357.881 392.931,356.881 391.5,356.5C 390.054,355.387 388.387,355.22 386.5,356C 385.027,356.71 384.36,357.876 384.5,359.5C 382.896,358.713 382.229,357.38 382.5,355.5C 380.602,356.096 378.935,356.096 377.5,355.5C 378.667,353.959 380,352.625 381.5,351.5C 385.177,348.66 389.177,346.327 393.5,344.5C 395.304,344.986 396.971,345.653 398.5,346.5 Z"/></g>
<g><path style="opacity:1" fill="#fef020" d="M 425.5,313.5 C 426.167,314.167 426.833,314.833 427.5,315.5C 428.598,316.397 428.598,317.23 427.5,318C 422.825,320.336 418.492,323.169 414.5,326.5C 405.513,331.996 396.18,336.829 386.5,341C 384.109,342.309 384.109,343.309 386.5,344C 385.244,344.417 384.577,345.25 384.5,346.5C 383.127,346.343 381.793,346.51 380.5,347C 367.874,355.461 354.874,363.295 341.5,370.5C 341.065,367.843 340.065,365.509 338.5,363.5C 338.022,357.778 338.022,352.112 338.5,346.5C 347.242,342.382 355.408,337.382 363,331.5C 362.839,336.424 364.172,340.757 367,344.5C 368.74,341.091 369.74,337.424 370,333.5C 376.9,329.54 383.4,325.04 389.5,320C 397.152,315.597 404.652,311.097 412,306.5C 413.352,308.594 413.852,310.927 413.5,313.5C 417.5,313.5 421.5,313.5 425.5,313.5 Z"/></g>
<g><path style="opacity:1" fill="#3c4a2b" d="M 398.5,346.5 C 396.971,345.653 395.304,344.986 393.5,344.5C 389.177,346.327 385.177,348.66 381.5,351.5C 382.241,349.646 383.241,347.979 384.5,346.5C 386.153,346.34 387.486,345.674 388.5,344.5C 392.081,343.348 395.748,342.848 399.5,343C 398.663,344.011 398.33,345.178 398.5,346.5 Z"/></g>
<g><path style="opacity:1" fill="#aead2f" d="M 403.5,355.5 C 402.367,352.154 400.701,349.154 398.5,346.5C 398.33,345.178 398.663,344.011 399.5,343C 395.748,342.848 392.081,343.348 388.5,344.5C 392.058,342.539 396.058,341.205 400.5,340.5C 401.444,344.002 402.778,347.336 404.5,350.5C 406.5,351.167 408.5,351.833 410.5,352.5C 408.045,353.355 405.712,354.355 403.5,355.5 Z"/></g>
<g><path style="opacity:1" fill="#cbc42f" d="M 482.5,326.5 C 484.309,328.099 485.642,330.099 486.5,332.5C 487.452,334.045 487.785,335.712 487.5,337.5C 490.238,353.994 491.238,370.66 490.5,387.5C 490.322,390.216 489.822,392.883 489,395.5C 486.5,400.167 484,404.833 481.5,409.5C 478.027,412.576 475.027,416.076 472.5,420C 469.408,421.546 466.408,423.046 463.5,424.5C 451.6,428.095 439.6,428.428 427.5,425.5C 425.097,425.552 422.764,425.219 420.5,424.5C 415.072,423.253 410.072,421.253 405.5,418.5C 412.825,420.333 420.159,422.167 427.5,424C 453.038,429.419 471.205,420.585 482,397.5C 487.204,382.31 488.871,366.644 487,350.5C 485.266,342.524 483.766,334.524 482.5,326.5 Z"/></g>
<g><path style="opacity:0.275" fill="#4c656d" d="M 199.5,356.5 C 199.5,354.833 199.5,353.167 199.5,351.5C 197.5,351.5 195.5,351.5 193.5,351.5C 195.496,350.087 197.663,348.754 200,347.5C 201.167,348.667 202.333,349.833 203.5,351C 202.385,353.131 201.052,354.965 199.5,356.5 Z"/></g>
<g><path style="opacity:1" fill="#47542a" d="M 446.5,347.5 C 448.256,348.552 448.923,350.219 448.5,352.5C 443.393,352.166 439.06,352.499 435.5,353.5C 434.086,355.054 432.419,356.388 430.5,357.5C 429.125,359.376 427.958,361.376 427,363.5C 426.507,359.972 427.34,356.805 429.5,354C 434.927,351.82 440.593,350.987 446.5,351.5C 446.5,350.167 446.5,348.833 446.5,347.5 Z"/></g>
<g><path style="opacity:1" fill="#dfdfb5" d="M 391.5,356.5 C 391.762,357.978 391.429,359.311 390.5,360.5C 388.84,361.172 387.507,362.172 386.5,363.5C 385.194,362.533 384.527,361.199 384.5,359.5C 384.36,357.876 385.027,356.71 386.5,356C 388.387,355.22 390.054,355.387 391.5,356.5 Z"/></g>
<g><path style="opacity:1" fill="#4e5c46" d="M 391.5,356.5 C 392.931,356.881 393.764,357.881 394,359.5C 394.671,358.748 395.504,358.414 396.5,358.5C 396.631,359.239 396.464,359.906 396,360.5C 392.447,361.223 389.947,363.223 388.5,366.5C 386.952,366.179 386.285,365.179 386.5,363.5C 387.507,362.172 388.84,361.172 390.5,360.5C 391.429,359.311 391.762,357.978 391.5,356.5 Z"/></g>
<g><path style="opacity:0.812" fill="#2c404a" d="M 167.5,378.5 C 165.272,378.777 163.605,379.777 162.5,381.5C 161.733,376.155 160.399,370.989 158.5,366C 159.08,361.635 161.08,358.135 164.5,355.5C 169.638,353.041 174.972,351.041 180.5,349.5C 180.579,350.93 180.246,352.264 179.5,353.5C 171.79,360.063 167.79,368.396 167.5,378.5 Z"/></g>
<g><path style="opacity:1" fill="#b1b038" d="M 377.5,355.5 C 378.935,356.096 380.602,356.096 382.5,355.5C 382.229,357.38 382.896,358.713 384.5,359.5C 384.527,361.199 385.194,362.533 386.5,363.5C 386.285,365.179 386.952,366.179 388.5,366.5C 385.679,370.628 384.179,369.961 384,364.5C 381.653,362.986 379.82,360.986 378.5,358.5C 377.252,359.04 376.085,359.707 375,360.5C 374.253,358.072 375.086,356.406 377.5,355.5 Z"/></g>
<g><path style="opacity:1" fill="#8d912d" d="M 336.5,351.5 C 335.034,352.347 334.2,353.68 334,355.5C 333.833,358.5 333.667,361.5 333.5,364.5C 334.337,372.849 335.337,381.182 336.5,389.5C 335.778,389.082 335.278,388.416 335,387.5C 333.681,381.894 332.847,376.227 332.5,370.5C 332.334,364.824 332.501,359.157 333,353.5C 333.815,351.377 334.815,349.377 336,347.5C 336.49,348.793 336.657,350.127 336.5,351.5 Z"/></g>
<g><path style="opacity:0.306" fill="#43565d" d="M 201.5,361.5 C 203.237,364.008 204.07,367.008 204,370.5C 204.792,367.894 206.292,365.894 208.5,364.5C 207.149,370.637 204.149,375.637 199.5,379.5C 199.5,378.167 199.5,376.833 199.5,375.5C 201.436,371.285 202.103,366.619 201.5,361.5 Z"/></g>
<g><path style="opacity:1" fill="#939736" d="M 487.5,337.5 C 489.73,343.755 491.23,350.422 492,357.5C 492.667,365.167 492.667,372.833 492,380.5C 491.814,383.036 491.314,385.369 490.5,387.5C 491.238,370.66 490.238,353.994 487.5,337.5 Z"/></g>
<g><path style="opacity:1" fill="#fcef55" d="M 257.5,358.5 C 256.883,361.355 255.883,364.022 254.5,366.5C 253.206,367.29 252.039,368.29 251,369.5C 247.595,375.794 245.761,382.46 245.5,389.5C 244.681,386.695 244.181,383.695 244,380.5C 233.756,387.707 223.256,394.54 212.5,401C 210.323,404.858 208.323,408.691 206.5,412.5C 206.89,409.161 207.39,405.827 208,402.5C 210.258,395.758 213.258,389.425 217,383.5C 223.077,377.345 229.577,371.678 236.5,366.5C 242.883,362.157 249.883,359.49 257.5,358.5 Z"/></g>
<g><path style="opacity:1" fill="#9fa03d" d="M 336.5,363.5 C 337.167,363.5 337.833,363.5 338.5,363.5C 339.888,369.711 340.555,376.045 340.5,382.5C 338.677,376.39 337.343,370.057 336.5,363.5 Z"/></g>
<g><path style="opacity:1" fill="#fbed10" d="M 332.5,370.5 C 332.847,376.227 333.681,381.894 335,387.5C 335.278,388.416 335.778,389.082 336.5,389.5C 336.666,396.841 336.5,404.174 336,411.5C 334.72,415.159 333.22,418.659 331.5,422C 327.467,422.695 323.467,423.528 319.5,424.5C 310.052,429.813 300.386,434.646 290.5,439C 280.724,440.936 272.724,438.102 266.5,430.5C 266.5,426.5 266.5,422.5 266.5,418.5C 268.448,416.68 269.448,414.346 269.5,411.5C 270.906,411.027 271.573,410.027 271.5,408.5C 274.912,406.148 276.746,402.815 277,398.5C 279.41,395.603 281.577,392.603 283.5,389.5C 285.026,387.677 286.692,385.844 288.5,384C 301.642,376.018 314.642,367.851 327.5,359.5C 328.736,358.754 330.07,358.421 331.5,358.5C 331.183,362.702 331.517,366.702 332.5,370.5 Z"/></g>
<g><path style="opacity:1" fill="#929323" d="M 449.5,375.5 C 449.496,377.842 448.663,379.842 447,381.5C 446.833,380.5 446.667,379.5 446.5,378.5C 447.728,371.166 447.728,363.833 446.5,356.5C 444.925,357.456 443.258,358.123 441.5,358.5C 443.09,356.179 445.423,355.179 448.5,355.5C 448.176,362.354 448.509,369.021 449.5,375.5 Z"/></g>
<g><path style="opacity:1" fill="#c6cdd0" d="M 199.5,375.5 C 199.5,376.833 199.5,378.167 199.5,379.5C 197.813,381.166 195.813,382.5 193.5,383.5C 193.167,382.667 192.833,381.833 192.5,381C 193.895,378.321 194.561,375.488 194.5,372.5C 195.5,372.5 196.5,372.5 197.5,372.5C 197.285,374.179 197.952,375.179 199.5,375.5 Z"/></g>
<g><path style="opacity:0.145" fill="#a4b5b9" d="M 167.5,378.5 C 166.942,380.564 165.775,382.23 164,383.5C 162.97,383.164 162.47,382.497 162.5,381.5C 163.605,379.777 165.272,378.777 167.5,378.5 Z"/></g>
<g><path style="opacity:1" fill="#c4c062" d="M 199.5,391.5 C 199.423,392.75 198.756,393.583 197.5,394C 193.775,394.76 190.108,394.593 186.5,393.5C 184.101,389.281 182.101,384.948 180.5,380.5C 179.321,372.133 182.488,365.8 190,361.5C 190.194,367.2 189.694,372.867 188.5,378.5C 184.353,382.912 185.186,386.245 191,388.5C 194.056,387.923 197.056,387.257 200,386.5C 200.384,388.197 200.218,389.863 199.5,391.5 Z"/></g>
<g><path style="opacity:0.999" fill="#10242c" d="M 180.5,380.5 C 182.101,384.948 184.101,389.281 186.5,393.5C 190.108,394.593 193.775,394.76 197.5,394C 198.756,393.583 199.423,392.75 199.5,391.5C 200.712,390.77 201.712,389.77 202.5,388.5C 203.519,390.46 203.519,392.46 202.5,394.5C 201.267,406.166 201.267,417.832 202.5,429.5C 202.923,434.716 204.59,439.382 207.5,443.5C 208.147,449.446 210.147,454.779 213.5,459.5C 215.646,466.275 218.979,472.275 223.5,477.5C 223.665,481.182 223.499,484.848 223,488.5C 220.49,493.028 218.99,497.861 218.5,503C 218.041,505.96 219.041,508.126 221.5,509.5C 225.058,511.935 229.058,513.268 233.5,513.5C 233.918,514.222 234.584,514.722 235.5,515C 239.611,515.941 243.778,516.441 248,516.5C 250.929,516.475 253.429,515.809 255.5,514.5C 256.167,514.5 256.833,514.5 257.5,514.5C 258.222,514.082 258.722,513.416 259,512.5C 259.499,508.514 259.666,504.514 259.5,500.5C 262.662,497.833 264.829,494.5 266,490.5C 266.669,483.146 267.835,476.146 269.5,469.5C 269.5,471.167 269.5,472.833 269.5,474.5C 275.128,475.829 281.128,476.496 287.5,476.5C 293.872,476.496 299.872,475.829 305.5,474.5C 306.492,474.672 307.158,474.338 307.5,473.5C 309.13,471.974 309.963,469.974 310,467.5C 310.667,471.833 310.667,476.167 310,480.5C 308.251,479.447 306.751,479.78 305.5,481.5C 300.956,484.025 296.456,486.692 292,489.5C 292.391,495.292 294.224,500.625 297.5,505.5C 300.634,510.86 304.634,515.527 309.5,519.5C 312.833,520.833 316.167,520.833 319.5,519.5C 321.495,516.848 323.495,514.182 325.5,511.5C 333.417,505.722 341.084,499.722 348.5,493.5C 351.498,491.497 353.831,488.83 355.5,485.5C 357.572,482.752 359.239,479.752 360.5,476.5C 361.735,476.279 362.735,475.612 363.5,474.5C 363.833,475 364.167,475.5 364.5,476C 363.798,479.181 362.465,482.014 360.5,484.5C 358.58,487.339 356.913,490.339 355.5,493.5C 353.018,494.663 351.684,496.663 351.5,499.5C 361.186,500.752 370.853,500.752 380.5,499.5C 381.923,497.223 382.589,494.723 382.5,492C 382.3,482.451 381.3,473.285 379.5,464.5C 378.694,460.788 377.694,457.121 376.5,453.5C 376.179,451.952 375.179,451.285 373.5,451.5C 373.719,452.675 373.386,453.675 372.5,454.5C 372.167,453.833 371.833,453.167 371.5,452.5C 373.007,447.625 374.007,442.625 374.5,437.5C 374.253,436.287 373.586,435.62 372.5,435.5C 372.47,434.503 372.97,433.836 374,433.5C 375.138,433.989 376.305,434.322 377.5,434.5C 379.757,434.962 381.757,435.962 383.5,437.5C 387.648,442.657 392.648,446.657 398.5,449.5C 398.5,449.833 398.5,450.167 398.5,450.5C 398.611,451.117 398.944,451.617 399.5,452C 404.202,452.172 408.868,452.672 413.5,453.5C 408.19,456.33 402.523,457.164 396.5,456C 390.415,452.663 384.915,448.497 380,443.5C 380.755,447.756 381.589,452.089 382.5,456.5C 383.394,458.279 384.727,459.612 386.5,460.5C 387.906,471.059 389.573,481.726 391.5,492.5C 390.837,495.806 390.337,499.139 390,502.5C 389.617,503.056 389.117,503.389 388.5,503.5C 384.089,503.556 382.423,505.556 383.5,509.5C 371.531,508.789 359.531,508.123 347.5,507.5C 343.727,507.436 340.727,508.936 338.5,512C 349.833,512.333 361.167,512.667 372.5,513C 373.416,513.278 374.082,513.778 374.5,514.5C 360.859,513.406 347.192,513.24 333.5,514C 332.584,514.278 331.918,514.778 331.5,515.5C 325.402,526.314 316.402,529.647 304.5,525.5C 301.267,522.382 298.267,519.049 295.5,515.5C 290.712,514.172 285.546,513.505 280,513.5C 274.454,513.505 269.288,514.172 264.5,515.5C 262.644,521.111 258.644,523.778 252.5,523.5C 252.843,525.483 252.176,526.817 250.5,527.5C 249.848,526.275 248.681,525.608 247,525.5C 245.193,524.981 243.693,524.981 242.5,525.5C 241.069,524.554 239.736,523.388 238.5,522C 230.805,520.82 223.472,518.487 216.5,515C 194.836,514.5 173.169,514.333 151.5,514.5C 152.804,508.274 154.471,502.274 156.5,496.5C 155.819,502.255 154.819,507.922 153.5,513.5C 172.503,513.667 191.503,513.5 210.5,513C 210.045,510.688 209.045,508.688 207.5,507C 192.837,506.5 178.17,506.333 163.5,506.5C 162.989,497.241 164.655,488.407 168.5,480C 168.836,478.97 169.503,478.47 170.5,478.5C 169.035,486.889 167.368,495.222 165.5,503.5C 179.833,503.5 194.167,503.5 208.5,503.5C 209.057,501.051 209.057,498.718 208.5,496.5C 191.633,492.466 180.8,482.133 176,465.5C 175.183,462.036 175.517,458.702 177,455.5C 181.694,450.806 186.36,446.14 191,441.5C 191.873,438.382 193.039,435.382 194.5,432.5C 193.902,431.205 193.402,429.872 193,428.5C 192.5,420.841 192.334,413.174 192.5,405.5C 194.759,404.656 195.759,402.989 195.5,400.5C 192.753,400.813 190.086,400.48 187.5,399.5C 178.832,391.822 174.832,382.156 175.5,370.5C 176.5,370.5 177.5,370.5 178.5,370.5C 177.931,374.329 178.598,377.663 180.5,380.5 Z M 385.5,452.5 C 385.539,451.244 385.039,450.244 384,449.5C 383.275,451.157 383.775,452.157 385.5,452.5 Z M 275.5,483.5 C 275.813,486.247 275.48,488.914 274.5,491.5C 272.294,495.485 270.294,499.485 268.5,503.5C 273.875,503.828 279.208,503.495 284.5,502.5C 281.027,496.212 281.027,490.046 284.5,484C 281.518,483.502 278.518,483.335 275.5,483.5 Z"/></g>
<g><path style="opacity:1" fill="#cfc72e" d="M 338.5,363.5 C 340.065,365.509 341.065,367.843 341.5,370.5C 345.051,384.553 347.385,398.886 348.5,413.5C 349.055,421.115 347.388,428.115 343.5,434.5C 339.541,435.327 335.541,435.827 331.5,436C 319.719,440.496 307.719,444.496 295.5,448C 291.5,448.667 287.5,448.667 283.5,448C 280.608,447.751 278.275,446.584 276.5,444.5C 287.57,447.001 297.237,444.501 305.5,437C 309.638,435.335 313.638,433.501 317.5,431.5C 324.008,429.746 330.674,428.413 337.5,427.5C 339.969,423.894 340.969,419.894 340.5,415.5C 341.785,404.481 341.785,393.481 340.5,382.5C 340.555,376.045 339.888,369.711 338.5,363.5 Z"/></g>
<g><path style="opacity:1" fill="#fdf035" d="M 245.5,389.5 C 246.935,390.913 247.935,392.58 248.5,394.5C 248.912,401.398 250.912,407.732 254.5,413.5C 248.854,415.154 243.521,417.654 238.5,421C 228.95,427.364 219.45,433.864 210,440.5C 209.838,444.541 210.338,448.541 211.5,452.5C 214.377,449.742 217.711,448.242 221.5,448C 218.582,449.709 215.748,451.542 213,453.5C 213.135,455.425 213.302,457.425 213.5,459.5C 210.147,454.779 208.147,449.446 207.5,443.5C 206.818,433.181 206.485,422.847 206.5,412.5C 208.323,408.691 210.323,404.858 212.5,401C 223.256,394.54 233.756,387.707 244,380.5C 244.181,383.695 244.681,386.695 245.5,389.5 Z"/></g>
<g><path style="opacity:1" fill="#cdc73e" d="M 248.5,394.5 C 252.737,399.963 256.737,405.63 260.5,411.5C 260.677,415.234 260.344,418.901 259.5,422.5C 259.5,425.167 259.5,427.833 259.5,430.5C 258.351,430.209 257.684,429.376 257.5,428C 258.794,424.121 258.627,420.288 257,416.5C 256.764,414.881 255.931,413.881 254.5,413.5C 250.912,407.732 248.912,401.398 248.5,394.5 Z"/></g>
<g><path style="opacity:1" fill="#41502e" d="M 393.5,410.5 C 395.199,410.34 396.866,410.506 398.5,411C 395.921,412.076 394.254,413.909 393.5,416.5C 390.985,414.682 390.985,412.682 393.5,410.5 Z"/></g>
<g><path style="opacity:1" fill="#aeab25" d="M 403.5,417.5 C 402.5,417.5 401.5,417.5 400.5,417.5C 400.665,420.518 400.498,423.518 400,426.5C 399.722,427.416 399.222,428.082 398.5,428.5C 398.883,423.657 398.217,418.991 396.5,414.5C 395.482,415.193 394.482,415.859 393.5,416.5C 394.254,413.909 395.921,412.076 398.5,411C 396.866,410.506 395.199,410.34 393.5,410.5C 395.915,408.621 398.582,408.287 401.5,409.5C 400.833,410.833 400.167,412.167 399.5,413.5C 400.881,414.881 402.215,416.215 403.5,417.5 Z"/></g>
<g><path style="opacity:1" fill="#061a23" d="M 403.5,417.5 C 403.842,418.338 404.508,418.672 405.5,418.5C 410.072,421.253 415.072,423.253 420.5,424.5C 421.678,425.999 423.345,426.999 425.5,427.5C 423.709,428.17 422.042,428.837 420.5,429.5C 418.86,432.528 418.026,435.861 418,439.5C 416.6,440.748 415.1,441.748 413.5,442.5C 408.193,441.974 403.193,442.64 398.5,444.5C 397.295,440.513 397.295,436.513 398.5,432.5C 398.5,431.167 398.5,429.833 398.5,428.5C 399.222,428.082 399.722,427.416 400,426.5C 400.498,423.518 400.665,420.518 400.5,417.5C 401.5,417.5 402.5,417.5 403.5,417.5 Z"/></g>
<g><path style="opacity:1" fill="#192927" d="M 336.5,351.5 C 336.5,355.5 336.5,359.5 336.5,363.5C 337.343,370.057 338.677,376.39 340.5,382.5C 341.785,393.481 341.785,404.481 340.5,415.5C 338.792,418.95 337.459,422.617 336.5,426.5C 329.497,426.186 323.163,427.853 317.5,431.5C 313.638,433.501 309.638,435.335 305.5,437C 297.237,444.501 287.57,447.001 276.5,444.5C 273.178,442.518 269.845,440.518 266.5,438.5C 264.952,438.179 264.285,437.179 264.5,435.5C 263.415,433.413 261.749,432.08 259.5,431.5C 259.5,431.167 259.5,430.833 259.5,430.5C 259.5,427.833 259.5,425.167 259.5,422.5C 262.937,419.096 263.27,415.429 260.5,411.5C 256.737,405.63 252.737,399.963 248.5,394.5C 247.935,392.58 246.935,390.913 245.5,389.5C 245.761,382.46 247.595,375.794 251,369.5C 252.039,368.29 253.206,367.29 254.5,366.5C 255.586,366.62 256.253,367.287 256.5,368.5C 256.154,369.849 255.821,371.183 255.5,372.5C 254.181,376.626 253.181,380.793 252.5,385C 252.833,386.833 253.167,388.667 253.5,390.5C 255.769,393.386 257.769,396.386 259.5,399.5C 261.427,402.351 263.594,405.018 266,407.5C 268.296,405.804 270.129,403.804 271.5,401.5C 272.496,401.586 273.329,401.252 274,400.5C 274.167,401.167 274.333,401.833 274.5,402.5C 273.481,404.511 272.481,406.511 271.5,408.5C 271.573,410.027 270.906,411.027 269.5,411.5C 267.935,413.509 266.935,415.843 266.5,418.5C 265.003,420.29 264.336,422.456 264.5,425C 264.667,426.5 264.833,428 265,429.5C 265.383,430.056 265.883,430.389 266.5,430.5C 272.724,438.102 280.724,440.936 290.5,439C 300.386,434.646 310.052,429.813 319.5,424.5C 323.467,423.528 327.467,422.695 331.5,422C 333.22,418.659 334.72,415.159 336,411.5C 336.5,404.174 336.666,396.841 336.5,389.5C 335.337,381.182 334.337,372.849 333.5,364.5C 333.667,361.5 333.833,358.5 334,355.5C 334.2,353.68 335.034,352.347 336.5,351.5 Z"/></g>
<g><path style="opacity:1" fill="#7b8226" d="M 269.5,411.5 C 269.448,414.346 268.448,416.68 266.5,418.5C 266.935,415.843 267.935,413.509 269.5,411.5 Z"/></g>
<g><path style="opacity:1" fill="#737c31" d="M 283.5,389.5 C 281.577,392.603 279.41,395.603 277,398.5C 276.746,402.815 274.912,406.148 271.5,408.5C 272.481,406.511 273.481,404.511 274.5,402.5C 274.333,401.833 274.167,401.167 274,400.5C 273.329,401.252 272.496,401.586 271.5,401.5C 275,397.497 278.333,393.33 281.5,389C 282.437,388.308 283.103,388.475 283.5,389.5 Z"/></g>
<g><path style="opacity:1" fill="#687139" d="M 260.5,411.5 C 263.27,415.429 262.937,419.096 259.5,422.5C 260.344,418.901 260.677,415.234 260.5,411.5 Z"/></g>
<g><path style="opacity:1" fill="#fdef07" d="M 254.5,413.5 C 255.931,413.881 256.764,414.881 257,416.5C 258.627,420.288 258.794,424.121 257.5,428C 257.684,429.376 258.351,430.209 259.5,430.5C 259.5,430.833 259.5,431.167 259.5,431.5C 260.585,433.587 262.251,434.92 264.5,435.5C 264.285,437.179 264.952,438.179 266.5,438.5C 266.818,442.151 268.818,444.151 272.5,444.5C 273.875,446.163 273.542,447.497 271.5,448.5C 255.896,460.268 240.729,472.601 226,485.5C 226.053,482.325 225.22,479.658 223.5,477.5C 218.979,472.275 215.646,466.275 213.5,459.5C 213.302,457.425 213.135,455.425 213,453.5C 215.748,451.542 218.582,449.709 221.5,448C 217.711,448.242 214.377,449.742 211.5,452.5C 210.338,448.541 209.838,444.541 210,440.5C 219.45,433.864 228.95,427.364 238.5,421C 243.521,417.654 248.854,415.154 254.5,413.5 Z"/></g>
<g><path style="opacity:1" fill="#898d25" d="M 266.5,418.5 C 266.5,422.5 266.5,426.5 266.5,430.5C 265.883,430.389 265.383,430.056 265,429.5C 264.833,428 264.667,426.5 264.5,425C 264.336,422.456 265.003,420.29 266.5,418.5 Z"/></g>
<g><path style="opacity:1" fill="#515d2f" d="M 463.5,424.5 C 462.993,425.859 461.993,426.859 460.5,427.5C 451.184,428.665 441.851,428.832 432.5,428C 430.509,427.626 428.842,426.793 427.5,425.5C 439.6,428.428 451.6,428.095 463.5,424.5 Z"/></g>
<g><path style="opacity:1" fill="#8c9032" d="M 340.5,415.5 C 340.969,419.894 339.969,423.894 337.5,427.5C 330.674,428.413 324.008,429.746 317.5,431.5C 323.163,427.853 329.497,426.186 336.5,426.5C 337.459,422.617 338.792,418.95 340.5,415.5 Z"/></g>
<g><path style="opacity:1" fill="#6f7827" d="M 259.5,431.5 C 261.749,432.08 263.415,433.413 264.5,435.5C 262.251,434.92 260.585,433.587 259.5,431.5 Z"/></g>
<g><path style="opacity:1" fill="#cfc72e" d="M 362.5,426.5 C 360.535,426.948 360.202,427.948 361.5,429.5C 364.953,431.968 368.62,433.968 372.5,435.5C 370.508,449.809 366.508,463.475 360.5,476.5C 359.239,479.752 357.572,482.752 355.5,485.5C 352.48,487.523 350.146,490.19 348.5,493.5C 341.084,499.722 333.417,505.722 325.5,511.5C 323.495,514.182 321.495,516.848 319.5,519.5C 316.167,520.833 312.833,520.833 309.5,519.5C 304.634,515.527 300.634,510.86 297.5,505.5C 298.922,505.75 299.922,506.583 300.5,508C 308.139,509.835 312.806,507.002 314.5,499.5C 319.233,499.777 323.9,499.443 328.5,498.5C 335.887,492.257 342.887,485.59 349.5,478.5C 355.835,466.156 360.169,453.156 362.5,439.5C 360.581,435.07 358.415,430.737 356,426.5C 355.51,425.207 355.343,423.873 355.5,422.5C 358.586,422.599 360.919,423.932 362.5,426.5 Z"/></g>
<g><path style="opacity:1" fill="#3a482b" d="M 362.5,426.5 C 367.488,429.167 372.488,431.834 377.5,434.5C 376.305,434.322 375.138,433.989 374,433.5C 372.97,433.836 372.47,434.503 372.5,435.5C 368.62,433.968 364.953,431.968 361.5,429.5C 360.202,427.948 360.535,426.948 362.5,426.5 Z"/></g>
<g><path style="opacity:0.243" fill="#4a5b64" d="M 482.5,419.5 C 482.509,421.308 482.009,422.975 481,424.5C 478.982,426.35 477.149,428.35 475.5,430.5C 473.994,431.747 472.494,431.747 471,430.5C 466.991,432.599 462.825,434.266 458.5,435.5C 458.281,434.325 458.614,433.325 459.5,432.5C 464.996,431.11 470.33,429.11 475.5,426.5C 476.87,423.13 479.203,420.797 482.5,419.5 Z"/></g>
<g><path style="opacity:1" fill="#5c6625" d="M 398.5,432.5 C 397.295,436.513 397.295,440.513 398.5,444.5C 397.883,444.389 397.383,444.056 397,443.5C 396.333,440.167 396.333,436.833 397,433.5C 397.383,432.944 397.883,432.611 398.5,432.5 Z"/></g>
<g><path style="opacity:1" fill="#4a5730" d="M 413.5,442.5 C 409.688,443.324 405.688,443.824 401.5,444C 403.525,445.677 405.859,446.677 408.5,447C 406.19,447.497 403.857,447.663 401.5,447.5C 399.81,447.144 398.81,446.144 398.5,444.5C 403.193,442.64 408.193,441.974 413.5,442.5 Z"/></g>
<g><path style="opacity:1" fill="#aba92e" d="M 420.5,429.5 C 424.225,429.78 425.392,431.78 424,435.5C 419.883,447.813 411.383,452.813 398.5,450.5C 398.5,450.167 398.5,449.833 398.5,449.5C 400.857,449.663 403.19,449.497 405.5,449C 403.942,448.79 402.609,448.29 401.5,447.5C 403.857,447.663 406.19,447.497 408.5,447C 405.859,446.677 403.525,445.677 401.5,444C 405.688,443.824 409.688,443.324 413.5,442.5C 415.1,441.748 416.6,440.748 418,439.5C 418.026,435.861 418.86,432.528 420.5,429.5 Z"/></g>
<g><path style="opacity:1" fill="#cdc730" d="M 376.5,453.5 C 377.694,457.121 378.694,460.788 379.5,464.5C 380.384,475.807 380.717,487.14 380.5,498.5C 371.808,498.831 363.141,498.498 354.5,497.5C 355.246,496.264 355.579,494.93 355.5,493.5C 356.913,490.339 358.58,487.339 360.5,484.5C 362.074,484.063 363.241,483.063 364,481.5C 368.076,471.931 371.743,462.264 375,452.5C 375.383,453.056 375.883,453.389 376.5,453.5 Z"/></g>
<g><path style="opacity:1" fill="#f5ea0f" d="M 192.5,476.5 C 191.312,475.636 190.145,474.636 189,473.5C 187.974,469.949 186.807,466.449 185.5,463C 186.854,457.82 189.854,453.986 194.5,451.5C 196.011,450.498 197.678,449.831 199.5,449.5C 200.319,456.451 202.819,462.784 207,468.5C 207.602,471.662 207.102,474.662 205.5,477.5C 204.393,478.022 203.226,478.355 202,478.5C 198.888,477.517 195.722,476.85 192.5,476.5 Z"/></g>
<g><path style="opacity:0.295" fill="#3b545e" d="M 170.5,474.5 C 170.5,471.167 170.5,467.833 170.5,464.5C 147.833,464.5 125.167,464.5 102.5,464.5C 102.245,470.728 100.912,476.728 98.5,482.5C 97.8165,482.863 97.1499,483.196 96.5,483.5C 97.739,476.738 99.4057,470.072 101.5,463.5C 125.493,462.334 149.493,462.167 173.5,463C 174.022,463.561 174.355,464.228 174.5,465C 173.406,468.44 172.073,471.607 170.5,474.5 Z"/></g>
<g><path style="opacity:0.11" fill="#4b6369" d="M 550.5,472.5 C 549.527,470.052 549.194,467.385 549.5,464.5C 526.327,464.169 503.327,464.502 480.5,465.5C 480.158,466.338 479.492,466.672 478.5,466.5C 478.5,465.167 478.5,463.833 478.5,462.5C 502.842,462.167 527.176,462.5 551.5,463.5C 552.842,466.764 552.508,469.764 550.5,472.5 Z"/></g>
<g><path style="opacity:1" fill="#041b26" d="M 170.5,474.5 C 170.5,475.833 170.5,477.167 170.5,478.5C 169.503,478.47 168.836,478.97 168.5,480C 164.655,488.407 162.989,497.241 163.5,506.5C 178.17,506.333 192.837,506.5 207.5,507C 209.045,508.688 210.045,510.688 210.5,513C 191.503,513.5 172.503,513.667 153.5,513.5C 154.819,507.922 155.819,502.255 156.5,496.5C 156.19,492.3 156.857,488.3 158.5,484.5C 160.236,481.159 161.236,477.492 161.5,473.5C 149.5,473.5 137.5,473.5 125.5,473.5C 124.225,479.753 123.225,486.087 122.5,492.5C 119.876,505.814 116.876,519.147 113.5,532.5C 110.246,539.64 108.579,547.306 108.5,555.5C 101.787,580.08 96.4533,605.08 92.5,630.5C 91.5489,631.919 91.2155,633.585 91.5,635.5C 103.216,636.144 114.549,635.478 125.5,633.5C 127.058,626.613 128.225,619.613 129,612.5C 130,610.167 131,607.833 132,605.5C 136.791,585.935 140.958,566.268 144.5,546.5C 145.289,546.217 145.956,545.717 146.5,545C 164.164,544.5 181.83,544.333 199.5,544.5C 200.908,546.132 202.408,547.798 204,549.5C 204.167,551.333 204.333,553.167 204.5,555C 201.563,566.079 199.229,577.245 197.5,588.5C 195.471,595.625 193.804,602.958 192.5,610.5C 190.946,616.375 189.946,622.375 189.5,628.5C 187.837,630.438 187.171,632.772 187.5,635.5C 198.838,635.667 210.172,635.5 221.5,635C 223.229,633.211 223.896,631.044 223.5,628.5C 223.336,625.813 223.503,623.146 224,620.5C 228.334,603.517 232.667,586.517 237,569.5C 237.199,561.375 238.865,553.708 242,546.5C 242.5,539.508 242.666,532.508 242.5,525.5C 243.693,524.981 245.193,524.981 247,525.5C 248.681,525.608 249.848,526.275 250.5,527.5C 250.387,532.518 250.053,537.518 249.5,542.5C 280.835,542.333 312.168,542.5 343.5,543C 346.032,544.536 347.866,546.702 349,549.5C 349.279,553.17 349.112,556.837 348.5,560.5C 320.498,560.333 292.498,560.5 264.5,561C 261.471,561.539 258.471,562.206 255.5,563C 253.281,565.22 250.781,567.053 248,568.5C 244.991,573.506 241.991,578.506 239,583.5C 238.184,593.577 236.35,603.411 233.5,613C 233.204,617.783 234.037,622.283 236,626.5C 237.307,628.192 238.807,629.525 240.5,630.5C 241.333,632.829 243,634.329 245.5,635C 265.5,635.167 285.5,635.333 305.5,635.5C 325.845,635.5 345.845,634.833 365.5,633.5C 366.117,633.389 366.617,633.056 367,632.5C 368.96,619.609 371.46,606.943 374.5,594.5C 375.117,594.389 375.617,594.056 376,593.5C 376.257,589.623 377.257,585.957 379,582.5C 379.497,579.854 379.664,577.187 379.5,574.5C 382.467,560.896 385.134,547.229 387.5,533.5C 387.847,529.042 386.68,525.042 384,521.5C 382.871,519.859 381.371,518.859 379.5,518.5C 378.461,516.469 376.795,515.136 374.5,514.5C 374.082,513.778 373.416,513.278 372.5,513C 361.167,512.667 349.833,512.333 338.5,512C 340.727,508.936 343.727,507.436 347.5,507.5C 359.531,508.123 371.531,508.789 383.5,509.5C 384.265,509.923 385.098,510.257 386,510.5C 391.792,508.975 397.626,507.642 403.5,506.5C 426.49,505.5 449.49,505.167 472.5,505.5C 474.483,496.256 476.316,486.923 478,477.5C 478.801,474.633 478.634,471.966 477.5,469.5C 477.557,468.391 477.89,467.391 478.5,466.5C 479.492,466.672 480.158,466.338 480.5,465.5C 503.167,465.5 525.833,465.5 548.5,465.5C 546.691,479.026 544.024,492.36 540.5,505.5C 578.168,505.333 615.835,505.5 653.5,506C 660.467,506.383 667.134,507.883 673.5,510.5C 676.376,510.062 679.043,509.062 681.5,507.5C 766.164,506.5 850.831,506.167 935.5,506.5C 953.424,506.136 961.757,514.969 960.5,533C 960.276,543.893 958.942,554.56 956.5,565C 956.514,566.385 956.848,567.551 957.5,568.5C 957.459,572.616 956.793,576.616 955.5,580.5C 954.5,580.5 953.5,580.5 952.5,580.5C 951.774,585.343 950.441,590.01 948.5,594.5C 947.458,598.668 947.458,602.668 948.5,606.5C 948.21,615.057 945.21,622.391 939.5,628.5C 936.521,630.145 934.188,632.479 932.5,635.5C 932.672,636.492 932.338,637.158 931.5,637.5C 931.53,636.503 931.03,635.836 930,635.5C 924.796,637.65 919.63,639.984 914.5,642.5C 889.833,643.167 865.167,643.833 840.5,644.5C 838.504,652.184 836.838,660.018 835.5,668C 835.393,670.221 836.06,672.054 837.5,673.5C 837.737,674.791 837.404,675.791 836.5,676.5C 836.631,675.624 836.298,674.957 835.5,674.5C 834.485,677.544 833.485,680.544 832.5,683.5C 809.5,683.5 786.5,683.5 763.5,683.5C 765.458,670.508 767.791,657.508 770.5,644.5C 766.154,644.334 761.821,644.501 757.5,645C 756.944,645.383 756.611,645.883 756.5,646.5C 729.17,647.028 701.836,647.361 674.5,647.5C 674.5,646.833 674.5,646.167 674.5,645.5C 668.171,644.639 661.671,643.973 655,643.5C 650.613,642.024 646.279,640.358 642,638.5C 638.717,640.318 635.217,641.651 631.5,642.5C 474.501,643.5 317.501,643.833 160.5,643.5C 160.833,639.5 161.167,635.5 161.5,631.5C 162.698,626.879 164.031,622.213 165.5,617.5C 167.555,605.553 169.721,593.553 172,581.5C 175.475,573.518 177.641,565.184 178.5,556.5C 178.449,554.9 178.116,553.4 177.5,552C 168.84,551.5 160.173,551.334 151.5,551.5C 150.431,563.162 148.098,574.662 144.5,586C 144.605,587.592 144.939,589.092 145.5,590.5C 145.5,591.167 145.5,591.833 145.5,592.5C 144.5,592.5 143.5,592.5 142.5,592.5C 140.17,603.326 138.17,614.159 136.5,625C 134.521,630.785 132.854,636.619 131.5,642.5C 108.212,643.49 84.8785,643.823 61.5,643.5C 61.6781,640.678 62.3448,638.011 63.5,635.5C 63.4805,634.274 63.1471,633.274 62.5,632.5C 62.5,631.167 62.5,629.833 62.5,628.5C 63.2216,628.918 63.7216,629.584 64,630.5C 66.9054,623.784 69.2387,616.784 71,609.5C 72.7946,596.15 75.6279,582.983 79.5,570C 80.6103,565.67 80.6103,561.503 79.5,557.5C 85.3672,533.011 91.0338,508.344 96.5,483.5C 97.1499,483.196 97.8165,482.863 98.5,482.5C 100.912,476.728 102.245,470.728 102.5,464.5C 125.167,464.5 147.833,464.5 170.5,464.5C 170.5,467.833 170.5,471.167 170.5,474.5 Z M 275.5,483.5 C 275.813,486.247 275.48,488.914 274.5,491.5C 272.294,495.485 270.294,499.485 268.5,503.5C 273.875,503.828 279.208,503.495 284.5,502.5C 281.027,496.212 281.027,490.046 284.5,484C 281.518,483.502 278.518,483.335 275.5,483.5 Z M 438.5,555.5 C 444.833,555.5 451.167,555.5 457.5,555.5C 456.185,560.095 455.185,564.761 454.5,569.5C 453.596,570.209 453.263,571.209 453.5,572.5C 451.916,578.754 450.582,585.087 449.5,591.5C 448.596,592.209 448.263,593.209 448.5,594.5C 442.132,594.83 435.798,594.496 429.5,593.5C 427.252,592.676 427.086,591.676 429,590.5C 430.159,585.202 430.993,579.869 431.5,574.5C 432.117,574.389 432.617,574.056 433,573.5C 433.602,569.117 434.435,564.784 435.5,560.5C 436.001,558.345 437.001,556.678 438.5,555.5 Z M 595.5,592.5 C 590.507,593.727 585.34,594.394 580,594.5C 575.114,594.493 570.614,593.826 566.5,592.5C 569.326,580.529 572.159,568.529 575,556.5C 583.749,555.516 592.582,555.183 601.5,555.5C 599.364,567.738 597.364,580.071 595.5,592.5 Z M 718.5,559.5 C 718.5,558.833 718.5,558.167 718.5,557.5C 719.289,557.217 719.956,556.717 720.5,556C 729.167,555.333 737.833,555.333 746.5,556C 746.957,556.414 747.291,556.914 747.5,557.5C 744.085,569.263 741.085,581.263 738.5,593.5C 729.554,594.472 720.554,594.806 711.5,594.5C 714.287,583.035 716.62,571.368 718.5,559.5 Z M 884.5,556.5 C 880.944,568.566 878.277,580.899 876.5,593.5C 869.557,594.427 862.557,594.76 855.5,594.5C 856.833,589.167 858.167,583.833 859.5,578.5C 859.5,577.5 859.5,576.5 859.5,575.5C 861.441,569.278 863.108,562.945 864.5,556.5C 871.167,556.5 877.833,556.5 884.5,556.5 Z"/></g>
<g><path style="opacity:1" fill="#c8c22d" d="M 312.5,463.5 C 310.926,463.937 309.759,464.937 309,466.5C 308.56,468.866 308.06,471.199 307.5,473.5C 307.158,474.338 306.492,474.672 305.5,474.5C 293.487,475.813 281.487,475.813 269.5,474.5C 269.5,472.833 269.5,471.167 269.5,469.5C 269.371,467.784 269.038,466.117 268.5,464.5C 270.369,466.635 271.036,469.302 270.5,472.5C 278.912,472.787 287.245,472.12 295.5,470.5C 302.194,468.63 307.528,464.964 311.5,459.5C 312.429,460.689 312.762,462.022 312.5,463.5 Z"/></g>
<g><path style="opacity:1" fill="#8d9030" d="M 266.5,461.5 C 267.167,462.5 267.833,463.5 268.5,464.5C 269.038,466.117 269.371,467.784 269.5,469.5C 267.835,476.146 266.669,483.146 266,490.5C 264.829,494.5 262.662,497.833 259.5,500.5C 261.544,496.715 263.21,492.715 264.5,488.5C 265.499,479.522 266.165,470.522 266.5,461.5 Z"/></g>
<g><path style="opacity:1" fill="#80852b" d="M 312.5,463.5 C 311.277,469.502 311.277,475.502 312.5,481.5C 312.167,482.167 311.833,482.833 311.5,483.5C 309.827,481.914 307.827,481.247 305.5,481.5C 306.751,479.78 308.251,479.447 310,480.5C 310.667,476.167 310.667,471.833 310,467.5C 309.963,469.974 309.13,471.974 307.5,473.5C 308.06,471.199 308.56,468.866 309,466.5C 309.759,464.937 310.926,463.937 312.5,463.5 Z"/></g>
<g><path style="opacity:1" fill="#25352a" d="M 372.5,435.5 C 373.586,435.62 374.253,436.287 374.5,437.5C 374.007,442.625 373.007,447.625 371.5,452.5C 371.833,453.167 372.167,453.833 372.5,454.5C 373.386,453.675 373.719,452.675 373.5,451.5C 375.179,451.285 376.179,451.952 376.5,453.5C 375.883,453.389 375.383,453.056 375,452.5C 371.743,462.264 368.076,471.931 364,481.5C 363.241,483.063 362.074,484.063 360.5,484.5C 362.465,482.014 363.798,479.181 364.5,476C 364.167,475.5 363.833,475 363.5,474.5C 362.735,475.612 361.735,476.279 360.5,476.5C 366.508,463.475 370.508,449.809 372.5,435.5 Z"/></g>
<g><path style="opacity:1" fill="#3c7891" d="M 158.5,484.5 C 159.051,481.193 159.384,477.86 159.5,474.5C 148.833,474.5 138.167,474.5 127.5,474.5C 125.827,480.596 124.161,486.596 122.5,492.5C 123.225,486.087 124.225,479.753 125.5,473.5C 137.5,473.5 149.5,473.5 161.5,473.5C 161.236,477.492 160.236,481.159 158.5,484.5 Z"/></g>
<g><path style="opacity:1" fill="#cac431" d="M 192.5,476.5 C 195.722,476.85 198.888,477.517 202,478.5C 203.226,478.355 204.393,478.022 205.5,477.5C 207.102,474.662 207.602,471.662 207,468.5C 202.819,462.784 200.319,456.451 199.5,449.5C 197.678,449.831 196.011,450.498 194.5,451.5C 195.144,449.522 196.478,448.189 198.5,447.5C 199.281,446.271 199.781,444.938 200,443.5C 205.673,455.681 211.506,467.847 217.5,480C 217.402,484.081 215.402,486.248 211.5,486.5C 204.093,484.966 197.759,481.632 192.5,476.5 Z"/></g>
<g><path style="opacity:1" fill="#55a4c4" d="M 535.5,487.5 C 536.162,483.534 536.495,479.534 536.5,475.5C 526.494,475.334 516.494,475.5 506.5,476C 505.71,481.207 504.043,486.04 501.5,490.5C 501.936,484.648 502.936,478.981 504.5,473.5C 515.833,473.5 527.167,473.5 538.5,473.5C 538.083,477.835 537.583,482.168 537,486.5C 536.617,487.056 536.117,487.389 535.5,487.5 Z"/></g>
<g><path style="opacity:1" fill="#3c4c2d" d="M 269.5,474.5 C 281.487,475.813 293.487,475.813 305.5,474.5C 299.872,475.829 293.872,476.496 287.5,476.5C 281.128,476.496 275.128,475.829 269.5,474.5 Z"/></g>
<g><path style="opacity:1" fill="#6acbf1" d="M 158.5,484.5 C 156.857,488.3 156.19,492.3 156.5,496.5C 154.471,502.274 152.804,508.274 151.5,514.5C 173.169,514.333 194.836,514.5 216.5,515C 223.472,518.487 230.805,520.82 238.5,522C 239.736,523.388 241.069,524.554 242.5,525.5C 242.666,532.508 242.5,539.508 242,546.5C 238.865,553.708 237.199,561.375 237,569.5C 232.667,586.517 228.334,603.517 224,620.5C 223.503,623.146 223.336,625.813 223.5,628.5C 222.069,629.78 221.402,631.447 221.5,633.5C 210.833,633.5 200.167,633.5 189.5,633.5C 189.5,631.833 189.5,630.167 189.5,628.5C 189.946,622.375 190.946,616.375 192.5,610.5C 193.117,610.389 193.617,610.056 194,609.5C 195.599,602.574 196.765,595.574 197.5,588.5C 199.229,577.245 201.563,566.079 204.5,555C 204.333,553.167 204.167,551.333 204,549.5C 202.408,547.798 200.908,546.132 199.5,544.5C 181.341,543.503 163.008,543.17 144.5,543.5C 144.5,544.5 144.5,545.5 144.5,546.5C 140.958,566.268 136.791,585.935 132,605.5C 131,607.833 130,610.167 129,612.5C 128.225,619.613 127.058,626.613 125.5,633.5C 114.5,633.5 103.5,633.5 92.5,633.5C 92.5,632.5 92.5,631.5 92.5,630.5C 96.4533,605.08 101.787,580.08 108.5,555.5C 109.117,555.389 109.617,555.056 110,554.5C 111.708,547.255 112.874,539.921 113.5,532.5C 116.876,519.147 119.876,505.814 122.5,492.5C 124.161,486.596 125.827,480.596 127.5,474.5C 138.167,474.5 148.833,474.5 159.5,474.5C 159.384,477.86 159.051,481.193 158.5,484.5 Z"/></g>
<g><path style="opacity:1" fill="#6accf2" d="M 535.5,487.5 C 532.042,506.952 528.042,526.286 523.5,545.5C 522.883,545.611 522.383,545.944 522,546.5C 519.153,559.826 516.653,573.159 514.5,586.5C 510.963,601.022 507.63,615.689 504.5,630.5C 465.943,632.831 427.276,633.164 388.5,631.5C 385.287,630.134 382.454,628.134 380,625.5C 378.599,622.151 377.766,618.651 377.5,615C 382.219,590.433 387.386,565.933 393,541.5C 396.42,526.58 405.586,517.58 420.5,514.5C 445.833,514.5 471.167,514.5 496.5,514.5C 496.517,512.435 496.85,510.435 497.5,508.5C 498.508,502.458 499.841,496.458 501.5,490.5C 504.043,486.04 505.71,481.207 506.5,476C 516.494,475.5 526.494,475.334 536.5,475.5C 536.495,479.534 536.162,483.534 535.5,487.5 Z M 438.5,555.5 C 444.833,555.5 451.167,555.5 457.5,555.5C 456.185,560.095 455.185,564.761 454.5,569.5C 453.596,570.209 453.263,571.209 453.5,572.5C 451.916,578.754 450.582,585.087 449.5,591.5C 448.596,592.209 448.263,593.209 448.5,594.5C 442.132,594.83 435.798,594.496 429.5,593.5C 427.252,592.676 427.086,591.676 429,590.5C 430.159,585.202 430.993,579.869 431.5,574.5C 432.117,574.389 432.617,574.056 433,573.5C 433.602,569.117 434.435,564.784 435.5,560.5C 436.001,558.345 437.001,556.678 438.5,555.5 Z"/></g>
<g><path style="opacity:1" fill="#d3cb2b" d="M 266.5,461.5 C 266.165,470.522 265.499,479.522 264.5,488.5C 263.21,492.715 261.544,496.715 259.5,500.5C 258.883,500.611 258.383,500.944 258,501.5C 257.501,505.821 257.334,510.154 257.5,514.5C 256.833,514.5 256.167,514.5 255.5,514.5C 248.132,514.683 240.799,514.35 233.5,513.5C 229.058,513.268 225.058,511.935 221.5,509.5C 224.647,509.737 227.647,510.57 230.5,512C 242.011,514.654 246.344,510.154 243.5,498.5C 246.574,498.127 249.574,497.461 252.5,496.5C 256.161,491.966 259.328,486.966 262,481.5C 263.753,474.83 265.253,468.163 266.5,461.5 Z"/></g>
<g><path style="opacity:1" fill="#576231" d="M 355.5,485.5 C 353.831,488.83 351.498,491.497 348.5,493.5C 350.146,490.19 352.48,487.523 355.5,485.5 Z"/></g>
<g><path style="opacity:1" fill="#a2a332" d="M 379.5,464.5 C 381.3,473.285 382.3,482.451 382.5,492C 382.589,494.723 381.923,497.223 380.5,499.5C 370.853,500.752 361.186,500.752 351.5,499.5C 351.684,496.663 353.018,494.663 355.5,493.5C 355.579,494.93 355.246,496.264 354.5,497.5C 363.141,498.498 371.808,498.831 380.5,498.5C 380.717,487.14 380.384,475.807 379.5,464.5 Z"/></g>
<g><path style="opacity:0.812" fill="#283a45" d="M 477.5,469.5 C 478.634,471.966 478.801,474.633 478,477.5C 476.316,486.923 474.483,496.256 472.5,505.5C 449.49,505.167 426.49,505.5 403.5,506.5C 397.626,507.642 391.792,508.975 386,510.5C 385.098,510.257 384.265,509.923 383.5,509.5C 382.423,505.556 384.089,503.556 388.5,503.5C 387.318,505.003 386.818,506.67 387,508.5C 391.48,505.607 396.313,503.44 401.5,502C 424.507,501.833 447.507,501.333 470.5,500.5C 472.722,490.047 475.055,479.713 477.5,469.5 Z"/></g>
<g><path style="opacity:0.911" fill="#354752" d="M 480.5,465.5 C 503.327,464.502 526.327,464.169 549.5,464.5C 549.194,467.385 549.527,470.052 550.5,472.5C 548.823,482.228 546.823,491.895 544.5,501.5C 579.829,502.333 615.162,502.833 650.5,503C 657.635,503.161 664.468,504.661 671,507.5C 674.231,506.565 677.398,505.398 680.5,504C 684.167,503.667 687.833,503.333 691.5,503C 772.405,503.112 853.738,503.279 935.5,503.5C 934.167,504.5 934.167,505.5 935.5,506.5C 850.831,506.167 766.164,506.5 681.5,507.5C 679.043,509.062 676.376,510.062 673.5,510.5C 667.134,507.883 660.467,506.383 653.5,506C 615.835,505.5 578.168,505.333 540.5,505.5C 544.024,492.36 546.691,479.026 548.5,465.5C 525.833,465.5 503.167,465.5 480.5,465.5 Z"/></g>
<g><path style="opacity:0.482" fill="#344953" d="M 935.5,503.5 C 947.013,503.063 955.846,507.729 962,517.5C 963.862,535.085 962.362,552.085 957.5,568.5C 956.848,567.551 956.514,566.385 956.5,565C 958.942,554.56 960.276,543.893 960.5,533C 961.757,514.969 953.424,506.136 935.5,506.5C 934.167,505.5 934.167,504.5 935.5,503.5 Z"/></g>
<g><path style="opacity:1" fill="#5f692e" d="M 259.5,500.5 C 259.666,504.514 259.499,508.514 259,512.5C 258.722,513.416 258.222,514.082 257.5,514.5C 257.334,510.154 257.501,505.821 258,501.5C 258.383,500.944 258.883,500.611 259.5,500.5 Z"/></g>
<g><path style="opacity:1" fill="#3a6d82" d="M 497.5,508.5 C 496.85,510.435 496.517,512.435 496.5,514.5C 471.167,514.5 445.833,514.5 420.5,514.5C 445.328,513.502 470.328,513.169 495.5,513.5C 495.12,511.302 495.787,509.635 497.5,508.5 Z"/></g>
<g><path style="opacity:1" fill="#4e91ac" d="M 295.5,515.5 C 285.167,515.5 274.833,515.5 264.5,515.5C 269.288,514.172 274.454,513.505 280,513.5C 285.546,513.505 290.712,514.172 295.5,515.5 Z"/></g>
<g><path style="opacity:1" fill="#4b8da8" d="M 374.5,514.5 C 376.795,515.136 378.461,516.469 379.5,518.5C 377.688,518.229 376.022,517.562 374.5,516.5C 360.182,515.501 345.849,515.167 331.5,515.5C 331.918,514.778 332.584,514.278 333.5,514C 347.192,513.24 360.859,513.406 374.5,514.5 Z"/></g>
<g><path style="opacity:1" fill="#347087" d="M 799.5,515.5 C 765.79,515.181 732.123,515.514 698.5,516.5C 714.986,515.167 731.82,514.5 749,514.5C 766.003,514.5 782.837,514.833 799.5,515.5 Z"/></g>
<g><path style="opacity:1" fill="#36728a" d="M 943.5,518.5 C 941.076,517.97 938.743,517.136 936.5,516C 900.162,515.167 863.829,515.333 827.5,516.5C 827.058,517.739 826.391,518.739 825.5,519.5C 825.286,517.856 825.62,516.356 826.5,515C 863.833,514.333 901.167,514.333 938.5,515C 940.76,515.549 942.426,516.716 943.5,518.5 Z"/></g>
<g><path style="opacity:1" fill="#979933" d="M 233.5,513.5 C 240.799,514.35 248.132,514.683 255.5,514.5C 253.429,515.809 250.929,516.475 248,516.5C 243.778,516.441 239.611,515.941 235.5,515C 234.584,514.722 233.918,514.222 233.5,513.5 Z"/></g>
<g><path style="opacity:1" fill="#6accf2" d="M 264.5,515.5 C 274.833,515.5 285.167,515.5 295.5,515.5C 298.267,519.049 301.267,522.382 304.5,525.5C 316.402,529.647 325.402,526.314 331.5,515.5C 345.849,515.167 360.182,515.501 374.5,516.5C 376.022,517.562 377.688,518.229 379.5,518.5C 381.371,518.859 382.871,519.859 384,521.5C 386.68,525.042 387.847,529.042 387.5,533.5C 385.134,547.229 382.467,560.896 379.5,574.5C 378.883,574.611 378.383,574.944 378,575.5C 376.831,581.836 375.665,588.169 374.5,594.5C 371.46,606.943 368.96,619.609 367,632.5C 366.617,633.056 366.117,633.389 365.5,633.5C 325.499,633.667 285.499,633.5 245.5,633C 244.09,631.628 242.423,630.795 240.5,630.5C 238.807,629.525 237.307,628.192 236,626.5C 234.037,622.283 233.204,617.783 233.5,613C 236.35,603.411 238.184,593.577 239,583.5C 241.991,578.506 244.991,573.506 248,568.5C 250.781,567.053 253.281,565.22 255.5,563C 258.471,562.206 261.471,561.539 264.5,561C 292.498,560.5 320.498,560.333 348.5,560.5C 349.112,556.837 349.279,553.17 349,549.5C 347.866,546.702 346.032,544.536 343.5,543C 312.168,542.5 280.835,542.333 249.5,542.5C 250.053,537.518 250.387,532.518 250.5,527.5C 252.176,526.817 252.843,525.483 252.5,523.5C 258.644,523.778 262.644,521.111 264.5,515.5 Z"/></g>
<g><path style="opacity:1" fill="#6acbf2" d="M 633.5,633.5 C 598.524,634.473 563.524,634.807 528.5,634.5C 520.317,630.956 515.984,624.623 515.5,615.5C 520.715,589.243 526.048,563.076 531.5,537C 536.221,526.647 543.887,519.48 554.5,515.5C 588.162,514.333 621.828,514.167 655.5,515C 667.814,519.692 672.314,528.525 669,541.5C 663.202,566.771 657.536,592.104 652,617.5C 648.878,621.099 646.045,624.766 643.5,628.5C 639.891,629.638 636.558,631.304 633.5,633.5 Z M 595.5,592.5 C 590.507,593.727 585.34,594.394 580,594.5C 575.114,594.493 570.614,593.826 566.5,592.5C 569.326,580.529 572.159,568.529 575,556.5C 583.749,555.516 592.582,555.183 601.5,555.5C 599.364,567.738 597.364,580.071 595.5,592.5 Z"/></g>
<g><path style="opacity:1" fill="#6acbf1" d="M 799.5,515.5 C 811.588,518.892 816.421,526.892 814,539.5C 810.01,557.773 806.344,576.106 803,594.5C 800.681,601.117 798.681,607.783 797,614.5C 792.46,624.83 784.627,631.664 773.5,635C 740.5,635.667 707.5,635.667 674.5,635C 665.11,631.614 660.443,624.948 660.5,615C 660.748,611.036 661.414,607.202 662.5,603.5C 663.117,603.389 663.617,603.056 664,602.5C 665.074,594.964 666.741,587.63 669,580.5C 669.498,577.183 669.665,573.85 669.5,570.5C 671.257,557.976 674.091,545.642 678,533.5C 681.833,526.333 687.333,520.833 694.5,517C 695.793,516.51 697.127,516.343 698.5,516.5C 732.123,515.514 765.79,515.181 799.5,515.5 Z M 718.5,559.5 C 718.5,558.833 718.5,558.167 718.5,557.5C 719.289,557.217 719.956,556.717 720.5,556C 729.167,555.333 737.833,555.333 746.5,556C 746.957,556.414 747.291,556.914 747.5,557.5C 744.085,569.263 741.085,581.263 738.5,593.5C 729.554,594.472 720.554,594.806 711.5,594.5C 714.287,583.035 716.62,571.368 718.5,559.5 Z"/></g>
<g><path style="opacity:1" fill="#6accf2" d="M 943.5,518.5 C 946.365,519.191 948.532,520.858 950,523.5C 951.432,527.013 952.265,530.68 952.5,534.5C 946.531,561.427 940.698,588.427 935,615.5C 931.273,620.474 927.44,625.307 923.5,630C 920.555,630.139 918.221,631.306 916.5,633.5C 888.687,634.133 861.02,634.8 833.5,635.5C 831.896,645.537 829.563,655.204 826.5,664.5C 824.612,666.988 823.945,669.988 824.5,673.5C 814.167,673.5 803.833,673.5 793.5,673.5C 795.025,666.67 796.025,659.67 796.5,652.5C 798.505,640.146 800.671,627.812 803,615.5C 804.14,610.676 805.807,606.009 808,601.5C 813.326,573.964 819.159,546.631 825.5,519.5C 826.391,518.739 827.058,517.739 827.5,516.5C 863.829,515.333 900.162,515.167 936.5,516C 938.743,517.136 941.076,517.97 943.5,518.5 Z M 884.5,556.5 C 880.944,568.566 878.277,580.899 876.5,593.5C 869.557,594.427 862.557,594.76 855.5,594.5C 856.833,589.167 858.167,583.833 859.5,578.5C 859.5,577.5 859.5,576.5 859.5,575.5C 861.441,569.278 863.108,562.945 864.5,556.5C 871.167,556.5 877.833,556.5 884.5,556.5 Z"/></g>
<g><path style="opacity:1" fill="#3d7891" d="M 113.5,532.5 C 112.874,539.921 111.708,547.255 110,554.5C 109.617,555.056 109.117,555.389 108.5,555.5C 108.579,547.306 110.246,539.64 113.5,532.5 Z"/></g>
<g><path style="opacity:1" fill="#2b586c" d="M 199.5,544.5 C 181.83,544.333 164.164,544.5 146.5,545C 145.956,545.717 145.289,546.217 144.5,546.5C 144.5,545.5 144.5,544.5 144.5,543.5C 163.008,543.17 181.341,543.503 199.5,544.5 Z"/></g>
<g><path style="opacity:1" fill="#285568" d="M 626.5,544.5 C 609.487,544.167 592.487,544.501 575.5,545.5C 572.322,546.185 569.322,547.185 566.5,548.5C 567.561,546.468 569.228,545.134 571.5,544.5C 589.996,543.173 608.329,543.173 626.5,544.5 Z"/></g>
<g><path style="opacity:1" fill="#2d5b70" d="M 770.5,544.5 C 752.12,544.193 733.787,544.526 715.5,545.5C 724.308,544.168 733.475,543.502 743,543.5C 752.34,543.5 761.506,543.834 770.5,544.5 Z"/></g>
<g><path style="opacity:1" fill="#041b27" d="M 475.5,605.5 C 457.821,605.833 440.154,605.5 422.5,604.5C 421.06,603.048 419.394,602.048 417.5,601.5C 417.5,600.833 417.5,600.167 417.5,599.5C 417.867,591.428 418.867,583.428 420.5,575.5C 421.092,565.564 423.759,556.231 428.5,547.5C 431.005,545.747 433.671,544.247 436.5,543C 454.164,542.5 471.83,542.333 489.5,542.5C 485.031,563.693 480.365,584.693 475.5,605.5 Z M 438.5,555.5 C 444.833,555.5 451.167,555.5 457.5,555.5C 456.185,560.095 455.185,564.761 454.5,569.5C 453.596,570.209 453.263,571.209 453.5,572.5C 451.916,578.754 450.582,585.087 449.5,591.5C 448.596,592.209 448.263,593.209 448.5,594.5C 442.132,594.83 435.798,594.496 429.5,593.5C 427.252,592.676 427.086,591.676 429,590.5C 430.159,585.202 430.993,579.869 431.5,574.5C 432.117,574.389 432.617,574.056 433,573.5C 433.602,569.117 434.435,564.784 435.5,560.5C 436.001,558.345 437.001,556.678 438.5,555.5 Z"/></g>
<g><path style="opacity:1" fill="#153848" d="M 912.5,560.5 C 914.081,556.307 913.747,552.307 911.5,548.5C 910.532,547.511 909.365,546.844 908,546.5C 890.524,545.534 873.024,545.2 855.5,545.5C 855.196,548.522 854.696,551.522 854,554.5C 852.494,557.91 850.994,561.244 849.5,564.5C 851.39,558.321 852.557,551.988 853,545.5C 853.5,545 854,544.5 854.5,544C 872.167,543.333 889.833,543.333 907.5,544C 914.183,546.626 916.35,551.459 914,558.5C 913.722,559.416 913.222,560.082 912.5,560.5 Z"/></g>
<g><path style="opacity:0.999" fill="#041b26" d="M 626.5,544.5 C 628.425,546.239 630.091,548.239 631.5,550.5C 631.665,553.518 631.498,556.518 631,559.5C 627.491,571.695 624.658,584.028 622.5,596.5C 621.473,598.184 620.473,599.851 619.5,601.5C 616.633,603.184 613.633,604.684 610.5,606C 593.503,606.5 576.503,606.667 559.5,606.5C 557.897,605.404 556.397,604.07 555,602.5C 554.333,597.167 554.333,591.833 555,586.5C 557.191,575.456 559.691,564.456 562.5,553.5C 563.508,551.501 564.841,549.834 566.5,548.5C 569.322,547.185 572.322,546.185 575.5,545.5C 592.487,544.501 609.487,544.167 626.5,544.5 Z M 595.5,592.5 C 590.507,593.727 585.34,594.394 580,594.5C 575.114,594.493 570.614,593.826 566.5,592.5C 569.326,580.529 572.159,568.529 575,556.5C 583.749,555.516 592.582,555.183 601.5,555.5C 599.364,567.738 597.364,580.071 595.5,592.5 Z"/></g>
<g><path style="opacity:0.999" fill="#031a25" d="M 770.5,544.5 C 772.371,544.859 773.871,545.859 775,547.5C 775.667,552.5 775.667,557.5 775,562.5C 771.836,572.977 769.503,583.643 768,594.5C 766.401,597.152 764.901,599.818 763.5,602.5C 761.688,602.771 760.022,603.438 758.5,604.5C 740.179,605.5 721.845,605.833 703.5,605.5C 699.214,603.531 697.547,600.198 698.5,595.5C 700.595,588.359 701.761,581.026 702,573.5C 704.007,566.311 706.174,559.144 708.5,552C 709.833,548.636 712.166,546.47 715.5,545.5C 733.787,544.526 752.12,544.193 770.5,544.5 Z M 718.5,559.5 C 718.5,558.833 718.5,558.167 718.5,557.5C 719.289,557.217 719.956,556.717 720.5,556C 729.167,555.333 737.833,555.333 746.5,556C 746.957,556.414 747.291,556.914 747.5,557.5C 744.085,569.263 741.085,581.263 738.5,593.5C 729.554,594.472 720.554,594.806 711.5,594.5C 714.287,583.035 716.62,571.368 718.5,559.5 Z"/></g>
<g><path style="opacity:1" fill="#031a26" d="M 912.5,560.5 C 910.801,573.434 907.968,586.101 904,598.5C 900.926,602.285 897.093,604.951 892.5,606.5C 875.5,606.5 858.5,606.5 841.5,606.5C 841.993,604.194 842.326,601.861 842.5,599.5C 844.185,587.74 846.519,576.074 849.5,564.5C 850.994,561.244 852.494,557.91 854,554.5C 854.696,551.522 855.196,548.522 855.5,545.5C 873.024,545.2 890.524,545.534 908,546.5C 909.365,546.844 910.532,547.511 911.5,548.5C 913.747,552.307 914.081,556.307 912.5,560.5 Z M 884.5,556.5 C 880.944,568.566 878.277,580.899 876.5,593.5C 869.557,594.427 862.557,594.76 855.5,594.5C 856.833,589.167 858.167,583.833 859.5,578.5C 859.5,577.5 859.5,576.5 859.5,575.5C 861.441,569.278 863.108,562.945 864.5,556.5C 871.167,556.5 877.833,556.5 884.5,556.5 Z"/></g>
<g><path style="opacity:0.66" fill="#38505b" d="M 161.5,631.5 C 160.609,632.11 159.609,632.443 158.5,632.5C 164.623,607.009 170.29,581.342 175.5,555.5C 168.167,555.5 160.833,555.5 153.5,555.5C 151.998,567.558 149.331,579.225 145.5,590.5C 144.939,589.092 144.605,587.592 144.5,586C 148.098,574.662 150.431,563.162 151.5,551.5C 160.173,551.334 168.84,551.5 177.5,552C 178.116,553.4 178.449,554.9 178.5,556.5C 177.641,565.184 175.475,573.518 172,581.5C 169.721,593.553 167.555,605.553 165.5,617.5C 164.031,622.213 162.698,626.879 161.5,631.5 Z"/></g>
<g><path style="opacity:0.973" fill="#374b57" d="M 454.5,569.5 C 455.185,564.761 456.185,560.095 457.5,555.5C 454.742,554.182 451.576,553.515 448,553.5C 444.424,553.515 441.258,554.182 438.5,555.5C 437.001,556.678 436.001,558.345 435.5,560.5C 434.435,564.784 433.602,569.117 433,573.5C 432.617,574.056 432.117,574.389 431.5,574.5C 431.398,566.811 432.398,559.311 434.5,552C 442.827,551.5 451.16,551.334 459.5,551.5C 459.778,558.25 458.111,564.25 454.5,569.5 Z"/></g>
<g><path style="opacity:0.008" fill="#f3f3f3" d="M 457.5,555.5 C 451.167,555.5 444.833,555.5 438.5,555.5C 441.258,554.182 444.424,553.515 448,553.5C 451.576,553.515 454.742,554.182 457.5,555.5 Z"/></g>
<g><path style="opacity:0.09" fill="#394d59" d="M 595.5,592.5 C 597.364,580.071 599.364,567.738 601.5,555.5C 592.582,555.183 583.749,555.516 575,556.5C 572.159,568.529 569.326,580.529 566.5,592.5C 565.335,591.504 564.668,590.171 564.5,588.5C 567.478,577.277 569.811,565.944 571.5,554.5C 582.462,553.568 593.462,553.235 604.5,553.5C 604.665,556.518 604.498,559.518 604,562.5C 601.233,572.007 598.9,581.674 597,591.5C 596.617,592.056 596.117,592.389 595.5,592.5 Z"/></g>
<g><path style="opacity:1" fill="#265265" d="M 523.5,545.5 C 522.965,549.819 522.465,554.152 522,558.5C 519.661,567.857 517.161,577.19 514.5,586.5C 516.653,573.159 519.153,559.826 522,546.5C 522.383,545.944 522.883,545.611 523.5,545.5 Z"/></g>
<g><path style="opacity:1" fill="#4c92ae" d="M 631.5,550.5 C 632.748,551.334 633.415,552.667 633.5,554.5C 633.273,560.557 631.773,566.223 629,571.5C 627.572,578.39 626.238,585.39 625,592.5C 624.066,593.858 623.232,595.192 622.5,596.5C 624.658,584.028 627.491,571.695 631,559.5C 631.498,556.518 631.665,553.518 631.5,550.5 Z"/></g>
<g><path style="opacity:0.478" fill="#62747f" d="M 884.5,555.5 C 884.5,555.833 884.5,556.167 884.5,556.5C 877.833,556.5 871.167,556.5 864.5,556.5C 863.108,562.945 861.441,569.278 859.5,575.5C 858.848,574.551 858.514,573.385 858.5,572C 860.571,566.006 861.571,559.839 861.5,553.5C 868.841,553.334 876.174,553.5 883.5,554C 884.056,554.383 884.389,554.883 884.5,555.5 Z"/></g>
<g><path style="opacity:0.486" fill="#374b54" d="M 453.5,572.5 C 454.917,580.69 453.917,588.69 450.5,596.5C 449.548,594.955 449.215,593.288 449.5,591.5C 450.582,585.087 451.916,578.754 453.5,572.5 Z"/></g>
<g><path style="opacity:1" fill="#4687a1" d="M 669.5,570.5 C 669.665,573.85 669.498,577.183 669,580.5C 666.741,587.63 665.074,594.964 664,602.5C 663.617,603.056 663.117,603.389 662.5,603.5C 662.336,600.813 662.503,598.146 663,595.5C 664.622,586.854 666.789,578.521 669.5,570.5 Z"/></g>
<g><path style="opacity:1" fill="#2c5a6f" d="M 379.5,574.5 C 379.664,577.187 379.497,579.854 379,582.5C 377.257,585.957 376.257,589.623 376,593.5C 375.617,594.056 375.117,594.389 374.5,594.5C 375.665,588.169 376.831,581.836 378,575.5C 378.383,574.944 378.883,574.611 379.5,574.5 Z"/></g>
<g><path style="opacity:1" fill="#2e5c70" d="M 420.5,575.5 C 418.867,583.428 417.867,591.428 417.5,599.5C 416.883,599.389 416.383,599.056 416,598.5C 415.333,595.5 415.333,592.5 416,589.5C 417.891,585.389 418.891,581.056 419,576.5C 419.383,575.944 419.883,575.611 420.5,575.5 Z"/></g>
<g><path style="opacity:1" fill="#041c28" d="M 338.5,605.5 C 317.831,605.667 297.164,605.5 276.5,605C 275.756,603.961 274.756,603.461 273.5,603.5C 272.883,603.389 272.383,603.056 272,602.5C 270.466,596.282 272.633,591.948 278.5,589.5C 299.489,588.5 320.489,588.167 341.5,588.5C 339.862,594.026 338.862,599.693 338.5,605.5 Z"/></g>
<g><path style="opacity:0.055" fill="#344854" d="M 718.5,559.5 C 716.62,571.368 714.287,583.035 711.5,594.5C 720.554,594.806 729.554,594.472 738.5,593.5C 741.085,581.263 744.085,569.263 747.5,557.5C 747.291,556.914 746.957,556.414 746.5,556C 737.833,555.333 729.167,555.333 720.5,556C 719.956,556.717 719.289,557.217 718.5,557.5C 716.94,555.871 717.273,554.704 719.5,554C 728.833,553.333 738.167,553.333 747.5,554C 748.516,554.519 749.182,555.353 749.5,556.5C 747.062,570.037 743.728,583.37 739.5,596.5C 729.63,596.584 719.63,596.584 709.5,596.5C 709.818,586.282 711.151,576.282 713.5,566.5C 713.938,563.624 714.938,560.957 716.5,558.5C 717.183,558.863 717.85,559.196 718.5,559.5 Z"/></g>
<g><path style="opacity:0.165" fill="#697d8a" d="M 859.5,578.5 C 858.167,583.833 856.833,589.167 855.5,594.5C 862.557,594.76 869.557,594.427 876.5,593.5C 876.5,594.5 876.5,595.5 876.5,596.5C 868.833,596.5 861.167,596.5 853.5,596.5C 853.368,593.43 853.701,590.43 854.5,587.5C 855.406,584.564 856.072,581.564 856.5,578.5C 857.5,578.5 858.5,578.5 859.5,578.5 Z"/></g>
<g><path style="opacity:0.914" fill="#293f49" d="M 884.5,555.5 C 885.497,555.47 886.164,555.97 886.5,557C 883.031,570.433 880.365,583.933 878.5,597.5C 869.867,598.377 861.2,598.711 852.5,598.5C 852.335,595.15 852.502,591.817 853,588.5C 853.383,587.944 853.883,587.611 854.5,587.5C 853.701,590.43 853.368,593.43 853.5,596.5C 861.167,596.5 868.833,596.5 876.5,596.5C 876.5,595.5 876.5,594.5 876.5,593.5C 878.277,580.899 880.944,568.566 884.5,556.5C 884.5,556.167 884.5,555.833 884.5,555.5 Z"/></g>
<g><path style="opacity:0.584" fill="#384c56" d="M 955.5,580.5 C 953.608,587.916 951.942,595.416 950.5,603C 950.392,604.681 949.725,605.848 948.5,606.5C 947.458,602.668 947.458,598.668 948.5,594.5C 950.441,590.01 951.774,585.343 952.5,580.5C 953.5,580.5 954.5,580.5 955.5,580.5 Z"/></g>
<g><path style="opacity:1" fill="#376e84" d="M 197.5,588.5 C 196.765,595.574 195.599,602.574 194,609.5C 193.617,610.056 193.117,610.389 192.5,610.5C 193.804,602.958 195.471,595.625 197.5,588.5 Z"/></g>
<g><path style="opacity:0.8" fill="#1c303c" d="M 79.5,557.5 C 80.6103,561.503 80.6103,565.67 79.5,570C 75.6279,582.983 72.7946,596.15 71,609.5C 69.2387,616.784 66.9054,623.784 64,630.5C 63.7216,629.584 63.2216,628.918 62.5,628.5C 68.0245,604.738 73.6912,581.071 79.5,557.5 Z"/></g>
<g><path style="opacity:1" fill="#3b738a" d="M 273.5,603.5 C 274.756,603.461 275.756,603.961 276.5,605C 297.164,605.5 317.831,605.667 338.5,605.5C 317.33,606.828 295.996,606.828 274.5,605.5C 274.137,604.817 273.804,604.15 273.5,603.5 Z"/></g>
<g><path style="opacity:1" fill="#3b738a" d="M 417.5,601.5 C 419.394,602.048 421.06,603.048 422.5,604.5C 440.154,605.5 457.821,605.833 475.5,605.5C 457.329,606.827 438.996,606.827 420.5,605.5C 419.09,604.431 418.09,603.097 417.5,601.5 Z"/></g>
<g><path style="opacity:1" fill="#2b576a" d="M 763.5,602.5 C 761.312,605.409 758.312,606.909 754.5,607C 738.167,607.667 721.833,607.667 705.5,607C 704.584,606.722 703.918,606.222 703.5,605.5C 721.845,605.833 740.179,605.5 758.5,604.5C 760.022,603.438 761.688,602.771 763.5,602.5 Z"/></g>
<g><path style="opacity:1" fill="#3d738a" d="M 842.5,599.5 C 842.326,601.861 841.993,604.194 841.5,606.5C 858.5,606.5 875.5,606.5 892.5,606.5C 875.341,607.497 858.008,607.83 840.5,607.5C 840.111,604.447 840.777,601.78 842.5,599.5 Z"/></g>
<g><path style="opacity:1" fill="#529bb9" d="M 619.5,601.5 C 618.016,604.445 615.682,606.445 612.5,607.5C 603.667,607.833 594.833,608.167 586,608.5C 576.807,608.498 567.974,607.832 559.5,606.5C 576.503,606.667 593.503,606.5 610.5,606C 613.633,604.684 616.633,603.184 619.5,601.5 Z"/></g>
<g><path style="opacity:1" fill="#5aaaca" d="M 504.5,630.5 C 504.5,630.833 504.5,631.167 504.5,631.5C 503.733,632.172 503.066,633.005 502.5,634C 465.458,634.821 428.458,634.654 391.5,633.5C 389.973,633.573 388.973,632.906 388.5,631.5C 427.276,633.164 465.943,632.831 504.5,630.5 Z"/></g>
<g><path style="opacity:0.031" fill="#617580" d="M 939.5,628.5 C 938.167,631.833 935.833,634.167 932.5,635.5C 934.188,632.479 936.521,630.145 939.5,628.5 Z"/></g>
<g><path style="opacity:1" fill="#366a7f" d="M 92.5,630.5 C 92.5,631.5 92.5,632.5 92.5,633.5C 103.5,633.5 114.5,633.5 125.5,633.5C 114.549,635.478 103.216,636.144 91.5,635.5C 91.2155,633.585 91.5489,631.919 92.5,630.5 Z"/></g>
<g><path style="opacity:1" fill="#34687d" d="M 189.5,628.5 C 189.5,630.167 189.5,631.833 189.5,633.5C 200.167,633.5 210.833,633.5 221.5,633.5C 221.402,631.447 222.069,629.78 223.5,628.5C 223.896,631.044 223.229,633.211 221.5,635C 210.172,635.5 198.838,635.667 187.5,635.5C 187.171,632.772 187.837,630.438 189.5,628.5 Z"/></g>
<g><path style="opacity:1" fill="#34677c" d="M 240.5,630.5 C 242.423,630.795 244.09,631.628 245.5,633C 285.499,633.5 325.499,633.667 365.5,633.5C 345.845,634.833 325.845,635.5 305.5,635.5C 285.5,635.333 265.5,635.167 245.5,635C 243,634.329 241.333,632.829 240.5,630.5 Z"/></g>
<g><path style="opacity:1" fill="#2b586b" d="M 504.5,631.5 C 504.67,632.822 504.337,633.989 503.5,635C 484.833,635.167 466.167,635.333 447.5,635.5C 428.488,635.5 409.821,634.833 391.5,633.5C 428.458,634.654 465.458,634.821 502.5,634C 503.066,633.005 503.733,632.172 504.5,631.5 Z"/></g>
<g><path style="opacity:1" fill="#4389a5" d="M 633.5,633.5 C 633.082,634.222 632.416,634.722 631.5,635C 596.998,635.831 562.664,635.664 528.5,634.5C 563.524,634.807 598.524,634.473 633.5,633.5 Z"/></g>
<g><path style="opacity:1" fill="#4387a3" d="M 916.5,633.5 C 916.082,634.222 915.416,634.722 914.5,635C 887.502,635.5 860.502,635.667 833.5,635.5C 861.02,634.8 888.687,634.133 916.5,633.5 Z"/></g>
<g><path style="opacity:0.948" fill="#213b4a" d="M 931.5,637.5 C 924.257,642.564 916.257,645.73 907.5,647C 885.836,647.5 864.169,647.667 842.5,647.5C 841.322,656.259 839.655,664.926 837.5,673.5C 836.06,672.054 835.393,670.221 835.5,668C 836.838,660.018 838.504,652.184 840.5,644.5C 865.167,643.833 889.833,643.167 914.5,642.5C 919.63,639.984 924.796,637.65 930,635.5C 931.03,635.836 931.53,636.503 931.5,637.5 Z"/></g>
<g><path style="opacity:0.377" fill="#2b404d" d="M 145.5,592.5 C 142.519,604.361 140.019,616.361 138,628.5C 136.542,634.526 134.709,640.359 132.5,646C 108.5,646.667 84.5,646.667 60.5,646C 59.3977,643.599 59.231,641.099 60,638.5C 60.0367,636.026 60.87,634.026 62.5,632.5C 63.1471,633.274 63.4805,634.274 63.5,635.5C 62.3448,638.011 61.6781,640.678 61.5,643.5C 84.8785,643.823 108.212,643.49 131.5,642.5C 132.854,636.619 134.521,630.785 136.5,625C 138.17,614.159 140.17,603.326 142.5,592.5C 143.5,592.5 144.5,592.5 145.5,592.5 Z"/></g>
<g><path style="opacity:0.383" fill="#203543" d="M 161.5,631.5 C 161.167,635.5 160.833,639.5 160.5,643.5C 317.501,643.833 474.501,643.5 631.5,642.5C 635.217,641.651 638.717,640.318 642,638.5C 646.279,640.358 650.613,642.024 655,643.5C 661.671,643.973 668.171,644.639 674.5,645.5C 668.642,645.178 662.975,645.511 657.5,646.5C 655.143,646.663 652.81,646.497 650.5,646C 647.615,644.68 644.615,643.513 641.5,642.5C 638.193,643.588 634.86,644.588 631.5,645.5C 473.501,646.667 315.501,646.833 157.5,646C 156.884,644.6 156.551,643.1 156.5,641.5C 156.879,638.418 157.546,635.418 158.5,632.5C 159.609,632.443 160.609,632.11 161.5,631.5 Z"/></g>
<g><path style="opacity:0.173" fill="#596b72" d="M 674.5,645.5 C 674.5,646.167 674.5,646.833 674.5,647.5C 668.642,647.822 662.975,647.489 657.5,646.5C 662.975,645.511 668.642,645.178 674.5,645.5 Z"/></g>
<g><path style="opacity:1" fill="#539ebc" d="M 796.5,652.5 C 796.025,659.67 795.025,666.67 793.5,673.5C 803.833,673.5 814.167,673.5 824.5,673.5C 823.945,669.988 824.612,666.988 826.5,664.5C 825.838,668.466 825.505,672.466 825.5,676.5C 814.167,676.5 802.833,676.5 791.5,676.5C 791.962,671.838 792.462,667.171 793,662.5C 793.937,659.02 795.104,655.687 796.5,652.5 Z"/></g>
<g><path style="opacity:0.733" fill="#213844" d="M 836.5,676.5 C 835.701,679.43 835.368,682.43 835.5,685.5C 810.833,685.5 786.167,685.5 761.5,685.5C 763.002,672.313 765.335,659.313 768.5,646.5C 764.5,646.5 760.5,646.5 756.5,646.5C 756.611,645.883 756.944,645.383 757.5,645C 761.821,644.501 766.154,644.334 770.5,644.5C 767.791,657.508 765.458,670.508 763.5,683.5C 786.5,683.5 809.5,683.5 832.5,683.5C 833.485,680.544 834.485,677.544 835.5,674.5C 836.298,674.957 836.631,675.624 836.5,676.5 Z"/></g>
</svg>
