<?xml version="1.0" encoding="UTF-8"?>
<!DOCTYPE svg PUBLIC "-//W3C//DTD SVG 1.1//EN" "http://www.w3.org/Graphics/SVG/1.1/DTD/svg11.dtd">
<svg xmlns="http://www.w3.org/2000/svg" version="1.1" width="720px" height="200px" style="shape-rendering:geometricPrecision; text-rendering:geometricPrecision; image-rendering:optimizeQuality; fill-rule:evenodd; clip-rule:evenodd" xmlns:xlink="http://www.w3.org/1999/xlink">
<g><path style="opacity:1" fill="#fefefe" d="M -0.5,-0.5 C 239.5,-0.5 479.5,-0.5 719.5,-0.5C 719.5,66.1667 719.5,132.833 719.5,199.5C 479.5,199.5 239.5,199.5 -0.5,199.5C -0.5,132.833 -0.5,66.1667 -0.5,-0.5 Z"/></g>
<g><path style="opacity:1" fill="#7499a9" d="M 535.5,48.5 C 533.748,52.2273 533.081,56.2273 533.5,60.5C 532.359,57.3601 532.192,54.0267 533,50.5C 533.708,49.6195 534.542,48.9528 535.5,48.5 Z"/></g>
<g><path style="opacity:1" fill="#79929d" d="M 456.5,72.5 C 458.654,77.4785 460.821,82.4785 463,87.5C 464.467,97.5485 463.3,107.215 459.5,116.5C 448.583,135.217 432.25,142.717 410.5,139C 398.387,135.626 389.387,128.459 383.5,117.5C 377.67,102.445 378.337,87.7787 385.5,73.5C 401.469,53.939 420.803,49.7723 443.5,61C 448.027,64.6987 452.361,68.532 456.5,72.5 Z"/></g>
<g><path style="opacity:1" fill="#19557a" d="M 533.5,60.5 C 533.081,56.2273 533.748,52.2273 535.5,48.5C 546.613,44.7895 550.78,48.4562 548,59.5C 547.167,60.3333 546.333,61.1667 545.5,62C 541.833,62.6667 538.167,62.6667 534.5,62C 533.944,61.6174 533.611,61.1174 533.5,60.5 Z"/></g>
<g><path style="opacity:1" fill="#7ba3b4" d="M 563.5,46.5 C 563.921,54.4106 563.255,62.0773 561.5,69.5C 561.461,61.6264 562.128,53.9597 563.5,46.5 Z"/></g>
<g><path style="opacity:1" fill="#426d83" d="M 281.5,57.5 C 281.5,61.8333 281.5,66.1667 281.5,70.5C 285.371,70.185 289.038,70.5184 292.5,71.5C 288.445,71.8242 284.445,71.4909 280.5,70.5C 280.086,67.5898 279.086,64.9231 277.5,62.5C 279.278,59.1689 278.278,57.5022 274.5,57.5C 272.275,58.0611 270.275,59.0611 268.5,60.5C 267.833,63.9773 267.166,67.3107 266.5,70.5C 263.722,57.2801 268.722,52.9468 281.5,57.5 Z"/></g>
<g><path style="opacity:1" fill="#1a577c" d="M 292.5,71.5 C 293.82,74.8987 293.82,78.3987 292.5,82C 287.981,82.1753 283.647,82.6753 279.5,83.5C 278.62,93.4882 278.453,103.488 279,113.5C 280.18,114.684 281.68,115.351 283.5,115.5C 285.858,115.247 288.192,114.914 290.5,114.5C 290.677,118.234 290.344,121.901 289.5,125.5C 282.527,128.115 275.527,128.115 268.5,125.5C 266.832,123.66 265.332,121.66 264,119.5C 263.5,111.507 263.334,103.507 263.5,95.5C 264.563,91.3609 265.23,87.0275 265.5,82.5C 262.721,82.7214 260.054,82.388 257.5,81.5C 257.335,78.1501 257.502,74.8168 258,71.5C 260.719,70.5562 263.552,70.2229 266.5,70.5C 267.166,67.3107 267.833,63.9773 268.5,60.5C 270.275,59.0611 272.275,58.0611 274.5,57.5C 278.278,57.5022 279.278,59.1689 277.5,62.5C 279.086,64.9231 280.086,67.5898 280.5,70.5C 284.445,71.4909 288.445,71.8242 292.5,71.5 Z"/></g>
<g><path style="opacity:1" fill="#44748d" d="M 505.5,47.5 C 505.935,55.7426 505.269,63.7426 503.5,71.5C 503.323,63.2837 503.99,55.2837 505.5,47.5 Z"/></g>
<g><path style="opacity:1" fill="#c6dce7" d="M 281.5,57.5 C 282.483,61.2984 282.817,65.2984 282.5,69.5C 286.182,69.3347 289.848,69.5014 293.5,70C 294.238,73.6158 294.904,77.2825 295.5,81C 295.095,81.9454 294.428,82.6121 293.5,83C 288.845,83.4992 284.179,83.6658 279.5,83.5C 283.647,82.6753 287.981,82.1753 292.5,82C 293.82,78.3987 293.82,74.8987 292.5,71.5C 289.038,70.5184 285.371,70.185 281.5,70.5C 281.5,66.1667 281.5,61.8333 281.5,57.5 Z"/></g>
<g><path style="opacity:1" fill="#1f597a" d="M 479.5,68.5 C 478.596,69.209 478.263,70.209 478.5,71.5C 482.833,71.5 487.167,71.5 491.5,71.5C 492.7,74.6977 492.7,78.031 491.5,81.5C 486.93,82.441 482.263,82.7744 477.5,82.5C 477.5,83.8333 477.5,85.1667 477.5,86.5C 477.784,88.4147 477.451,90.0813 476.5,91.5C 477.376,81.5523 475.543,80.5523 471,88.5C 470.833,87.5 470.667,86.5 470.5,85.5C 472.133,82.0987 473.466,78.5987 474.5,75C 473.525,69.2588 473.192,63.4254 473.5,57.5C 471.856,57.2865 470.356,57.6198 469,58.5C 468.449,64.2497 468.616,69.7497 469.5,75C 469.122,76.6349 468.456,78.1349 467.5,79.5C 466.686,77.2338 466.186,74.9005 466,72.5C 464.989,71.6634 463.822,71.33 462.5,71.5C 462.833,74.1667 463.167,76.8333 463.5,79.5C 461.597,76.7009 459.931,73.7009 458.5,70.5C 460.5,70.5 462.5,70.5 464.5,70.5C 464.5,66.1667 464.5,61.8333 464.5,57.5C 469.182,56.2969 473.849,56.2969 478.5,57.5C 479.489,61.1073 479.823,64.774 479.5,68.5 Z"/></g>
<g><path style="opacity:1" fill="#7392a8" d="M 479.5,68.5 C 483.232,70.1307 487.232,71.1307 491.5,71.5C 487.167,71.5 482.833,71.5 478.5,71.5C 478.263,70.209 478.596,69.209 479.5,68.5 Z"/></g>
<g><path style="opacity:1" fill="#d0e6ef" d="M 577.5,46.5 C 577.845,55.3813 578.845,64.048 580.5,72.5C 579.833,73.8333 578.833,74.8333 577.5,75.5C 576.532,73.3926 576.198,71.0593 576.5,68.5C 576.629,61.1553 576.962,53.8219 577.5,46.5 Z"/></g>
<g><path style="opacity:1" fill="#456e86" d="M 121.5,78.5 C 120.776,76.7816 120.109,74.9483 119.5,73C 115.229,71.677 112.062,72.8437 110,76.5C 109.398,83.6596 108.898,90.8263 108.5,98C 108.481,101.252 107.814,104.085 106.5,106.5C 106.879,94.7141 108.045,83.0474 110,71.5C 113.468,70.1969 116.968,70.1969 120.5,71.5C 121.474,73.7427 121.808,76.076 121.5,78.5 Z"/></g>
<g><path style="opacity:1" fill="#c2d8e3" d="M 543.5,122.5 C 543.976,114.174 544.309,105.84 544.5,97.5C 545.457,89.0051 546.123,80.3385 546.5,71.5C 541.833,70.1667 537.167,70.1667 532.5,71.5C 532.298,79.6864 531.631,87.6864 530.5,95.5C 530.5,87.1667 530.5,78.8333 530.5,70.5C 535.848,69.2753 541.181,69.2753 546.5,70.5C 546.833,72.3333 547.167,74.1667 547.5,76C 546.789,87.8223 546.289,99.6557 546,111.5C 544.986,115.241 544.153,118.907 543.5,122.5 Z"/></g>
<g><path style="opacity:1" fill="#78989f" d="M 576.5,68.5 C 576.198,71.0593 576.532,73.3926 577.5,75.5C 577.44,76.0431 577.107,76.3764 576.5,76.5C 575.2,73.6908 575.2,71.0241 576.5,68.5 Z"/></g>
<g><path style="opacity:1" fill="#78a1b3" d="M 316.5,71.5 C 317.167,73.5 317.833,75.5 318.5,77.5C 317.377,78.7574 316.711,78.4241 316.5,76.5C 316.5,74.8333 316.5,73.1667 316.5,71.5 Z"/></g>
<g><path style="opacity:1" fill="#c0d8e4" d="M 221.5,69.5 C 217.069,70.7005 212.736,72.3672 208.5,74.5C 205.857,77.266 204.857,80.5994 205.5,84.5C 204.839,82.866 204.506,81.0326 204.5,79C 204.654,76.6209 205.32,74.4542 206.5,72.5C 211.412,71.0215 216.412,70.0215 221.5,69.5 Z"/></g>
<g><path style="opacity:1" fill="#d6e7ee" d="M 385.5,73.5 C 378.337,87.7787 377.67,102.445 383.5,117.5C 382.85,117.196 382.183,116.863 381.5,116.5C 380.833,119.642 380.166,122.642 379.5,125.5C 379.961,118.658 379.128,111.991 377,105.5C 374.893,94.0316 376.893,83.3649 383,73.5C 384.047,64.5149 384.38,55.5149 384,46.5C 381.925,45.8656 379.759,45.5323 377.5,45.5C 375.048,45.5391 373.048,46.2057 371.5,47.5C 370.549,48.9187 370.216,50.5853 370.5,52.5C 369.833,57.5 369.167,62.5 368.5,67.5C 368.812,60.5778 368.479,53.7445 367.5,47C 368.328,46.0853 369.328,45.4186 370.5,45C 375.167,44.3333 379.833,44.3333 384.5,45C 385.234,54.6082 385.568,64.1082 385.5,73.5 Z"/></g>
<g><path style="opacity:1" fill="#18567b" d="M 163.5,72.5 C 166.821,72.5358 169.988,71.8692 173,70.5C 176.51,71.7773 179.677,73.6106 182.5,76C 183.793,76.49 185.127,76.6567 186.5,76.5C 184.058,92.757 184.058,109.09 186.5,125.5C 186.5,126.167 186.167,126.5 185.5,126.5C 181.894,126.789 178.394,126.456 175,125.5C 174.501,120.845 174.334,116.179 174.5,111.5C 175.052,103.166 175.219,94.8323 175,86.5C 173.208,83.6657 170.541,82.3324 167,82.5C 164.345,82.124 162.512,83.124 161.5,85.5C 159.833,86.8333 158.167,88.1667 156.5,89.5C 155.527,87.9317 155.36,86.265 156,84.5C 158.172,83.4911 159.338,81.8244 159.5,79.5C 156.171,79.7363 153.171,78.903 150.5,77C 149.833,76 149.167,75 148.5,74C 144.311,72.2001 139.978,71.5334 135.5,72C 135.043,72.414 134.709,72.914 134.5,73.5C 137.5,74.1667 140.5,74.8333 143.5,75.5C 145.289,76.623 145.622,77.9564 144.5,79.5C 140.838,77.2683 137.005,76.935 133,78.5C 130.275,74.8316 127.775,74.8316 125.5,78.5C 127.121,81.2709 129.288,81.9376 132,80.5C 133.728,80.899 135.228,81.5657 136.5,82.5C 134.143,82.3367 131.81,82.5034 129.5,83C 122.671,88.1103 120.004,94.9437 121.5,103.5C 121.5,105.5 121.5,107.5 121.5,109.5C 120.674,114.316 120.174,119.316 120,124.5C 117.959,125.752 115.625,126.419 113,126.5C 110.576,126.47 108.243,126.137 106,125.5C 106.351,119.893 106.517,114.227 106.5,108.5C 106.5,107.833 106.5,107.167 106.5,106.5C 107.814,104.085 108.481,101.252 108.5,98C 108.898,90.8263 109.398,83.6596 110,76.5C 112.062,72.8437 115.229,71.677 119.5,73C 120.109,74.9483 120.776,76.7816 121.5,78.5C 132.611,67.0209 143.944,66.6876 155.5,77.5C 158.202,75.78 160.868,74.1134 163.5,72.5 Z"/></g>
<g><path style="opacity:1" fill="#11547d" d="M 156.5,89.5 C 155.662,89.8417 155.328,90.5084 155.5,91.5C 154.71,92.6085 154.21,93.9419 154,95.5C 153.667,101.167 153.333,106.833 153,112.5C 152.16,115.464 151.16,115.797 150,113.5C 149.333,116.167 148.667,116.167 148,113.5C 147.502,116.482 147.335,119.482 147.5,122.5C 146.167,122.5 144.833,122.5 143.5,122.5C 144.158,119.844 144.825,117.178 145.5,114.5C 144.969,110.816 144.969,106.983 145.5,103C 144.122,95.1317 142.789,87.2984 141.5,79.5C 140.5,79.5 139.5,79.5 138.5,79.5C 138.5,80.5 138.5,81.5 138.5,82.5C 137.833,82.5 137.167,82.5 136.5,82.5C 135.228,81.5657 133.728,80.899 132,80.5C 129.288,81.9376 127.121,81.2709 125.5,78.5C 127.775,74.8316 130.275,74.8316 133,78.5C 137.005,76.935 140.838,77.2683 144.5,79.5C 145.622,77.9564 145.289,76.623 143.5,75.5C 140.5,74.8333 137.5,74.1667 134.5,73.5C 134.709,72.914 135.043,72.414 135.5,72C 139.978,71.5334 144.311,72.2001 148.5,74C 149.167,75 149.833,76 150.5,77C 153.171,78.903 156.171,79.7363 159.5,79.5C 159.338,81.8244 158.172,83.4911 156,84.5C 155.36,86.265 155.527,87.9317 156.5,89.5 Z"/></g>
<g><path style="opacity:1" fill="#20597b" d="M 544.5,97.5 C 544.309,105.84 543.976,114.174 543.5,122.5C 543.863,124.911 542.863,126.411 540.5,127C 536.577,127.793 532.744,127.626 529,126.5C 528.78,116.14 529.28,105.807 530.5,95.5C 531.631,87.6864 532.298,79.6864 532.5,71.5C 537.167,70.1667 541.833,70.1667 546.5,71.5C 546.123,80.3385 545.457,89.0051 544.5,97.5 Z"/></g>
<g><path style="opacity:1" fill="#12547d" d="M 544.5,97.5 C 543.578,101.995 542.911,106.662 542.5,111.5C 541.5,111.5 540.5,111.5 539.5,111.5C 539.187,114.572 539.854,117.405 541.5,120C 539.746,120.887 538.079,122.387 536.5,124.5C 534.751,122.469 532.751,122.135 530.5,123.5C 530.167,122.667 529.833,121.833 529.5,121C 530.52,115.194 531.353,109.361 532,103.5C 532.497,106.146 532.664,108.813 532.5,111.5C 535.488,111.845 536.821,110.512 536.5,107.5C 536.647,96.6167 536.48,85.6167 536,74.5C 542.435,72.4585 543.269,73.9585 538.5,79C 539.473,84.4066 539.807,89.9066 539.5,95.5C 540.5,95.5 541.5,95.5 542.5,95.5C 542.334,90.1563 542.501,84.8229 543,79.5C 543.252,85.5484 543.752,91.5484 544.5,97.5 Z"/></g>
<g><path style="opacity:1" fill="#15557c" d="M 353.5,81.5 C 356.164,91.56 355.83,101.56 352.5,111.5C 351.833,112.5 351.167,113.5 350.5,114.5C 349.5,114.5 348.5,114.5 347.5,114.5C 347.5,115.833 347.5,117.167 347.5,118.5C 344.117,121.271 340.284,123.271 336,124.5C 335.219,123.056 335.386,121.723 336.5,120.5C 338.115,119.846 339.782,119.346 341.5,119C 342.167,117.333 342.833,115.667 343.5,114C 337.064,113.969 336.231,112.135 341,108.5C 341.221,103.78 341.721,99.1133 342.5,94.5C 340.569,89.6264 338.902,84.6264 337.5,79.5C 331.689,80.949 325.689,81.6156 319.5,81.5C 318.036,84.9317 316.703,88.4317 315.5,92C 316.07,99.2002 316.736,106.367 317.5,113.5C 316.571,115.322 317.238,116.655 319.5,117.5C 317.49,119.171 315.157,119.838 312.5,119.5C 312.708,117.08 312.374,114.747 311.5,112.5C 312.415,111.672 313.081,110.672 313.5,109.5C 312.249,100.679 312.249,91.8457 313.5,83C 313.333,81.5 313.167,80 313,78.5C 311.817,77.269 310.651,77.269 309.5,78.5C 310.311,79.2164 310.978,80.0497 311.5,81C 310.541,83.8948 309.207,86.5615 307.5,89C 308.242,92.559 309.576,95.8923 311.5,99C 310.281,101.283 310.281,103.616 311.5,106C 311.054,107.726 310.221,109.226 309,110.5C 308.158,104.448 306.991,98.4483 305.5,92.5C 307.18,85.8372 307.847,79.1705 307.5,72.5C 311.591,71.8363 314.591,73.1696 316.5,76.5C 316.711,78.4241 317.377,78.7574 318.5,77.5C 328.608,67.7841 339.275,67.1174 350.5,75.5C 352.038,77.2433 353.038,79.2433 353.5,81.5 Z"/></g>
<g><path style="opacity:1" fill="#1d5675" d="M 186.5,125.5 C 184.058,109.09 184.058,92.757 186.5,76.5C 185.127,76.6567 183.793,76.49 182.5,76C 179.677,73.6106 176.51,71.7773 173,70.5C 169.988,71.8692 166.821,72.5358 163.5,72.5C 179.908,65.7082 188.908,71.2082 190.5,89C 189.44,101.345 188.106,113.512 186.5,125.5 Z"/></g>
<g><path style="opacity:1" fill="#12547d" d="M 370.5,52.5 C 370.216,50.5853 370.549,48.9187 371.5,47.5C 373.045,48.2297 373.878,49.563 374,51.5C 373.791,47.5408 375.625,45.8742 379.5,46.5C 379.274,54.0764 379.94,61.5764 381.5,69C 381.167,70.8333 380.833,72.6667 380.5,74.5C 379.097,70.9785 378.097,67.3118 377.5,63.5C 376.674,65.9589 376.007,68.4589 375.5,71C 376.683,73.7141 377.349,76.5475 377.5,79.5C 377.051,82.3227 376.051,84.8227 374.5,87C 375.757,95.1623 375.757,103.329 374.5,111.5C 375.146,107.058 374.479,102.724 372.5,98.5C 372.726,96.8114 373.059,95.1447 373.5,93.5C 370.009,86.3491 369.675,79.0158 372.5,71.5C 371.473,65.1925 370.807,58.8592 370.5,52.5 Z"/></g>
<g><path style="opacity:1" fill="#a5bdce" d="M 491.5,81.5 C 487.627,83.4302 483.294,84.0969 478.5,83.5C 478.737,84.791 478.404,85.791 477.5,86.5C 477.5,85.1667 477.5,83.8333 477.5,82.5C 482.263,82.7744 486.93,82.441 491.5,81.5 Z"/></g>
<g><path style="opacity:1" fill="#c6dae4" d="M 136.5,82.5 C 137.167,82.5 137.833,82.5 138.5,82.5C 139.504,83.6828 140.338,85.0161 141,86.5C 141.821,93.6791 141.655,100.679 140.5,107.5C 140.666,100.825 140.5,94.1583 140,87.5C 137.833,84.7132 134.999,83.8799 131.5,85C 129.924,87.0771 127.924,88.5771 125.5,89.5C 123.827,94.2103 122.494,98.877 121.5,103.5C 120.004,94.9437 122.671,88.1103 129.5,83C 131.81,82.5034 134.143,82.3367 136.5,82.5 Z"/></g>
<g><path style="opacity:1" fill="#c8dce8" d="M 353.5,81.5 C 355.933,85.1924 356.933,89.3591 356.5,94C 356.397,98.5452 355.897,103.045 355,107.5C 354.8,109.32 353.966,110.653 352.5,111.5C 355.83,101.56 356.164,91.56 353.5,81.5 Z"/></g>
<g><path style="opacity:1" fill="#bcd5df" d="M 257.5,81.5 C 260.054,82.388 262.721,82.7214 265.5,82.5C 265.23,87.0275 264.563,91.3609 263.5,95.5C 263.241,91.7604 263.574,88.0938 264.5,84.5C 261.705,84.0615 259.372,83.0615 257.5,81.5 Z"/></g>
<g><path style="opacity:1" fill="#bfd3e4" d="M 502.5,79.5 C 502.587,87.7091 501.921,95.7091 500.5,103.5C 500.065,95.2574 500.731,87.2574 502.5,79.5 Z"/></g>
<g><path style="opacity:1" fill="#dbebf0" d="M 174.5,111.5 C 173.513,116.305 173.179,121.305 173.5,126.5C 172.171,115.765 172.171,104.931 173.5,94C 171.331,92.6723 170.998,91.0057 172.5,89C 170.38,83.1395 166.713,81.9728 161.5,85.5C 162.512,83.124 164.345,82.124 167,82.5C 170.541,82.3324 173.208,83.6657 175,86.5C 175.219,94.8323 175.052,103.166 174.5,111.5 Z"/></g>
<g><path style="opacity:1" fill="#1a577b" d="M 515.5,95.5 C 513.533,103.097 512.866,111.097 513.5,119.5C 513.702,121.95 513.369,124.283 512.5,126.5C 508.167,126.5 503.833,126.5 499.5,126.5C 499.778,118.83 500.111,111.164 500.5,103.5C 501.921,95.7091 502.587,87.7091 502.5,79.5C 502.194,76.6146 502.527,73.9479 503.5,71.5C 505.269,63.7426 505.935,55.7426 505.5,47.5C 507.223,46.1999 509.39,45.5332 512,45.5C 514.424,45.5296 516.757,45.8629 519,46.5C 518.441,63.0031 517.274,79.3364 515.5,95.5 Z"/></g>
<g><path style="opacity:1" fill="#386e84" d="M 515.5,95.5 C 515.499,103.517 515.166,111.517 514.5,119.5C 514.167,119.5 513.833,119.5 513.5,119.5C 512.866,111.097 513.533,103.097 515.5,95.5 Z"/></g>
<g><path style="opacity:1" fill="#1f5a7b" d="M 379.5,125.5 C 375.067,127.301 370.4,127.967 365.5,127.5C 365.5,121.5 365.5,115.5 365.5,109.5C 367.039,103.063 367.706,96.3961 367.5,89.5C 367.944,82.1729 368.277,74.8395 368.5,67.5C 369.167,62.5 369.833,57.5 370.5,52.5C 370.807,58.8592 371.473,65.1925 372.5,71.5C 369.675,79.0158 370.009,86.3491 373.5,93.5C 373.059,95.1447 372.726,96.8114 372.5,98.5C 374.479,102.724 375.146,107.058 374.5,111.5C 375.757,103.329 375.757,95.1623 374.5,87C 376.051,84.8227 377.051,82.3227 377.5,79.5C 377.349,76.5475 376.683,73.7141 375.5,71C 376.007,68.4589 376.674,65.9589 377.5,63.5C 378.097,67.3118 379.097,70.9785 380.5,74.5C 380.833,72.6667 381.167,70.8333 381.5,69C 379.94,61.5764 379.274,54.0764 379.5,46.5C 375.625,45.8742 373.791,47.5408 374,51.5C 373.878,49.563 373.045,48.2297 371.5,47.5C 373.048,46.2057 375.048,45.5391 377.5,45.5C 379.759,45.5323 381.925,45.8656 384,46.5C 384.38,55.5149 384.047,64.5149 383,73.5C 376.893,83.3649 374.893,94.0316 377,105.5C 379.128,111.991 379.961,118.658 379.5,125.5 Z"/></g>
<g><path style="opacity:1" fill="#1c577b" d="M 476.5,91.5 C 476.068,99.2792 476.568,106.946 478,114.5C 481.435,115.466 484.935,115.466 488.5,114.5C 488.665,117.518 488.498,120.518 488,123.5C 486.764,125.538 484.931,126.705 482.5,127C 478.167,127.667 473.833,127.667 469.5,127C 467.34,125.668 465.34,124.168 463.5,122.5C 462.904,117.061 463.737,111.728 466,106.5C 467.209,97.261 466.375,88.261 463.5,79.5C 463.167,76.8333 462.833,74.1667 462.5,71.5C 463.822,71.33 464.989,71.6634 466,72.5C 466.186,74.9005 466.686,77.2338 467.5,79.5C 468.456,78.1349 469.122,76.6349 469.5,75C 468.616,69.7497 468.449,64.2497 469,58.5C 470.356,57.6198 471.856,57.2865 473.5,57.5C 473.192,63.4254 473.525,69.2588 474.5,75C 473.466,78.5987 472.133,82.0987 470.5,85.5C 470.667,86.5 470.833,87.5 471,88.5C 475.543,80.5523 477.376,81.5523 476.5,91.5 Z"/></g>
<g><path style="opacity:1" fill="#1b577a" d="M 575.5,46.5 C 576.167,46.5 576.833,46.5 577.5,46.5C 576.962,53.8219 576.629,61.1553 576.5,68.5C 575.2,71.0241 575.2,73.6908 576.5,76.5C 577.107,76.3764 577.44,76.0431 577.5,75.5C 578.833,74.8333 579.833,73.8333 580.5,72.5C 594.511,66.1942 604.677,69.8608 611,83.5C 612.81,95.7084 611.144,107.375 606,118.5C 598.214,127.386 588.714,129.886 577.5,126C 575,124.167 572.833,122 571,119.5C 570.667,121.5 570.333,123.5 570,125.5C 569.617,126.056 569.117,126.389 568.5,126.5C 565.223,126.784 562.057,126.451 559,125.5C 558.502,122.183 558.335,118.85 558.5,115.5C 559.61,100.175 560.61,84.8414 561.5,69.5C 563.255,62.0773 563.921,54.4106 563.5,46.5C 567.601,45.2092 571.601,45.2092 575.5,46.5 Z"/></g>
<g><path style="opacity:1" fill="#b3d1de" d="M 594.5,85.5 C 595.222,85.9175 595.722,86.5842 596,87.5C 596.667,92.8333 596.667,98.1667 596,103.5C 595.76,105.852 594.927,107.852 593.5,109.5C 594.161,104.839 594.828,100.172 595.5,95.5C 595.276,92.1453 594.943,88.812 594.5,85.5 Z"/></g>
<g><path style="opacity:1" fill="#f6fafb" d="M 594.5,85.5 C 594.943,88.812 595.276,92.1453 595.5,95.5C 594.828,100.172 594.161,104.839 593.5,109.5C 590.595,114.617 586.262,116.45 580.5,115C 576.461,112.318 574.128,108.651 573.5,104C 574.033,99.1701 574.533,94.3368 575,89.5C 580.415,81.965 586.915,80.6316 594.5,85.5 Z"/></g>
<g><path style="opacity:1" fill="#11547c" d="M 575.5,46.5 C 576.018,47.5774 576.352,48.7441 576.5,50C 575.82,54.477 575.32,58.977 575,63.5C 574.17,58.1924 573.67,52.8591 573.5,47.5C 572.5,47.5 571.5,47.5 570.5,47.5C 570.137,50.989 569.804,54.489 569.5,58C 573.696,75.721 574.363,93.5544 571.5,111.5C 570.811,106.282 570.144,101.116 569.5,96C 571.657,94.9153 571.824,93.7487 570,92.5C 565.699,99.4223 565.533,106.422 569.5,113.5C 568.698,116.574 567.698,119.574 566.5,122.5C 564.177,121.006 563.844,119.172 565.5,117C 561.672,101.62 561.005,86.1198 563.5,70.5C 564.086,70.7093 564.586,71.0426 565,71.5C 565.224,63.4571 565.891,55.4571 567,47.5C 569.719,46.5562 572.552,46.2229 575.5,46.5 Z"/></g>
<g><path style="opacity:1" fill="#d6e8ef" d="M 458.5,70.5 C 459.931,73.7009 461.597,76.7009 463.5,79.5C 466.375,88.261 467.209,97.261 466,106.5C 463.737,111.728 462.904,117.061 463.5,122.5C 462.883,122.389 462.383,122.056 462,121.5C 461.667,119.5 461.333,117.5 461,115.5C 460.617,116.056 460.117,116.389 459.5,116.5C 463.3,107.215 464.467,97.5485 463,87.5C 460.821,82.4785 458.654,77.4785 456.5,72.5C 457.167,71.8333 457.833,71.1667 458.5,70.5 Z"/></g>
<g><path style="opacity:1" fill="#f8f9f7" d="M 413.5,56.5 C 429.299,54.709 442.466,59.709 453,71.5C 461.145,82.1661 463.811,94.1661 461,107.5C 453.644,129.172 438.478,139.338 415.5,138C 390.621,132.094 379.121,116.26 381,90.5C 385.585,73.084 396.418,61.7506 413.5,56.5 Z"/></g>
<g><path style="opacity:1" fill="#a38f7b" d="M 423.5,97.5 C 425.812,100.479 428.479,103.146 431.5,105.5C 430.624,105.369 429.957,105.702 429.5,106.5C 430.63,107.622 431.297,108.956 431.5,110.5C 429.177,107.874 426.843,105.207 424.5,102.5C 423.713,100.896 422.38,100.229 420.5,100.5C 420.5,99.8333 420.167,99.5 419.5,99.5C 420.189,98.2264 421.023,98.2264 422,99.5C 422.278,98.5842 422.778,97.9175 423.5,97.5 Z"/></g>
<g><path style="opacity:1" fill="#8caea2" d="M 410.5,99.5 C 411.919,98.5489 413.585,98.2155 415.5,98.5C 416.239,98.369 416.906,98.5357 417.5,99C 416.262,99.69 416.262,100.19 417.5,100.5C 413.673,103.995 409.34,106.661 404.5,108.5C 404.286,106.856 404.62,105.356 405.5,104C 408.95,102.97 412.283,101.637 415.5,100C 413.866,99.5065 412.199,99.3398 410.5,99.5 Z"/></g>
<g><path style="opacity:1" fill="#b2a274" d="M 406.5,90.5 C 404.712,90.7852 403.045,90.4519 401.5,89.5C 400.91,88.2011 399.91,87.3678 398.5,87C 396.19,86.5034 393.857,86.3367 391.5,86.5C 389.849,91.3284 389.183,96.3284 389.5,101.5C 396.508,100.916 403.508,100.249 410.5,99.5C 403.633,101.441 396.633,102.941 389.5,104C 388.863,101.757 388.53,99.4241 388.5,97C 388.646,92.405 389.313,87.905 390.5,83.5C 396.591,84.2146 401.924,86.5479 406.5,90.5 Z"/></g>
<g><path style="opacity:1" fill="#545551" d="M 418.5,95.5 C 421.167,95.8333 423.833,96.1667 426.5,96.5C 426.5,96.8333 426.5,97.1667 426.5,97.5C 425.5,97.5 424.5,97.5 423.5,97.5C 422.778,97.9175 422.278,98.5842 422,99.5C 421.023,98.2264 420.189,98.2264 419.5,99.5C 418.833,99.8333 418.167,100.167 417.5,100.5C 416.262,100.19 416.262,99.69 417.5,99C 416.906,98.5357 416.239,98.369 415.5,98.5C 416.609,97.71 417.942,97.21 419.5,97C 418.944,96.6174 418.611,96.1174 418.5,95.5 Z"/></g>
<g><path style="opacity:1" fill="#647298" d="M 426.5,97.5 C 426.5,97.1667 426.5,96.8333 426.5,96.5C 426.5,96.1667 426.5,95.8333 426.5,95.5C 427.568,94.5655 428.901,94.2322 430.5,94.5C 430.5,95.5 430.5,96.5 430.5,97.5C 429.167,97.5 427.833,97.5 426.5,97.5 Z"/></g>
<g><path style="opacity:1" fill="#f8d86f" d="M 406.5,90.5 C 409.539,93.5378 413.206,95.2045 417.5,95.5C 417.833,95.5 418.167,95.5 418.5,95.5C 418.611,96.1174 418.944,96.6174 419.5,97C 417.942,97.21 416.609,97.71 415.5,98.5C 413.585,98.2155 411.919,98.5489 410.5,99.5C 403.508,100.249 396.508,100.916 389.5,101.5C 389.183,96.3284 389.849,91.3284 391.5,86.5C 393.857,86.3367 396.19,86.5034 398.5,87C 399.91,87.3678 400.91,88.2011 401.5,89.5C 403.045,90.4519 404.712,90.7852 406.5,90.5 Z"/></g>
<g><path style="opacity:1" fill="#c0b37e" d="M 406.5,90.5 C 409.146,91.4866 411.812,92.4866 414.5,93.5C 415.107,93.3764 415.44,93.0431 415.5,92.5C 416.906,92.9731 417.573,93.9731 417.5,95.5C 413.206,95.2045 409.539,93.5378 406.5,90.5 Z"/></g>
<g><path style="opacity:1" fill="#bdc68a" d="M 429.5,75.5 C 428.942,78.3443 428.275,81.1776 427.5,84C 427.833,84.8333 428.167,85.6667 428.5,86.5C 429.518,85.8075 430.518,85.1408 431.5,84.5C 430.92,86.7488 429.587,88.4154 427.5,89.5C 426.542,89.9528 425.708,90.6195 425,91.5C 424.536,90.9056 424.369,90.2389 424.5,89.5C 425.036,84.4289 426.702,79.7623 429.5,75.5 Z"/></g>
<g><path style="opacity:1" fill="#dcf48f" d="M 431.5,84.5 C 430.518,85.1408 429.518,85.8075 428.5,86.5C 428.167,85.6667 427.833,84.8333 427.5,84C 428.275,81.1776 428.942,78.3443 429.5,75.5C 432.026,72.9837 434.36,73.3171 436.5,76.5C 434.311,78.8867 432.644,81.5534 431.5,84.5 Z"/></g>
<g><path style="opacity:1" fill="#b4967c" d="M 424.5,89.5 C 424.369,90.2389 424.536,90.9056 425,91.5C 425.708,90.6195 426.542,89.9528 427.5,89.5C 426.952,91.3936 425.952,93.0603 424.5,94.5C 424.957,95.2975 425.624,95.6309 426.5,95.5C 426.5,95.8333 426.5,96.1667 426.5,96.5C 423.833,96.1667 421.167,95.8333 418.5,95.5C 418.167,95.5 417.833,95.5 417.5,95.5C 417.573,93.9731 416.906,92.9731 415.5,92.5C 414.833,91.5 414.167,90.5 413.5,89.5C 415.17,89.7512 416.67,90.4178 418,91.5C 416.859,82.3396 415.026,73.3396 412.5,64.5C 410.579,63.359 408.579,63.1923 406.5,64C 404.186,65.2673 401.852,66.434 399.5,67.5C 403.431,63.182 408.431,61.182 414.5,61.5C 415.797,72.8251 418.297,83.8251 422,94.5C 422.374,92.5087 423.207,90.842 424.5,89.5 Z"/></g>
<g><path style="opacity:1" fill="#afba89" d="M 431.5,84.5 C 432.644,81.5534 434.311,78.8867 436.5,76.5C 434.36,73.3171 432.026,72.9837 429.5,75.5C 429.085,73.0523 430.085,71.7189 432.5,71.5C 435.091,72.2871 437.091,73.7871 438.5,76C 437.071,79.594 434.738,82.4273 431.5,84.5 Z"/></g>
<g><path style="opacity:1" fill="#bc937e" d="M 399.5,71.5 C 401.017,71.5106 402.184,72.1772 403,73.5C 405.58,78.084 408.913,82.084 413,85.5C 413.483,86.448 413.649,87.448 413.5,88.5C 408.127,83.4253 403.461,77.7587 399.5,71.5 Z"/></g>
<g><path style="opacity:1" fill="#f5a771" d="M 413.5,89.5 C 413.5,89.1667 413.5,88.8333 413.5,88.5C 413.649,87.448 413.483,86.448 413,85.5C 408.913,82.084 405.58,78.084 403,73.5C 402.184,72.1772 401.017,71.5106 399.5,71.5C 399.5,70.1667 399.5,68.8333 399.5,67.5C 401.852,66.434 404.186,65.2673 406.5,64C 408.579,63.1923 410.579,63.359 412.5,64.5C 415.026,73.3396 416.859,82.3396 418,91.5C 416.67,90.4178 415.17,89.7512 413.5,89.5 Z"/></g>
<g><path style="opacity:1" fill="#a49085" d="M 399.5,67.5 C 399.5,68.8333 399.5,70.1667 399.5,71.5C 395.735,69.8084 395.735,68.4751 399.5,67.5 Z"/></g>
<g><path style="opacity:1" fill="#6b90a3" d="M 156.5,89.5 C 156.374,97.028 155.707,104.361 154.5,111.5C 154.454,104.809 154.788,98.1426 155.5,91.5C 155.328,90.5084 155.662,89.8417 156.5,89.5 Z"/></g>
<g><path style="opacity:1" fill="#1f597b" d="M 316.5,71.5 C 316.5,73.1667 316.5,74.8333 316.5,76.5C 314.591,73.1696 311.591,71.8363 307.5,72.5C 307.847,79.1705 307.18,85.8372 305.5,92.5C 306.991,98.4483 308.158,104.448 309,110.5C 310.221,109.226 311.054,107.726 311.5,106C 310.281,103.616 310.281,101.283 311.5,99C 309.576,95.8923 308.242,92.559 307.5,89C 309.207,86.5615 310.541,83.8948 311.5,81C 310.978,80.0497 310.311,79.2164 309.5,78.5C 310.651,77.269 311.817,77.269 313,78.5C 313.167,80 313.333,81.5 313.5,83C 312.249,91.8457 312.249,100.679 313.5,109.5C 313.081,110.672 312.415,111.672 311.5,112.5C 312.374,114.747 312.708,117.08 312.5,119.5C 315.157,119.838 317.49,119.171 319.5,117.5C 317.238,116.655 316.571,115.322 317.5,113.5C 316.736,106.367 316.07,99.2002 315.5,92C 316.703,88.4317 318.036,84.9317 319.5,81.5C 325.689,81.6156 331.689,80.949 337.5,79.5C 338.902,84.6264 340.569,89.6264 342.5,94.5C 341.721,99.1133 341.221,103.78 341,108.5C 336.231,112.135 337.064,113.969 343.5,114C 342.833,115.667 342.167,117.333 341.5,119C 339.782,119.346 338.115,119.846 336.5,120.5C 335.386,121.723 335.219,123.056 336,124.5C 340.284,123.271 344.117,121.271 347.5,118.5C 347.5,117.167 347.5,115.833 347.5,114.5C 348.5,114.5 349.5,114.5 350.5,114.5C 347.696,121.3 342.696,125.634 335.5,127.5C 327.929,129.031 321.596,127.031 316.5,121.5C 315.642,129.852 314.642,138.186 313.5,146.5C 308.835,147.773 304.168,147.773 299.5,146.5C 301.499,121.523 303.165,96.5232 304.5,71.5C 308.548,70.3216 312.548,70.3216 316.5,71.5 Z"/></g>
<g><path style="opacity:1" fill="#f7fbfb" d="M 331.5,114.5 C 328.43,114.632 325.43,114.299 322.5,113.5C 320.693,112.164 319.193,110.497 318,108.5C 317.333,102.5 317.333,96.5 318,90.5C 320.5,88 323,85.5 325.5,83C 328.833,82.3333 332.167,82.3333 335.5,83C 337.041,84.5793 338.208,86.4127 339,88.5C 340.291,96.4976 339.291,104.164 336,111.5C 334.729,112.883 333.229,113.883 331.5,114.5 Z"/></g>
<g><path style="opacity:1" fill="#8dadba" d="M 367.5,89.5 C 367.706,96.3961 367.039,103.063 365.5,109.5C 365.638,102.637 366.304,95.9702 367.5,89.5 Z"/></g>
<g><path style="opacity:1" fill="#cd9978" d="M 431.5,105.5 C 434.447,106.781 436.781,108.781 438.5,111.5C 437.5,111.5 436.5,111.5 435.5,111.5C 436.553,114.607 437.886,117.607 439.5,120.5C 436.484,117.48 433.817,114.146 431.5,110.5C 431.297,108.956 430.63,107.622 429.5,106.5C 429.957,105.702 430.624,105.369 431.5,105.5 Z"/></g>
<g><path style="opacity:1" fill="#b2f1b1" d="M 418.5,109.5 C 418.5,109.167 418.5,108.833 418.5,108.5C 419.927,106.852 420.76,104.852 421,102.5C 422.807,108.283 423.641,114.283 423.5,120.5C 421.738,120.643 420.071,120.309 418.5,119.5C 417.599,116.205 417.599,112.872 418.5,109.5 Z"/></g>
<g><path style="opacity:1" fill="#a0c1d6" d="M 322.5,113.5 C 325.43,114.299 328.43,114.632 331.5,114.5C 329.034,115.634 326.367,115.801 323.5,115C 322.944,114.617 322.611,114.117 322.5,113.5 Z"/></g>
<g><path style="opacity:1" fill="#1e587a" d="M 155.5,91.5 C 154.788,98.1426 154.454,104.809 154.5,111.5C 154.819,116.363 154.486,121.03 153.5,125.5C 149.232,126.373 144.898,126.706 140.5,126.5C 139.45,120.326 139.45,113.993 140.5,107.5C 141.655,100.679 141.821,93.6791 141,86.5C 140.338,85.0161 139.504,83.6828 138.5,82.5C 138.5,81.5 138.5,80.5 138.5,79.5C 139.5,79.5 140.5,79.5 141.5,79.5C 142.789,87.2984 144.122,95.1317 145.5,103C 144.969,106.983 144.969,110.816 145.5,114.5C 144.825,117.178 144.158,119.844 143.5,122.5C 144.833,122.5 146.167,122.5 147.5,122.5C 147.335,119.482 147.502,116.482 148,113.5C 148.667,116.167 149.333,116.167 150,113.5C 151.16,115.797 152.16,115.464 153,112.5C 153.333,106.833 153.667,101.167 154,95.5C 154.21,93.9419 154.71,92.6085 155.5,91.5 Z"/></g>
<g><path style="opacity:1" fill="#ba977f" d="M 439.5,111.5 C 441.964,113.57 444.631,115.404 447.5,117C 451.697,121.414 450.697,124.581 444.5,126.5C 442.086,125.089 440.419,123.089 439.5,120.5C 441.689,122.507 444.355,123.507 447.5,123.5C 447.939,119.596 446.272,117.096 442.5,116C 440.859,114.871 439.859,113.371 439.5,111.5 Z"/></g>
<g><path style="opacity:1" fill="#9fb99f" d="M 420.5,100.5 C 422.38,100.229 423.713,100.896 424.5,102.5C 423.876,102.917 423.543,103.584 423.5,104.5C 424.729,110.103 425.396,115.77 425.5,121.5C 415.094,122.331 412.76,118.331 418.5,109.5C 417.599,112.872 417.599,116.205 418.5,119.5C 420.071,120.309 421.738,120.643 423.5,120.5C 423.641,114.283 422.807,108.283 421,102.5C 420.76,104.852 419.927,106.852 418.5,108.5C 418.858,105.733 419.525,103.067 420.5,100.5 Z"/></g>
<g><path style="opacity:1" fill="#f7a36b" d="M 438.5,111.5 C 438.833,111.5 439.167,111.5 439.5,111.5C 439.859,113.371 440.859,114.871 442.5,116C 446.272,117.096 447.939,119.596 447.5,123.5C 444.355,123.507 441.689,122.507 439.5,120.5C 437.886,117.607 436.553,114.607 435.5,111.5C 436.5,111.5 437.5,111.5 438.5,111.5 Z"/></g>
<g><path style="opacity:1" fill="#1b577b" d="M 221.5,69.5 C 230.363,68.3823 238.363,70.3823 245.5,75.5C 246.584,76.6651 247.417,77.9984 248,79.5C 248.499,84.8229 248.666,90.1563 248.5,95.5C 246.93,105.624 246.264,115.958 246.5,126.5C 242.5,126.5 238.5,126.5 234.5,126.5C 234.781,121.003 233.447,120.336 230.5,124.5C 222.75,127.791 214.75,128.291 206.5,126C 199.543,118.145 198.71,109.645 204,100.5C 213.123,94.1932 223.289,91.8599 234.5,93.5C 235.31,82.0315 229.977,77.8648 218.5,81C 215.555,82.4843 212.555,83.8176 209.5,85C 207.934,85.765 206.601,85.5983 205.5,84.5C 204.857,80.5994 205.857,77.266 208.5,74.5C 212.736,72.3672 217.069,70.7005 221.5,69.5 Z"/></g>
<g><path style="opacity:1" fill="#f4f9fa" d="M 232.5,111.5 C 228.84,115.778 224.173,117.611 218.5,117C 214.441,114.533 213.441,111.033 215.5,106.5C 215.957,105.702 216.624,105.369 217.5,105.5C 222.341,103.848 227.341,103.182 232.5,103.5C 232.5,106.167 232.5,108.833 232.5,111.5 Z"/></g>
<g><path style="opacity:1" fill="#a1bfd2" d="M 232.5,111.5 C 232.5,108.833 232.5,106.167 232.5,103.5C 227.341,103.182 222.341,103.848 217.5,105.5C 218.347,104.034 219.68,103.2 221.5,103C 225.486,102.501 229.486,102.334 233.5,102.5C 233.81,105.713 233.477,108.713 232.5,111.5 Z"/></g>
<g><path style="opacity:1" fill="#6591ad" d="M 174.5,111.5 C 174.334,116.179 174.501,120.845 175,125.5C 178.394,126.456 181.894,126.789 185.5,126.5C 181.5,127.833 177.5,127.833 173.5,126.5C 173.179,121.305 173.513,116.305 174.5,111.5 Z"/></g>
<g><path style="opacity:1" fill="#8eabbd" d="M 513.5,119.5 C 513.833,119.5 514.167,119.5 514.5,119.5C 515.01,122.388 514.344,124.721 512.5,126.5C 513.369,124.283 513.702,121.95 513.5,119.5 Z"/></g>
<g><path style="opacity:1" fill="#aecad9" d="M 106.5,108.5 C 106.517,114.227 106.351,119.893 106,125.5C 108.243,126.137 110.576,126.47 113,126.5C 115.625,126.419 117.959,125.752 120,124.5C 120.174,119.316 120.674,114.316 121.5,109.5C 121.5,115.5 121.5,121.5 121.5,127.5C 115.907,127.807 110.407,127.473 105,126.5C 104.655,120.305 105.155,114.305 106.5,108.5 Z"/></g>
<g><path style="opacity:1" fill="#82b3cd" d="M 153.5,125.5 C 153.389,126.117 153.056,126.617 152.5,127C 148.311,127.812 144.311,127.645 140.5,126.5C 144.898,126.706 149.232,126.373 153.5,125.5 Z"/></g>
<g><path style="opacity:1" fill="#7da9c2" d="M 558.5,115.5 C 558.335,118.85 558.502,122.183 559,125.5C 562.057,126.451 565.223,126.784 568.5,126.5C 565.101,127.82 561.601,127.82 558,126.5C 557.19,122.642 557.357,118.976 558.5,115.5 Z"/></g>
<g><path style="opacity:1" fill="#c8dae4" d="M 248.5,95.5 C 248.497,106.208 247.831,116.875 246.5,127.5C 242.223,128.606 237.89,128.772 233.5,128C 232.167,127.333 232.167,126.667 233.5,126C 232.756,124.961 231.756,124.461 230.5,124.5C 233.447,120.336 234.781,121.003 234.5,126.5C 238.5,126.5 242.5,126.5 246.5,126.5C 246.264,115.958 246.93,105.624 248.5,95.5 Z"/></g>
<g><path style="opacity:1" fill="#deebef" d="M 268.5,125.5 C 275.527,128.115 282.527,128.115 289.5,125.5C 288.009,126.913 287.342,128.413 287.5,130C 282.177,130.499 276.844,130.666 271.5,130.5C 271.279,128.336 270.279,126.67 268.5,125.5 Z"/></g>
<g><path style="opacity:1" fill="#d8e7ef" d="M 335.5,127.5 C 330.536,128.607 325.536,129.273 320.5,129.5C 319.813,127.726 318.98,126.059 318,124.5C 316.378,132.493 315.711,140.493 316,148.5C 311.532,149.194 307.032,149.86 302.5,150.5C 301.476,149.148 300.476,147.815 299.5,146.5C 304.168,147.773 308.835,147.773 313.5,146.5C 314.642,138.186 315.642,129.852 316.5,121.5C 321.596,127.031 327.929,129.031 335.5,127.5 Z"/></g>
</svg>
