<?xml version="1.0" encoding="UTF-8"?>
<!DOCTYPE svg PUBLIC "-//W3C//DTD SVG 1.1//EN" "http://www.w3.org/Graphics/SVG/1.1/DTD/svg11.dtd">
<svg xmlns="http://www.w3.org/2000/svg" version="1.1" width="672px" height="267px" style="shape-rendering:geometricPrecision; text-rendering:geometricPrecision; image-rendering:optimizeQuality; fill-rule:evenodd; clip-rule:evenodd" xmlns:xlink="http://www.w3.org/1999/xlink">
<g><path style="opacity:1" fill="#fdfefe" d="M -0.5,-0.5 C 39.5,-0.5 79.5,-0.5 119.5,-0.5C 119.5,-0.166667 119.5,0.166667 119.5,0.5C 70.6208,7.51159 34.7875,32.8449 12,76.5C 6.10233,89.2798 2.26899,102.613 0.5,116.5C 0.166667,116.5 -0.166667,116.5 -0.5,116.5C -0.5,77.5 -0.5,38.5 -0.5,-0.5 Z"/></g>
<g><path style="opacity:1" fill="#fefefe" d="M 151.5,0.5 C 151.5,0.166667 151.5,-0.166667 151.5,-0.5C 324.833,-0.5 498.167,-0.5 671.5,-0.5C 671.5,88.5 671.5,177.5 671.5,266.5C 498.167,266.5 324.833,266.5 151.5,266.5C 204.877,258.96 242.711,230.627 265,181.5C 276.465,151.768 277.299,121.768 267.5,91.5C 267.624,90.8933 267.957,90.56 268.5,90.5C 272.081,91.9817 275.747,93.3151 279.5,94.5C 288.684,90.7517 289.684,85.585 282.5,79C 280.564,78.187 278.564,77.687 276.5,77.5C 278.151,72.9601 278.651,68.2935 278,63.5C 274.751,59.7461 270.918,58.9127 266.5,61C 264.164,64.172 262.497,67.672 261.5,71.5C 260.778,71.9175 260.278,72.5842 260,73.5C 236.25,30.8642 200.083,6.53086 151.5,0.5 Z"/></g>
<g><path style="opacity:1" fill="#7496c4" d="M 119.5,0.5 C 119.5,0.166667 119.5,-0.166667 119.5,-0.5C 130.167,-0.5 140.833,-0.5 151.5,-0.5C 151.5,-0.166667 151.5,0.166667 151.5,0.5C 149.901,0.232191 148.568,0.565525 147.5,1.5C 140.167,1.5 132.833,1.5 125.5,1.5C 123.735,0.538616 121.735,0.205283 119.5,0.5 Z"/></g>
<g><path style="opacity:1" fill="#617a98" d="M 147.5,1.5 C 148.568,0.565525 149.901,0.232191 151.5,0.5C 200.083,6.53086 236.25,30.8642 260,73.5C 260.278,72.5842 260.778,71.9175 261.5,71.5C 261.328,72.4916 261.662,73.1583 262.5,73.5C 262.144,75.1898 261.144,76.1898 259.5,76.5C 235.702,31.7664 198.369,6.76643 147.5,1.5 Z"/></g>
<g><path style="opacity:1" fill="#f8fbfc" d="M 239.5,82.5 C 244.14,81.9749 248.473,82.6416 252.5,84.5C 255.378,87.5966 256.545,91.2633 256,95.5C 249.833,100.333 244.333,105.833 239.5,112C 237.635,113.301 235.635,113.635 233.5,113C 232.32,111.104 230.82,109.604 229,108.5C 221.704,111.978 214.037,114.311 206,115.5C 199.966,114.711 194.466,112.544 189.5,109C 180.233,98.4017 171.733,87.2351 164,75.5C 151.036,58.5547 134.869,54.7213 115.5,64C 113.237,65.617 111.237,67.4503 109.5,69.5C 99.59,78.886 96.7567,90.2194 101,103.5C 102.357,106.898 104.19,109.898 106.5,112.5C 106.84,114.679 107.84,116.512 109.5,118C 112.167,119.333 114.833,120.667 117.5,122C 131.307,126.296 145.307,129.963 159.5,133C 188.995,143.692 199.162,164.192 190,194.5C 177.989,218.078 158.822,227.578 132.5,223C 124.871,220.522 118.204,216.522 112.5,211C 104.212,200.256 96.0451,189.423 88,178.5C 81.1776,174.198 74.6776,174.698 68.5,180C 57.6795,188.576 46.6795,196.91 35.5,205C 33.8588,206.129 32.8588,207.629 32.5,209.5C 33.975,214.593 33.1417,215.26 30,211.5C 29.6174,212.056 29.1174,212.389 28.5,212.5C 24.4394,207.103 20.7727,201.436 17.5,195.5C 17.2854,189.109 18.2854,188.942 20.5,195C 21.7494,195.74 22.7494,195.573 23.5,194.5C 38.0076,183.498 52.6742,172.665 67.5,162C 81.0885,155.968 92.5885,158.801 102,170.5C 108.245,178.657 114.245,186.99 120,195.5C 134.095,209.843 149.595,211.343 166.5,200C 175.31,190.897 178.476,180.063 176,167.5C 175.246,164.316 173.746,161.649 171.5,159.5C 166.754,153.619 160.754,149.452 153.5,147C 139.561,143.178 125.561,139.678 111.5,136.5C 97.1932,130.007 88.0265,119.007 84,103.5C 80.0375,76.373 90.5375,57.2064 115.5,46C 137.554,39.2785 156.72,44.1119 173,60.5C 179.579,69.3248 185.913,78.3248 192,87.5C 194.833,91.6667 198.333,95.1667 202.5,98C 205.833,98.6667 209.167,98.6667 212.5,98C 216.229,96.4629 219.895,94.9629 223.5,93.5C 222.987,90.5515 222.987,87.7181 223.5,85C 228.662,83.1953 233.996,82.362 239.5,82.5 Z"/></g>
<g><path style="opacity:1" fill="#eff8fa" d="M 125.5,1.5 C 132.833,1.5 140.167,1.5 147.5,1.5C 198.369,6.76643 235.702,31.7664 259.5,76.5C 260.11,77.391 260.443,78.391 260.5,79.5C 258.958,80.3007 257.292,80.634 255.5,80.5C 245.318,56.6839 228.985,38.1839 206.5,25C 165.412,1.66202 123.079,-0.671312 79.5,18C 37.7068,40.1305 13.5402,74.6305 7,121.5C 4.95151,147.788 10.4515,172.121 23.5,194.5C 22.7494,195.573 21.7494,195.74 20.5,195C 18.2854,188.942 17.2854,189.109 17.5,195.5C 8.17838,179.49 2.84504,162.157 1.5,143.5C 1.5,136.167 1.5,128.833 1.5,121.5C 9.74955,62.8645 42.0829,24.3645 98.5,6C 107.329,3.43827 116.329,1.93827 125.5,1.5 Z"/></g>
<g><path style="opacity:1" fill="#1056a4" d="M 260.5,79.5 C 262.017,79.4894 263.184,78.8228 264,77.5C 265.136,73.7568 266.47,70.0901 268,66.5C 271.189,63.5071 273.022,64.1737 273.5,68.5C 272.524,72.2315 271.691,75.8982 271,79.5C 274.401,81.1906 277.901,82.6906 281.5,84C 283.011,86.7821 282.178,88.6155 279,89.5C 274.51,88.2258 270.177,86.5591 266,84.5C 263.367,84.9232 261.201,86.0899 259.5,88C 259.808,89.4595 260.475,90.6261 261.5,91.5C 276.518,147.309 262.518,194.143 219.5,232C 207.284,241.776 193.617,248.943 178.5,253.5C 175.813,253.336 173.146,253.503 170.5,254C 166.731,256.515 162.731,257.015 158.5,255.5C 156.979,256.937 155.145,257.604 153,257.5C 149.924,256.306 146.757,255.639 143.5,255.5C 143.5,256.5 143.5,257.5 143.5,258.5C 132.833,258.5 122.167,258.5 111.5,258.5C 78.9178,252.052 52.5844,235.718 32.5,209.5C 32.8588,207.629 33.8588,206.129 35.5,205C 46.6795,196.91 57.6795,188.576 68.5,180C 74.6776,174.698 81.1776,174.198 88,178.5C 96.0451,189.423 104.212,200.256 112.5,211C 118.204,216.522 124.871,220.522 132.5,223C 158.822,227.578 177.989,218.078 190,194.5C 199.162,164.192 188.995,143.692 159.5,133C 145.307,129.963 131.307,126.296 117.5,122C 114.833,120.667 112.167,119.333 109.5,118C 107.84,116.512 106.84,114.679 106.5,112.5C 104.58,108.377 103.08,104.043 102,99.5C 101.124,92.6837 101.79,86.017 104,79.5C 105.421,76.3778 107.087,76.0444 109,78.5C 109.667,75.8333 110.333,75.8333 111,78.5C 110.601,75.5488 110.101,72.5488 109.5,69.5C 111.237,67.4503 113.237,65.617 115.5,64C 134.869,54.7213 151.036,58.5547 164,75.5C 171.733,87.2351 180.233,98.4017 189.5,109C 194.466,112.544 199.966,114.711 206,115.5C 214.037,114.311 221.704,111.978 229,108.5C 230.82,109.604 232.32,111.104 233.5,113C 235.635,113.635 237.635,113.301 239.5,112C 244.333,105.833 249.833,100.333 256,95.5C 256.545,91.2633 255.378,87.5966 252.5,84.5C 252.586,83.5041 252.252,82.6708 251.5,82C 247.311,81.1881 243.311,81.3547 239.5,82.5C 233.996,82.362 228.662,83.1953 223.5,85C 222.987,87.7181 222.987,90.5515 223.5,93.5C 219.895,94.9629 216.229,96.4629 212.5,98C 209.167,98.6667 205.833,98.6667 202.5,98C 198.333,95.1667 194.833,91.6667 192,87.5C 185.913,78.3248 179.579,69.3248 173,60.5C 156.72,44.1119 137.554,39.2785 115.5,46C 90.5375,57.2064 80.0375,76.373 84,103.5C 88.0265,119.007 97.1932,130.007 111.5,136.5C 111.5,138.5 111.5,140.5 111.5,142.5C 113.91,141.611 116.41,140.945 119,140.5C 125.199,141.505 131.365,142.672 137.5,144C 138.167,144.667 138.833,145.333 139.5,146C 151.73,147.338 162.396,151.838 171.5,159.5C 173.746,161.649 175.246,164.316 176,167.5C 178.476,180.063 175.31,190.897 166.5,200C 149.595,211.343 134.095,209.843 120,195.5C 114.245,186.99 108.245,178.657 102,170.5C 92.5885,158.801 81.0885,155.968 67.5,162C 52.6742,172.665 38.0076,183.498 23.5,194.5C 10.4515,172.121 4.95151,147.788 7,121.5C 13.5402,74.6305 37.7068,40.1305 79.5,18C 123.079,-0.671312 165.412,1.66202 206.5,25C 228.985,38.1839 245.318,56.6839 255.5,80.5C 257.292,80.634 258.958,80.3007 260.5,79.5 Z"/></g>
<g><path style="opacity:1" fill="#607996" d="M 119.5,0.5 C 121.735,0.205283 123.735,0.538616 125.5,1.5C 116.329,1.93827 107.329,3.43827 98.5,6C 42.0829,24.3645 9.74955,62.8645 1.5,121.5C 0.548855,120.081 0.215521,118.415 0.5,116.5C 2.26899,102.613 6.10233,89.2798 12,76.5C 34.7875,32.8449 70.6208,7.51159 119.5,0.5 Z"/></g>
<g><path style="opacity:1" fill="#060606" d="M 343.5,70.5 C 359.035,68.044 372.201,72.3773 383,83.5C 383.26,85.6175 384.26,87.2842 386,88.5C 386.977,90.74 387.477,93.0733 387.5,95.5C 381.642,96.6389 375.808,97.9722 370,99.5C 365.347,90.2561 357.847,86.4228 347.5,88C 340.219,91.2597 338.552,96.4264 342.5,103.5C 353.818,106.623 364.818,110.79 375.5,116C 385.632,125.367 388.132,136.534 383,149.5C 375.075,163.549 362.908,169.883 346.5,168.5C 326.124,168.765 313.79,159.098 309.5,139.5C 316.166,138.665 322.833,138.165 329.5,138C 332.133,147.242 338.3,151.742 348,151.5C 358.969,151.536 363.969,146.203 363,135.5C 362.5,135 362,134.5 361.5,134C 350.72,130.305 340.053,126.305 329.5,122C 318.677,111.526 316.511,99.359 323,85.5C 327.855,77.6687 334.689,72.6687 343.5,70.5 Z"/></g>
<g><path style="opacity:1" fill="#050505" d="M 488.5,70.5 C 495.5,70.5 502.5,70.5 509.5,70.5C 508.241,77.1266 507.241,83.7933 506.5,90.5C 499.5,90.5 492.5,90.5 485.5,90.5C 486.241,83.7933 487.241,77.1266 488.5,70.5 Z"/></g>
<g><path style="opacity:1" fill="#040404" d="M 529.5,72.5 C 546.548,72.0733 563.548,72.5733 580.5,74C 595.723,80.617 601.223,92.117 597,108.5C 593.054,121.78 584.221,129.28 570.5,131C 560.839,131.5 551.172,131.666 541.5,131.5C 539.725,143.149 538.059,154.816 536.5,166.5C 529.167,166.5 521.833,166.5 514.5,166.5C 520.016,135.251 525.016,103.918 529.5,72.5 Z"/></g>
<g><path style="opacity:1" fill="#44648a" d="M 268.5,90.5 C 267.791,89.596 266.791,89.2627 265.5,89.5C 264.15,88.3501 264.316,87.6834 266,87.5C 270.313,89.6599 274.813,91.3266 279.5,92.5C 285.483,90.7082 286.816,87.2082 283.5,82C 280.95,80.5584 278.284,79.3917 275.5,78.5C 275.167,77.6667 274.833,76.8333 274.5,76C 276.215,72.3251 276.715,68.4918 276,64.5C 272.667,60.5 269.333,60.5 266,64.5C 264.729,67.4844 263.562,70.4844 262.5,73.5C 261.662,73.1583 261.328,72.4916 261.5,71.5C 262.497,67.672 264.164,64.172 266.5,61C 270.918,58.9127 274.751,59.7461 278,63.5C 278.651,68.2935 278.151,72.9601 276.5,77.5C 278.564,77.687 280.564,78.187 282.5,79C 289.684,85.585 288.684,90.7517 279.5,94.5C 275.747,93.3151 272.081,91.9817 268.5,90.5 Z"/></g>
<g><path style="opacity:1" fill="#2b5e9d" d="M 109.5,69.5 C 110.101,72.5488 110.601,75.5488 111,78.5C 110.333,75.8333 109.667,75.8333 109,78.5C 107.087,76.0444 105.421,76.3778 104,79.5C 101.79,86.017 101.124,92.6837 102,99.5C 103.08,104.043 104.58,108.377 106.5,112.5C 104.19,109.898 102.357,106.898 101,103.5C 96.7567,90.2194 99.59,78.886 109.5,69.5 Z"/></g>
<g><path style="opacity:1" fill="#5f85ab" d="M 239.5,82.5 C 243.311,81.3547 247.311,81.1881 251.5,82C 252.252,82.6708 252.586,83.5041 252.5,84.5C 248.473,82.6416 244.14,81.9749 239.5,82.5 Z"/></g>
<g><path style="opacity:1" fill="#d7ebf4" d="M 265.5,89.5 C 265.5,90.5 265.5,91.5 265.5,92.5C 264.325,91.0262 263.325,89.3596 262.5,87.5C 261.571,88.6888 261.238,90.0222 261.5,91.5C 260.475,90.6261 259.808,89.4595 259.5,88C 261.201,86.0899 263.367,84.9232 266,84.5C 270.177,86.5591 274.51,88.2258 279,89.5C 282.178,88.6155 283.011,86.7821 281.5,84C 277.901,82.6906 274.401,81.1906 271,79.5C 271.691,75.8982 272.524,72.2315 273.5,68.5C 273.022,64.1737 271.189,63.5071 268,66.5C 266.47,70.0901 265.136,73.7568 264,77.5C 263.184,78.8228 262.017,79.4894 260.5,79.5C 260.443,78.391 260.11,77.391 259.5,76.5C 261.144,76.1898 262.144,75.1898 262.5,73.5C 263.562,70.4844 264.729,67.4844 266,64.5C 269.333,60.5 272.667,60.5 276,64.5C 276.715,68.4918 276.215,72.3251 274.5,76C 274.833,76.8333 275.167,77.6667 275.5,78.5C 278.284,79.3917 280.95,80.5584 283.5,82C 286.816,87.2082 285.483,90.7082 279.5,92.5C 274.813,91.3266 270.313,89.6599 266,87.5C 264.316,87.6834 264.15,88.3501 265.5,89.5 Z"/></g>
<g><path style="opacity:1" fill="#f9f9f9" d="M 548.5,89.5 C 554.842,89.3338 561.175,89.5005 567.5,90C 577.598,94.2064 579.764,101.04 574,110.5C 572.786,112.049 571.286,113.215 569.5,114C 561.571,115.363 553.571,115.863 545.5,115.5C 546.499,106.837 547.499,98.1705 548.5,89.5 Z"/></g>
<g><path style="opacity:1" fill="#060606" d="M 427.5,94.5 C 437.495,93.2023 446.829,95.0356 455.5,100C 461.716,105.813 464.716,112.979 464.5,121.5C 458.5,121.833 452.5,122.167 446.5,122.5C 446.366,113.198 441.7,109.031 432.5,110C 426.081,113.993 422.581,119.826 422,127.5C 421.333,133.5 421.333,139.5 422,145.5C 424.575,153.418 429.742,155.585 437.5,152C 441.506,149.149 443.84,145.315 444.5,140.5C 450.131,141.412 455.798,142.079 461.5,142.5C 453.393,166.384 437.393,173.884 413.5,165C 408.383,161.603 404.55,157.103 402,151.5C 395.265,130.304 400.432,112.804 417.5,99C 420.893,97.38 424.226,95.88 427.5,94.5 Z"/></g>
<g><path style="opacity:1" fill="#060606" d="M 483.5,96.5 C 490.5,96.5 497.5,96.5 504.5,96.5C 501.487,119.939 497.82,143.272 493.5,166.5C 486.5,166.5 479.5,166.5 472.5,166.5C 476.602,143.225 480.268,119.891 483.5,96.5 Z"/></g>
<g><path style="opacity:1" fill="#070707" d="M 604.5,96.5 C 611.5,96.5 618.5,96.5 625.5,96.5C 627.411,110.3 630.078,123.966 633.5,137.5C 639.686,124.285 645.686,110.952 651.5,97.5C 656.833,96.1667 662.167,96.1667 667.5,97.5C 654.475,125.751 640.975,153.751 627,181.5C 618.774,190.275 608.608,193.608 596.5,191.5C 596.5,186.167 596.5,180.833 596.5,175.5C 602.202,176.931 607.869,176.764 613.5,175C 616.625,172.592 618.625,169.425 619.5,165.5C 613.958,142.568 608.958,119.568 604.5,96.5 Z"/></g>
<g><path style="opacity:1" fill="#7496c2" d="M -0.5,116.5 C -0.166667,116.5 0.166667,116.5 0.5,116.5C 0.215521,118.415 0.548855,120.081 1.5,121.5C 1.5,128.833 1.5,136.167 1.5,143.5C 0.565525,144.568 0.232191,145.901 0.5,147.5C 0.166667,147.5 -0.166667,147.5 -0.5,147.5C -0.5,137.167 -0.5,126.833 -0.5,116.5 Z"/></g>
<g><path style="opacity:1" fill="#215897" d="M 111.5,136.5 C 125.561,139.678 139.561,143.178 153.5,147C 160.754,149.452 166.754,153.619 171.5,159.5C 162.396,151.838 151.73,147.338 139.5,146C 138.833,145.333 138.167,144.667 137.5,144C 131.365,142.672 125.199,141.505 119,140.5C 116.41,140.945 113.91,141.611 111.5,142.5C 111.5,140.5 111.5,138.5 111.5,136.5 Z"/></g>
<g><path style="opacity:1" fill="#fdfefe" d="M -0.5,147.5 C -0.166667,147.5 0.166667,147.5 0.5,147.5C 6.62564,192.109 28.959,225.943 67.5,249C 84.0544,257.573 101.388,263.407 119.5,266.5C 79.5,266.5 39.5,266.5 -0.5,266.5C -0.5,226.833 -0.5,187.167 -0.5,147.5 Z"/></g>
<g><path style="opacity:1" fill="#edf6f9" d="M 265.5,92.5 C 281.185,144.956 269.518,190.456 230.5,229C 196.181,258.345 156.514,269.678 111.5,263C 77.5041,256.345 49.8374,239.512 28.5,212.5C 29.1174,212.389 29.6174,212.056 30,211.5C 33.1417,215.26 33.975,214.593 32.5,209.5C 52.5844,235.718 78.9178,252.052 111.5,258.5C 131.825,261.555 152.158,260.722 172.5,256C 174.723,255.434 176.723,254.6 178.5,253.5C 193.617,248.943 207.284,241.776 219.5,232C 262.518,194.143 276.518,147.309 261.5,91.5C 261.238,90.0222 261.571,88.6888 262.5,87.5C 263.325,89.3596 264.325,91.0262 265.5,92.5 Z"/></g>
<g><path style="opacity:1" fill="#637d9a" d="M 265.5,89.5 C 266.791,89.2627 267.791,89.596 268.5,90.5C 267.957,90.56 267.624,90.8933 267.5,91.5C 277.299,121.768 276.465,151.768 265,181.5C 242.711,230.627 204.877,258.96 151.5,266.5C 140.833,266.5 130.167,266.5 119.5,266.5C 101.388,263.407 84.0544,257.573 67.5,249C 28.959,225.943 6.62564,192.109 0.5,147.5C 0.232191,145.901 0.565525,144.568 1.5,143.5C 2.84504,162.157 8.17838,179.49 17.5,195.5C 20.7727,201.436 24.4394,207.103 28.5,212.5C 49.8374,239.512 77.5041,256.345 111.5,263C 156.514,269.678 196.181,258.345 230.5,229C 269.518,190.456 281.185,144.956 265.5,92.5C 265.5,91.5 265.5,90.5 265.5,89.5 Z"/></g>
<g><path style="opacity:1" fill="#215897" d="M 178.5,253.5 C 176.723,254.6 174.723,255.434 172.5,256C 152.158,260.722 131.825,261.555 111.5,258.5C 122.167,258.5 132.833,258.5 143.5,258.5C 143.5,257.5 143.5,256.5 143.5,255.5C 146.757,255.639 149.924,256.306 153,257.5C 155.145,257.604 156.979,256.937 158.5,255.5C 162.731,257.015 166.731,256.515 170.5,254C 173.146,253.503 175.813,253.336 178.5,253.5 Z"/></g>
</svg>
