<?xml version="1.0" encoding="UTF-8"?>
<!DOCTYPE svg PUBLIC "-//W3C//DTD SVG 1.1//EN" "http://www.w3.org/Graphics/SVG/1.1/DTD/svg11.dtd">
<svg xmlns="http://www.w3.org/2000/svg" version="1.1" width="1024px" height="1024px" style="shape-rendering:geometricPrecision; text-rendering:geometricPrecision; image-rendering:optimizeQuality; fill-rule:evenodd; clip-rule:evenodd" xmlns:xlink="http://www.w3.org/1999/xlink">
<g><path style="opacity:0.059" fill="#070200" d="M 805.5,192.5 C 804.817,194.176 803.483,194.843 801.5,194.5C 802.183,192.824 803.517,192.157 805.5,192.5 Z"/></g>
<g><path style="opacity:1" fill="#e47014" d="M 807.5,192.5 C 810.5,192.5 813.5,192.5 816.5,192.5C 817.918,194.308 819.918,194.975 822.5,194.5C 822.5,195.833 823.167,196.5 824.5,196.5C 825.183,198.176 826.517,198.843 828.5,198.5C 828.5,199.833 829.167,200.5 830.5,200.5C 833.182,205.695 836.849,210.028 841.5,213.5C 841.5,214.833 841.5,216.167 841.5,217.5C 843.11,221.938 844.943,226.271 847,230.5C 849.497,234.515 852.664,237.848 856.5,240.5C 857.279,242.677 858.613,244.344 860.5,245.5C 860.157,247.483 860.824,248.817 862.5,249.5C 862.5,250.833 863.167,251.5 864.5,251.5C 864.157,253.483 864.824,254.817 866.5,255.5C 866.183,258.546 867.516,260.213 870.5,260.5C 870.38,262.734 870.713,264.901 871.5,267C 873.661,269.556 875.661,272.056 877.5,274.5C 878.279,276.677 879.613,278.344 881.5,279.5C 881.5,280.833 881.5,282.167 881.5,283.5C 882.097,284.139 882.93,284.472 884,284.5C 886.838,283.309 889.672,282.309 892.5,281.5C 892.5,280.833 892.5,280.167 892.5,279.5C 893.833,279.5 895.167,279.5 896.5,279.5C 903.269,278.562 909.603,276.895 915.5,274.5C 919.594,273.82 923.261,272.486 926.5,270.5C 927.167,270.5 927.833,270.5 928.5,270.5C 931.082,270.975 933.082,270.308 934.5,268.5C 936.167,268.5 937.833,268.5 939.5,268.5C 941.483,268.843 942.817,268.176 943.5,266.5C 945.5,266.5 947.5,266.5 949.5,266.5C 957.575,265.032 965.241,262.699 972.5,259.5C 978.601,259.021 984.268,257.688 989.5,255.5C 993.5,255.5 997.5,255.5 1001.5,255.5C 1001.83,255.5 1002.17,255.5 1002.5,255.5C 1006.9,258.218 1011.24,261.218 1015.5,264.5C 1017.46,270.724 1017.79,277.057 1016.5,283.5C 1014,286.334 1012.66,289.667 1012.5,293.5C 1012.5,294.167 1012.5,294.833 1012.5,295.5C 1008.98,297.025 1006.98,299.691 1006.5,303.5C 1005.51,303.328 1004.84,303.662 1004.5,304.5C 1002.54,305.46 1000.87,306.793 999.5,308.5C 997.39,309.95 996.057,311.95 995.5,314.5C 995.5,315.167 995.5,315.833 995.5,316.5C 994.167,316.5 993.5,317.167 993.5,318.5C 992.167,318.5 991.5,319.167 991.5,320.5C 989.368,320.554 988.035,321.554 987.5,323.5C 986.096,325.255 985.096,327.255 984.5,329.5C 983.167,329.5 982.5,330.167 982.5,331.5C 979.687,332.446 978.354,334.446 978.5,337.5C 977.833,337.5 977.167,337.5 976.5,337.5C 973.149,338.184 971.149,340.184 970.5,343.5C 968.793,344.873 967.46,346.539 966.5,348.5C 963.857,349.623 962.19,351.623 961.5,354.5C 961.5,355.167 961.5,355.833 961.5,356.5C 957.789,358.546 955.122,361.546 953.5,365.5C 952.167,365.5 951.5,366.167 951.5,367.5C 949.539,368.46 947.873,369.793 946.5,371.5C 942.982,373.784 940.315,376.784 938.5,380.5C 938.599,383.639 939.932,385.973 942.5,387.5C 942.819,390.806 944.153,393.473 946.5,395.5C 945.887,398.969 947.221,400.969 950.5,401.5C 950.5,401.833 950.5,402.167 950.5,402.5C 949.903,402.735 949.57,403.235 949.5,404C 950.465,405.975 951.799,407.475 953.5,408.5C 953.5,409.167 953.5,409.833 953.5,410.5C 953.5,411.833 954.167,412.5 955.5,412.5C 955.157,414.483 955.824,415.817 957.5,416.5C 957.5,417.833 957.5,419.167 957.5,420.5C 958.326,426.485 960.993,431.485 965.5,435.5C 966.222,436.551 967.222,437.218 968.5,437.5C 968.5,438.833 968.5,440.167 968.5,441.5C 969.486,444.493 970.486,447.493 971.5,450.5C 972.5,450.5 973.5,450.5 974.5,450.5C 974.5,451.833 975.167,452.5 976.5,452.5C 976.5,453.833 976.5,455.167 976.5,456.5C 982.931,466.957 984.931,478.29 982.5,490.5C 979.706,494.517 977.039,498.517 974.5,502.5C 973.167,502.5 972.5,503.167 972.5,504.5C 968.512,505.161 965.178,506.827 962.5,509.5C 958.988,508.945 955.988,509.612 953.5,511.5C 952.167,511.5 950.833,511.5 949.5,511.5C 948.306,510.223 946.64,509.556 944.5,509.5C 942.631,509.507 940.964,509.84 939.5,510.5C 939.167,510.5 938.833,510.5 938.5,510.5C 938.5,509.5 938.5,508.5 938.5,507.5C 928.161,504.634 917.828,501.634 907.5,498.5C 905.5,498.5 903.5,498.5 901.5,498.5C 900.833,498.5 900.167,498.5 899.5,498.5C 898.448,496.744 896.781,496.077 894.5,496.5C 893.082,494.692 891.082,494.025 888.5,494.5C 887.817,492.824 886.483,492.157 884.5,492.5C 880.678,490.165 876.344,488.832 871.5,488.5C 869.246,473.465 866.913,458.465 864.5,443.5C 867.206,443.575 869.873,443.908 872.5,444.5C 874.167,444.5 875.833,444.5 877.5,444.5C 878.918,446.308 880.918,446.975 883.5,446.5C 884.183,448.176 885.517,448.843 887.5,448.5C 888.833,448.5 890.167,448.5 891.5,448.5C 891.833,448.5 892.167,448.5 892.5,448.5C 893.918,450.308 895.918,450.975 898.5,450.5C 899.167,450.5 899.833,450.5 900.5,450.5C 901.335,451.943 902.668,452.943 904.5,453.5C 907.086,454.48 909.753,454.813 912.5,454.5C 912.833,454.5 913.167,454.5 913.5,454.5C 914.918,456.308 916.918,456.975 919.5,456.5C 922.507,459.165 926.173,460.498 930.5,460.5C 930.843,458.517 930.176,457.183 928.5,456.5C 928.401,453.361 927.068,451.027 924.5,449.5C 924.843,447.517 924.176,446.183 922.5,445.5C 922.768,443.901 922.434,442.568 921.5,441.5C 920.768,437.028 918.768,433.362 915.5,430.5C 915.646,427.446 914.313,425.446 911.5,424.5C 911.843,422.517 911.176,421.183 909.5,420.5C 909.116,418.071 908.449,415.737 907.5,413.5C 905.734,410.38 904.401,407.047 903.5,403.5C 901.709,400.868 899.709,398.535 897.5,396.5C 897.196,392.863 895.529,390.197 892.5,388.5C 892.843,386.517 892.176,385.183 890.5,384.5C 890.5,382.5 890.5,380.5 890.5,378.5C 891.833,378.5 892.5,377.833 892.5,376.5C 895.787,374.381 898.621,371.715 901,368.5C 901.483,367.552 901.649,366.552 901.5,365.5C 902.833,365.5 903.5,364.833 903.5,363.5C 907.5,360.833 910.833,357.5 913.5,353.5C 913.5,352.833 913.5,352.167 913.5,351.5C 915.674,351.25 917.341,350.25 918.5,348.5C 919.878,347.455 920.878,346.122 921.5,344.5C 922.434,343.432 922.768,342.099 922.5,340.5C 923.833,340.5 924.5,339.833 924.5,338.5C 926.798,337.203 928.798,335.537 930.5,333.5C 933.313,332.554 934.646,330.554 934.5,327.5C 935.338,327.158 935.672,326.492 935.5,325.5C 936.833,325.5 937.5,324.833 937.5,323.5C 942.984,319.277 947.651,314.277 951.5,308.5C 953.078,307.934 954.412,306.934 955.5,305.5C 952.691,304.2 950.024,304.2 947.5,305.5C 942.219,306.895 937.219,308.561 932.5,310.5C 929.918,310.025 927.918,310.692 926.5,312.5C 923.612,311.99 921.279,312.656 919.5,314.5C 917.5,314.5 915.5,314.5 913.5,314.5C 910.468,314.505 907.468,314.838 904.5,315.5C 896.812,318.155 889.146,320.489 881.5,322.5C 876.43,323.26 871.763,324.927 867.5,327.5C 864.5,327.5 861.5,327.5 858.5,327.5C 858.01,323.431 856.01,320.431 852.5,318.5C 852.843,316.517 852.176,315.183 850.5,314.5C 850.386,312.282 849.72,310.282 848.5,308.5C 846.58,304.457 844.247,300.791 841.5,297.5C 841.5,296.167 840.833,295.5 839.5,295.5C 838.612,292.286 837.279,289.286 835.5,286.5C 833.458,281.441 830.791,276.774 827.5,272.5C 825.694,270.911 824.361,268.911 823.5,266.5C 822.583,265.873 821.583,265.539 820.5,265.5C 820.843,263.517 820.176,262.183 818.5,261.5C 818.843,259.517 818.176,258.183 816.5,257.5C 816.5,256.833 816.5,256.167 816.5,255.5C 815.817,253.824 814.483,253.157 812.5,253.5C 809.516,266.75 807.183,280.084 805.5,293.5C 805.5,296.833 805.5,300.167 805.5,303.5C 805.5,303.833 805.5,304.167 805.5,304.5C 803.631,306.635 802.964,309.302 803.5,312.5C 802.223,313.694 801.556,315.36 801.5,317.5C 801.507,319.369 801.84,321.036 802.5,322.5C 802.5,323.167 802.5,323.833 802.5,324.5C 802.5,324.833 802.5,325.167 802.5,325.5C 801.833,325.5 801.167,325.5 800.5,325.5C 799.299,329.817 798.299,334.317 797.5,339C 797.506,341.033 797.839,342.866 798.5,344.5C 798.5,344.833 798.5,345.167 798.5,345.5C 798.5,345.833 798.5,346.167 798.5,346.5C 797.167,346.5 796.5,347.167 796.5,348.5C 793.918,348.025 791.918,348.692 790.5,350.5C 788.5,350.5 786.5,350.5 784.5,350.5C 771.248,353.826 758.582,358.16 746.5,363.5C 742.591,363.124 739.591,364.457 737.5,367.5C 734.833,367.5 732.167,367.5 729.5,367.5C 720.949,369.413 712.615,372.079 704.5,375.5C 702.908,377.225 703.242,378.225 705.5,378.5C 707.737,379.449 710.071,380.116 712.5,380.5C 713.918,382.308 715.918,382.975 718.5,382.5C 720.292,384.569 722.626,385.903 725.5,386.5C 732.004,390.241 739.004,393.241 746.5,395.5C 747.833,395.5 749.167,395.5 750.5,395.5C 751.167,395.5 751.833,395.5 752.5,395.5C 753.183,397.176 754.517,397.843 756.5,397.5C 757.183,399.176 758.517,399.843 760.5,399.5C 760.833,399.5 761.167,399.5 761.5,399.5C 763.527,401.847 766.194,403.181 769.5,403.5C 770.833,404.833 772.167,406.167 773.5,407.5C 771.5,408.167 770.167,409.5 769.5,411.5C 763.234,412.469 758.234,415.469 754.5,420.5C 753.167,420.5 752.5,421.167 752.5,422.5C 747.751,423.709 743.418,425.709 739.5,428.5C 737.06,429.238 735.06,430.571 733.5,432.5C 730.632,433.673 727.965,435.34 725.5,437.5C 720.599,435.456 715.599,433.79 710.5,432.5C 710.5,431.833 710.5,431.167 710.5,430.5C 707.506,428.522 704.173,427.189 700.5,426.5C 696.447,424.31 692.114,422.976 687.5,422.5C 686.817,420.824 685.483,420.157 683.5,420.5C 681.707,418.101 679.374,416.435 676.5,415.5C 673.46,413.654 670.127,412.321 666.5,411.5C 663.813,409.489 660.813,408.155 657.5,407.5C 656.833,405.5 655.5,404.167 653.5,403.5C 651.438,401.099 649.771,398.433 648.5,395.5C 642.651,386.332 640.984,376.332 643.5,365.5C 644.167,365.5 644.833,365.5 645.5,365.5C 650.768,360.849 656.101,356.183 661.5,351.5C 664.527,349.719 667.527,348.052 670.5,346.5C 673.082,346.975 675.082,346.308 676.5,344.5C 677.833,344.5 679.167,344.5 680.5,344.5C 682.483,344.843 683.817,344.176 684.5,342.5C 686.179,342.715 687.179,342.048 687.5,340.5C 689.5,340.5 691.5,340.5 693.5,340.5C 704.776,338.187 715.443,334.52 725.5,329.5C 727.483,329.843 728.817,329.176 729.5,327.5C 732.082,327.975 734.082,327.308 735.5,325.5C 735.833,325.5 736.167,325.5 736.5,325.5C 739.082,325.975 741.082,325.308 742.5,323.5C 745.082,323.975 747.082,323.308 748.5,321.5C 751.664,321.442 754.664,320.776 757.5,319.5C 760.554,319.646 762.554,318.313 763.5,315.5C 763.5,313.167 763.5,310.833 763.5,308.5C 765.176,307.817 765.843,306.483 765.5,304.5C 765.5,302.167 765.5,299.833 765.5,297.5C 767.176,296.817 767.843,295.483 767.5,293.5C 767.5,291.5 767.5,289.5 767.5,287.5C 769.271,282.877 770.604,277.877 771.5,272.5C 771.489,270.955 771.156,269.622 770.5,268.5C 770.5,267.833 770.5,267.167 770.5,266.5C 771.5,266.5 772.5,266.5 773.5,266.5C 773.413,261.463 773.746,256.463 774.5,251.5C 774.5,249.167 774.5,246.833 774.5,244.5C 775.496,244.586 776.329,244.252 777,243.5C 778.681,235.378 780.515,227.378 782.5,219.5C 782.5,218.167 782.5,216.833 782.5,215.5C 784.176,214.817 784.843,213.483 784.5,211.5C 787.108,208.892 789.775,206.225 792.5,203.5C 793.127,202.583 793.461,201.583 793.5,200.5C 795.5,199.833 796.833,198.5 797.5,196.5C 798.833,196.5 800.167,196.5 801.5,196.5C 804.969,197.113 806.969,195.779 807.5,192.5 Z"/></g>
<g><path style="opacity:0.067" fill="#130a04" d="M 816.5,192.5 C 819.082,192.025 821.082,192.692 822.5,194.5C 819.918,194.975 817.918,194.308 816.5,192.5 Z"/></g>
<g><path style="opacity:0.355" fill="#1f0f02" d="M 801.5,194.5 C 801.5,195.167 801.5,195.833 801.5,196.5C 800.167,196.5 798.833,196.5 797.5,196.5C 798.183,194.824 799.517,194.157 801.5,194.5 Z"/></g>
<g><path style="opacity:0.898" fill="#a55415" d="M 805.5,192.5 C 806.167,192.5 806.833,192.5 807.5,192.5C 806.969,195.779 804.969,197.113 801.5,196.5C 801.5,195.833 801.5,195.167 801.5,194.5C 803.483,194.843 804.817,194.176 805.5,192.5 Z"/></g>
<g><path style="opacity:0.212" fill="#0c0701" d="M 822.5,194.5 C 823.833,194.5 824.5,195.167 824.5,196.5C 824.5,195.167 823.833,194.5 822.5,194.5 Z"/></g>
<g><path style="opacity:0.218" fill="#150a02" d="M 797.5,196.5 C 796.833,198.5 795.5,199.833 793.5,200.5C 793.5,199.167 793.5,197.833 793.5,196.5C 794.833,196.5 796.167,196.5 797.5,196.5 Z"/></g>
<g><path style="opacity:0.12" fill="#221304" d="M 824.5,196.5 C 826.483,196.157 827.817,196.824 828.5,198.5C 826.517,198.843 825.183,198.176 824.5,196.5 Z"/></g>
<g><path style="opacity:0.21" fill="#0b0602" d="M 828.5,198.5 C 829.833,198.5 830.5,199.167 830.5,200.5C 830.5,199.167 829.833,198.5 828.5,198.5 Z"/></g>
<g><path style="opacity:0.406" fill="#391d08" d="M 793.5,200.5 C 793.461,201.583 793.127,202.583 792.5,203.5C 789.775,206.225 787.108,208.892 784.5,211.5C 784.543,205.29 787.543,201.624 793.5,200.5 Z"/></g>
<g><path style="opacity:0.616" fill="#3c1f09" d="M 830.5,200.5 C 832.492,200.328 834.158,200.995 835.5,202.5C 838.408,205.723 840.408,209.39 841.5,213.5C 836.849,210.028 833.182,205.695 830.5,200.5 Z"/></g>
<g><path style="opacity:0.635" fill="#3e210a" d="M 784.5,211.5 C 784.843,213.483 784.176,214.817 782.5,215.5C 782.157,213.517 782.824,212.183 784.5,211.5 Z"/></g>
<g><path style="opacity:0.42" fill="#1d0d03" d="M 841.5,213.5 C 843.176,214.183 843.843,215.517 843.5,217.5C 842.833,217.5 842.167,217.5 841.5,217.5C 841.5,216.167 841.5,214.833 841.5,213.5 Z"/></g>
<g><path style="opacity:0.412" fill="#221103" d="M 782.5,215.5 C 782.5,216.833 782.5,218.167 782.5,219.5C 781.833,219.5 781.167,219.5 780.5,219.5C 780.157,217.517 780.824,216.183 782.5,215.5 Z"/></g>
<g><path style="opacity:0.082" fill="#150a02" d="M 780.5,219.5 C 780.843,221.483 780.176,222.817 778.5,223.5C 778.157,221.517 778.824,220.183 780.5,219.5 Z"/></g>
<g><path style="opacity:0.571" fill="#2f1a07" d="M 843.5,217.5 C 847.01,219.431 849.01,222.431 849.5,226.5C 845.99,224.569 843.99,221.569 843.5,217.5 Z"/></g>
<g><path style="opacity:0.063" fill="#060300" d="M 778.5,224.5 C 778.975,227.082 778.308,229.082 776.5,230.5C 776.025,227.918 776.692,225.918 778.5,224.5 Z"/></g>
<g><path style="opacity:0.997" fill="#bf5e11" d="M 841.5,217.5 C 842.167,217.5 842.833,217.5 843.5,217.5C 843.99,221.569 845.99,224.569 849.5,226.5C 849.157,228.483 849.824,229.817 851.5,230.5C 851.5,231.833 852.167,232.5 853.5,232.5C 853.157,234.483 853.824,235.817 855.5,236.5C 855.433,237.959 855.766,239.292 856.5,240.5C 852.664,237.848 849.497,234.515 847,230.5C 844.943,226.271 843.11,221.938 841.5,217.5 Z"/></g>
<g><path style="opacity:0.457" fill="#351b06" d="M 849.5,226.5 C 851.176,227.183 851.843,228.517 851.5,230.5C 849.824,229.817 849.157,228.483 849.5,226.5 Z"/></g>
<g><path style="opacity:0.167" fill="#0e0802" d="M 851.5,230.5 C 852.833,230.5 853.5,231.167 853.5,232.5C 853.5,231.167 852.833,230.5 851.5,230.5 Z"/></g>
<g><path style="opacity:0.057" fill="#190d03" d="M 776.5,232.5 C 777.069,236.329 776.402,239.663 774.5,242.5C 773.931,238.671 774.598,235.337 776.5,232.5 Z"/></g>
<g><path style="opacity:0.282" fill="#201003" d="M 853.5,232.5 C 855.176,233.183 855.843,234.517 855.5,236.5C 853.824,235.817 853.157,234.483 853.5,232.5 Z"/></g>
<g><path style="opacity:0.984" fill="#b15710" d="M 780.5,219.5 C 781.167,219.5 781.833,219.5 782.5,219.5C 780.515,227.378 778.681,235.378 777,243.5C 776.329,244.252 775.496,244.586 774.5,244.5C 774.5,244.167 774.5,243.833 774.5,243.5C 774.5,243.167 774.5,242.833 774.5,242.5C 776.402,239.663 777.069,236.329 776.5,232.5C 776.5,231.833 776.5,231.167 776.5,230.5C 778.308,229.082 778.975,227.082 778.5,224.5C 778.5,224.167 778.5,223.833 778.5,223.5C 780.176,222.817 780.843,221.483 780.5,219.5 Z"/></g>
<g><path style="opacity:0.161" fill="#1f1103" d="M 855.5,236.5 C 857.433,237.642 858.933,239.308 860,241.5C 860.49,242.793 860.657,244.127 860.5,245.5C 858.613,244.344 857.279,242.677 856.5,240.5C 855.766,239.292 855.433,237.959 855.5,236.5 Z"/></g>
<g><path style="opacity:0.19" fill="#0b0500" d="M 774.5,243.5 C 774.5,243.833 774.5,244.167 774.5,244.5C 774.5,246.833 774.5,249.167 774.5,251.5C 773.833,251.5 773.167,251.5 772.5,251.5C 771.964,248.302 772.631,245.635 774.5,243.5 Z"/></g>
<g><path style="opacity:0.58" fill="#351c06" d="M 860.5,245.5 C 862.176,246.183 862.843,247.517 862.5,249.5C 860.824,248.817 860.157,247.483 860.5,245.5 Z"/></g>
<g><path style="opacity:0.141" fill="#0c0601" d="M 862.5,249.5 C 863.833,249.5 864.5,250.167 864.5,251.5C 864.5,250.167 863.833,249.5 862.5,249.5 Z"/></g>
<g><path style="opacity:0.056" fill="#0f0601" d="M 772.5,253.5 C 773.036,256.698 772.369,259.365 770.5,261.5C 769.964,258.302 770.631,255.635 772.5,253.5 Z"/></g>
<g><path style="opacity:0.122" fill="#040200" d="M 1001.5,255.5 C 997.5,255.5 993.5,255.5 989.5,255.5C 988.833,255.5 988.167,255.5 987.5,255.5C 989.397,254.195 991.731,253.529 994.5,253.5C 997.269,253.529 999.603,254.195 1001.5,255.5 Z"/></g>
<g><path style="opacity:0.469" fill="#2a1706" d="M 864.5,251.5 C 866.176,252.183 866.843,253.517 866.5,255.5C 864.824,254.817 864.157,253.483 864.5,251.5 Z"/></g>
<g><path style="opacity:0.41" fill="#80400d" d="M 772.5,251.5 C 773.167,251.5 773.833,251.5 774.5,251.5C 773.746,256.463 773.413,261.463 773.5,266.5C 772.5,266.5 771.5,266.5 770.5,266.5C 770.5,265.833 770.5,265.167 770.5,264.5C 770.5,263.5 770.5,262.5 770.5,261.5C 772.369,259.365 773.036,256.698 772.5,253.5C 772.5,252.833 772.5,252.167 772.5,251.5 Z"/></g>
<g><path style="opacity:0.054" fill="#0d0501" d="M 975.5,256.5 C 974.448,258.256 972.781,258.923 970.5,258.5C 971.552,256.744 973.219,256.077 975.5,256.5 Z"/></g>
<g><path style="opacity:0.169" fill="#3d2009" d="M 1002.5,255.5 C 1010.67,255.236 1016,258.903 1018.5,266.5C 1017.22,266.218 1016.22,265.551 1015.5,264.5C 1011.24,261.218 1006.9,258.218 1002.5,255.5 Z"/></g>
<g><path style="opacity:0.112" fill="#070401" d="M 816.5,255.5 C 816.5,256.167 816.5,256.833 816.5,257.5C 815.778,258.551 814.778,259.218 813.5,259.5C 813.5,258.167 813.5,256.833 813.5,255.5C 814.5,255.5 815.5,255.5 816.5,255.5 Z"/></g>
<g><path style="opacity:0.741" fill="#60300b" d="M 987.5,255.5 C 988.167,255.5 988.833,255.5 989.5,255.5C 984.268,257.688 978.601,259.021 972.5,259.5C 971.292,260.234 969.959,260.567 968.5,260.5C 968.5,259.833 968.5,259.167 968.5,258.5C 969.167,258.5 969.833,258.5 970.5,258.5C 972.781,258.923 974.448,258.256 975.5,256.5C 979.434,255.64 983.434,255.307 987.5,255.5 Z"/></g>
<g><path style="opacity:0.424" fill="#3b1f09" d="M 866.5,255.5 C 868.929,256.265 870.262,257.931 870.5,260.5C 867.516,260.213 866.183,258.546 866.5,255.5 Z"/></g>
<g><path style="opacity:0.157" fill="#070300" d="M 968.5,258.5 C 968.5,259.167 968.5,259.833 968.5,260.5C 966.5,260.5 964.5,260.5 962.5,260.5C 964.102,258.926 966.102,258.259 968.5,258.5 Z"/></g>
<g><path style="opacity:0.102" fill="#241406" d="M 816.5,257.5 C 818.176,258.183 818.843,259.517 818.5,261.5C 816.824,260.817 816.157,259.483 816.5,257.5 Z"/></g>
<g><path style="opacity:0.139" fill="#180c02" d="M 962.5,260.5 C 961.082,262.308 959.082,262.975 956.5,262.5C 957.918,260.692 959.918,260.025 962.5,260.5 Z"/></g>
<g><path style="opacity:0.052" fill="#1b0e02" d="M 955.5,262.5 C 953.5,263.833 951.5,265.167 949.5,266.5C 947.5,266.5 945.5,266.5 943.5,266.5C 942.833,266.5 942.167,266.5 941.5,266.5C 943.732,264.805 946.399,263.638 949.5,263C 951.473,262.505 953.473,262.338 955.5,262.5 Z"/></g>
<g><path style="opacity:0.706" fill="#9b4d0e" d="M 972.5,259.5 C 965.241,262.699 957.575,265.032 949.5,266.5C 951.5,265.167 953.5,263.833 955.5,262.5C 955.833,262.5 956.167,262.5 956.5,262.5C 959.082,262.975 961.082,262.308 962.5,260.5C 964.5,260.5 966.5,260.5 968.5,260.5C 969.959,260.567 971.292,260.234 972.5,259.5 Z"/></g>
<g><path style="opacity:0.025" fill="#100601" d="M 818.5,261.5 C 820.176,262.183 820.843,263.517 820.5,265.5C 818.824,264.817 818.157,263.483 818.5,261.5 Z"/></g>
<g><path style="opacity:0.247" fill="#0a0401" d="M 939.5,266.5 C 939.5,267.167 939.5,267.833 939.5,268.5C 937.833,268.5 936.167,268.5 934.5,268.5C 935.552,266.744 937.219,266.077 939.5,266.5 Z"/></g>
<g><path style="opacity:0.655" fill="#69340b" d="M 939.5,266.5 C 940.167,266.5 940.833,266.5 941.5,266.5C 942.167,266.5 942.833,266.5 943.5,266.5C 942.817,268.176 941.483,268.843 939.5,268.5C 939.5,267.833 939.5,267.167 939.5,266.5 Z"/></g>
<g><path style="opacity:0.678" fill="#3c200a" d="M 820.5,265.5 C 821.583,265.539 822.583,265.873 823.5,266.5C 824.361,268.911 825.694,270.911 827.5,272.5C 827.5,273.833 827.5,275.167 827.5,276.5C 825.743,275.916 824.41,274.749 823.5,273C 822.2,270.563 821.2,268.063 820.5,265.5 Z"/></g>
<g><path style="opacity:0.322" fill="#8b440d" d="M 1015.5,264.5 C 1016.22,265.551 1017.22,266.218 1018.5,266.5C 1018.03,269.082 1018.69,271.082 1020.5,272.5C 1020.5,274.5 1020.5,276.5 1020.5,278.5C 1018.69,279.918 1018.03,281.918 1018.5,284.5C 1018.5,285.167 1018.5,285.833 1018.5,286.5C 1015.93,288.027 1014.6,290.361 1014.5,293.5C 1013.83,293.5 1013.17,293.5 1012.5,293.5C 1012.66,289.667 1014,286.334 1016.5,283.5C 1017.79,277.057 1017.46,270.724 1015.5,264.5 Z"/></g>
<g><path style="opacity:0.104" fill="#080300" d="M 770.5,264.5 C 770.5,265.167 770.5,265.833 770.5,266.5C 770.5,267.167 770.5,267.833 770.5,268.5C 770.843,270.483 770.176,271.817 768.5,272.5C 768.111,269.447 768.777,266.78 770.5,264.5 Z"/></g>
<g><path style="opacity:0.043" fill="#170b02" d="M 813.5,263.5 C 813.665,266.85 813.498,270.183 813,273.5C 812.257,276.192 811.09,278.525 809.5,280.5C 809.753,274.349 811.086,268.682 813.5,263.5 Z"/></g>
<g><path style="opacity:0.3" fill="#1f1103" d="M 934.5,268.5 C 933.082,270.308 931.082,270.975 928.5,270.5C 929.918,268.692 931.918,268.025 934.5,268.5 Z"/></g>
<g><path style="opacity:0.161" fill="#150901" d="M 1018.5,266.5 C 1020.31,267.918 1020.97,269.918 1020.5,272.5C 1018.69,271.082 1018.03,269.082 1018.5,266.5 Z"/></g>
<g><path style="opacity:0.071" fill="#180c02" d="M 926.5,270.5 C 923.261,272.486 919.594,273.82 915.5,274.5C 915.158,273.662 914.492,273.328 913.5,273.5C 915.498,272.852 917.498,272.019 919.5,271C 921.81,270.503 924.143,270.337 926.5,270.5 Z"/></g>
<g><path style="opacity:0.647" fill="#3f210a" d="M 870.5,260.5 C 874.092,264.007 876.425,268.341 877.5,273.5C 877.5,273.833 877.5,274.167 877.5,274.5C 875.661,272.056 873.661,269.556 871.5,267C 870.713,264.901 870.38,262.734 870.5,260.5 Z"/></g>
<g><path style="opacity:0.192" fill="#160901" d="M 911.5,273.5 C 910.082,275.308 908.082,275.975 905.5,275.5C 907.214,274.262 909.214,273.595 911.5,273.5 Z"/></g>
<g><path style="opacity:0.022" fill="#0c0501" d="M 877.5,273.5 C 880.313,274.446 881.646,276.446 881.5,279.5C 879.613,278.344 878.279,276.677 877.5,274.5C 877.5,274.167 877.5,273.833 877.5,273.5 Z"/></g>
<g><path style="opacity:0.055" fill="#090301" d="M 903.5,275.5 C 902.817,277.176 901.483,277.843 899.5,277.5C 900.183,275.824 901.517,275.157 903.5,275.5 Z"/></g>
<g><path style="opacity:0.694" fill="#69330b" d="M 911.5,273.5 C 912.167,273.5 912.833,273.5 913.5,273.5C 914.492,273.328 915.158,273.662 915.5,274.5C 909.603,276.895 903.269,278.562 896.5,279.5C 896.5,278.833 896.5,278.167 896.5,277.5C 897.5,277.5 898.5,277.5 899.5,277.5C 901.483,277.843 902.817,277.176 903.5,275.5C 904.167,275.5 904.833,275.5 905.5,275.5C 908.082,275.975 910.082,275.308 911.5,273.5 Z"/></g>
<g><path style="opacity:0.216" fill="#542a0b" d="M 770.5,268.5 C 771.156,269.622 771.489,270.955 771.5,272.5C 770.604,277.877 769.271,282.877 767.5,287.5C 767.337,282.453 767.671,277.453 768.5,272.5C 770.176,271.817 770.843,270.483 770.5,268.5 Z"/></g>
<g><path style="opacity:0.057" fill="#030100" d="M 896.5,277.5 C 896.5,278.167 896.5,278.833 896.5,279.5C 895.167,279.5 893.833,279.5 892.5,279.5C 891.833,279.5 891.167,279.5 890.5,279.5C 892.102,277.926 894.102,277.259 896.5,277.5 Z"/></g>
<g><path style="opacity:0.067" fill="#1a0d02" d="M 827.5,276.5 C 829.176,277.183 829.843,278.517 829.5,280.5C 827.824,279.817 827.157,278.483 827.5,276.5 Z"/></g>
<g><path style="opacity:0.875" fill="#a04f0e" d="M 827.5,272.5 C 830.791,276.774 833.458,281.441 835.5,286.5C 834.167,285.833 832.833,285.167 831.5,284.5C 831.843,282.517 831.176,281.183 829.5,280.5C 829.843,278.517 829.176,277.183 827.5,276.5C 827.5,275.167 827.5,273.833 827.5,272.5 Z"/></g>
<g><path style="opacity:0.393" fill="#3b1f09" d="M 881.5,279.5 C 882.75,279.577 883.583,280.244 884,281.5C 885.754,279.75 887.921,279.083 890.5,279.5C 891.167,279.5 891.833,279.5 892.5,279.5C 892.5,280.167 892.5,280.833 892.5,281.5C 888.715,281.631 885.048,282.298 881.5,283.5C 881.5,282.167 881.5,280.833 881.5,279.5 Z"/></g>
<g><path style="opacity:0.612" fill="#a3500e" d="M 892.5,281.5 C 889.672,282.309 886.838,283.309 884,284.5C 882.93,284.472 882.097,284.139 881.5,283.5C 885.048,282.298 888.715,281.631 892.5,281.5 Z"/></g>
<g><path style="opacity:0.161" fill="#170b02" d="M 1020.5,278.5 C 1020.97,281.082 1020.31,283.082 1018.5,284.5C 1018.03,281.918 1018.69,279.918 1020.5,278.5 Z"/></g>
<g><path style="opacity:0.02" fill="#0a0401" d="M 829.5,280.5 C 831.176,281.183 831.843,282.517 831.5,284.5C 829.824,283.817 829.157,282.483 829.5,280.5 Z"/></g>
<g><path style="opacity:0.912" fill="#ba5c11" d="M 816.5,255.5 C 815.5,255.5 814.5,255.5 813.5,255.5C 813.5,256.833 813.5,258.167 813.5,259.5C 813.5,260.833 813.5,262.167 813.5,263.5C 811.086,268.682 809.753,274.349 809.5,280.5C 809.5,281.833 809.5,283.167 809.5,284.5C 808.167,287.5 806.833,290.5 805.5,293.5C 807.183,280.084 809.516,266.75 812.5,253.5C 814.483,253.157 815.817,253.824 816.5,255.5 Z"/></g>
<g><path style="opacity:0.073" fill="#060200" d="M 767.5,287.5 C 767.5,289.5 767.5,291.5 767.5,293.5C 766.833,293.5 766.167,293.5 765.5,293.5C 765.025,290.918 765.692,288.918 767.5,287.5 Z"/></g>
<g><path style="opacity:0.192" fill="#201204" d="M 831.5,284.5 C 832.833,285.167 834.167,285.833 835.5,286.5C 837.279,289.286 838.612,292.286 839.5,295.5C 835.664,292.75 832.998,289.084 831.5,284.5 Z"/></g>
<g><path style="opacity:0.058" fill="#170c02" d="M 809.5,284.5 C 809.823,288.226 809.489,291.893 808.5,295.5C 808.08,298.616 807.08,301.283 805.5,303.5C 805.5,300.167 805.5,296.833 805.5,293.5C 806.833,290.5 808.167,287.5 809.5,284.5 Z"/></g>
<g><path style="opacity:0.267" fill="#170b02" d="M 1018.5,286.5 C 1018.65,287.552 1018.48,288.552 1018,289.5C 1017.26,291.319 1016.09,292.652 1014.5,293.5C 1014.6,290.361 1015.93,288.027 1018.5,286.5 Z"/></g>
<g><path style="opacity:0.157" fill="#080500" d="M 1012.5,293.5 C 1013.17,293.5 1013.83,293.5 1014.5,293.5C 1014.5,294.833 1013.83,295.5 1012.5,295.5C 1012.5,294.833 1012.5,294.167 1012.5,293.5 Z"/></g>
<g><path style="opacity:0.718" fill="#63310a" d="M 765.5,293.5 C 766.167,293.5 766.833,293.5 767.5,293.5C 767.843,295.483 767.176,296.817 765.5,297.5C 765.5,297.167 765.5,296.833 765.5,296.5C 765.5,295.5 765.5,294.5 765.5,293.5 Z"/></g>
<g><path style="opacity:0.125" fill="#221203" d="M 839.5,295.5 C 840.833,295.5 841.5,296.167 841.5,297.5C 842.15,299.435 842.483,301.435 842.5,303.5C 840.415,301.316 839.415,298.649 839.5,295.5 Z"/></g>
<g><path style="opacity:0.02" fill="#251505" d="M 1012.5,295.5 C 1012.02,299.309 1010.02,301.975 1006.5,303.5C 1006.98,299.691 1008.98,297.025 1012.5,295.5 Z"/></g>
<g><path style="opacity:0.4" fill="#6c360b" d="M 841.5,297.5 C 844.247,300.791 846.58,304.457 848.5,308.5C 846.761,306.575 844.761,304.909 842.5,303.5C 842.483,301.435 842.15,299.435 841.5,297.5 Z"/></g>
<g><path style="opacity:0.356" fill="#140a03" d="M 765.5,296.5 C 765.5,296.833 765.5,297.167 765.5,297.5C 765.5,299.833 765.5,302.167 765.5,304.5C 764.833,304.5 764.167,304.5 763.5,304.5C 762.964,301.302 763.631,298.635 765.5,296.5 Z"/></g>
<g><path style="opacity:0.42" fill="#84410c" d="M 947.5,305.5 C 950.024,304.2 952.691,304.2 955.5,305.5C 954.412,306.934 953.078,307.934 951.5,308.5C 951.414,307.504 951.748,306.671 952.5,306C 950.866,305.506 949.199,305.34 947.5,305.5 Z"/></g>
<g><path style="opacity:0.016" fill="#120902" d="M 1006.5,303.5 C 1006.91,305.973 1005.91,307.306 1003.5,307.5C 1003.56,306.391 1003.89,305.391 1004.5,304.5C 1004.84,303.662 1005.51,303.328 1006.5,303.5 Z"/></g>
<g><path style="opacity:0.133" fill="#1e1004" d="M 842.5,303.5 C 844.761,304.909 846.761,306.575 848.5,308.5C 849.72,310.282 850.386,312.282 850.5,314.5C 849.265,314.279 848.265,313.612 847.5,312.5C 845.559,309.616 843.893,306.616 842.5,303.5 Z"/></g>
<g><path style="opacity:0.659" fill="#61320c" d="M 763.5,304.5 C 764.167,304.5 764.833,304.5 765.5,304.5C 765.843,306.483 765.176,307.817 763.5,308.5C 763.5,307.167 763.5,305.833 763.5,304.5 Z"/></g>
<g><path style="opacity:0.065" fill="#0c0601" d="M 946.5,307.5 C 945.817,309.176 944.483,309.843 942.5,309.5C 943.183,307.824 944.517,307.157 946.5,307.5 Z"/></g>
<g><path style="opacity:0.071" fill="#0b0400" d="M 763.5,308.5 C 763.5,310.833 763.5,313.167 763.5,315.5C 762.833,315.5 762.167,315.5 761.5,315.5C 760.99,312.612 761.656,310.279 763.5,308.5 Z"/></g>
<g><path style="opacity:0.204" fill="#4f280a" d="M 947.5,305.5 C 947.5,306.167 947.5,306.833 947.5,307.5C 947.167,307.5 946.833,307.5 946.5,307.5C 944.517,307.157 943.183,307.824 942.5,309.5C 939.236,310.324 935.902,310.658 932.5,310.5C 937.219,308.561 942.219,306.895 947.5,305.5 Z"/></g>
<g><path style="opacity:0.235" fill="#381d08" d="M 1004.5,304.5 C 1003.89,305.391 1003.56,306.391 1003.5,307.5C 1003.26,310.069 1001.93,311.735 999.5,312.5C 999.5,311.167 999.5,309.833 999.5,308.5C 1000.87,306.793 1002.54,305.46 1004.5,304.5 Z"/></g>
<g><path style="opacity:0.235" fill="#160b03" d="M 932.5,310.5 C 931.082,312.308 929.082,312.975 926.5,312.5C 927.918,310.692 929.918,310.025 932.5,310.5 Z"/></g>
<g><path style="opacity:0.135" fill="#231304" d="M 947.5,305.5 C 949.199,305.34 950.866,305.506 952.5,306C 951.748,306.671 951.414,307.504 951.5,308.5C 947.651,314.277 942.984,319.277 937.5,323.5C 937.877,321.742 938.544,320.075 939.5,318.5C 942.986,315.094 946.319,311.594 949.5,308C 948.906,307.536 948.239,307.369 947.5,307.5C 947.5,306.833 947.5,306.167 947.5,305.5 Z"/></g>
<g><path style="opacity:0.314" fill="#8a440b" d="M 999.5,308.5 C 999.5,309.833 999.5,311.167 999.5,312.5C 998.167,312.5 997.5,313.167 997.5,314.5C 996.833,314.5 996.167,314.5 995.5,314.5C 996.057,311.95 997.39,309.95 999.5,308.5 Z"/></g>
<g><path style="opacity:0.065" fill="#251404" d="M 805.5,304.5 C 805.666,308.514 805.499,312.514 805,316.5C 804.902,319.522 804.068,322.189 802.5,324.5C 802.5,323.833 802.5,323.167 802.5,322.5C 802.616,319.14 802.949,315.807 803.5,312.5C 802.964,309.302 803.631,306.635 805.5,304.5 Z"/></g>
<g><path style="opacity:0.188" fill="#180c01" d="M 926.5,312.5 C 924.721,314.344 922.388,315.01 919.5,314.5C 921.279,312.656 923.612,311.99 926.5,312.5 Z"/></g>
<g><path style="opacity:0.09" fill="#030200" d="M 999.5,312.5 C 999.5,313.833 998.833,314.5 997.5,314.5C 997.5,313.167 998.167,312.5 999.5,312.5 Z"/></g>
<g><path style="opacity:0.059" fill="#050200" d="M 913.5,314.5 C 915.5,314.5 917.5,314.5 919.5,314.5C 918.082,316.308 916.082,316.975 913.5,316.5C 913.5,315.833 913.5,315.167 913.5,314.5 Z"/></g>
<g><path style="opacity:0.125" fill="#050300" d="M 995.5,314.5 C 996.167,314.5 996.833,314.5 997.5,314.5C 997.5,315.833 996.833,316.5 995.5,316.5C 995.5,315.833 995.5,315.167 995.5,314.5 Z"/></g>
<g><path style="opacity:0.686" fill="#71390c" d="M 803.5,312.5 C 802.949,315.807 802.616,319.14 802.5,322.5C 801.84,321.036 801.507,319.369 801.5,317.5C 801.556,315.36 802.223,313.694 803.5,312.5 Z"/></g>
<g><path style="opacity:0.686" fill="#a5510f" d="M 913.5,314.5 C 913.5,315.167 913.5,315.833 913.5,316.5C 913.167,316.5 912.833,316.5 912.5,316.5C 909.302,315.964 906.635,316.631 904.5,318.5C 901.918,318.025 899.918,318.692 898.5,320.5C 897.833,320.5 897.167,320.5 896.5,320.5C 893.918,320.025 891.918,320.692 890.5,322.5C 890.167,322.5 889.833,322.5 889.5,322.5C 887.5,322.5 885.5,322.5 883.5,322.5C 882.833,322.5 882.167,322.5 881.5,322.5C 889.146,320.489 896.812,318.155 904.5,315.5C 907.468,314.838 910.468,314.505 913.5,314.5 Z"/></g>
<g><path style="opacity:0.073" fill="#170b01" d="M 850.5,314.5 C 852.176,315.183 852.843,316.517 852.5,318.5C 850.824,317.817 850.157,316.483 850.5,314.5 Z"/></g>
<g><path style="opacity:0.18" fill="#201103" d="M 912.5,316.5 C 912.389,317.117 912.056,317.617 911.5,318C 909.19,318.497 906.857,318.663 904.5,318.5C 906.635,316.631 909.302,315.964 912.5,316.5 Z"/></g>
<g><path style="opacity:0.216" fill="#160b01" d="M 995.5,316.5 C 995.5,317.833 994.833,318.5 993.5,318.5C 993.5,317.167 994.167,316.5 995.5,316.5 Z"/></g>
<g><path style="opacity:0.733" fill="#4d2709" d="M 761.5,315.5 C 762.167,315.5 762.833,315.5 763.5,315.5C 762.554,318.313 760.554,319.646 757.5,319.5C 757.5,318.833 757.5,318.167 757.5,317.5C 758.833,316.833 760.167,316.167 761.5,315.5 Z"/></g>
<g><path style="opacity:0.149" fill="#110601" d="M 904.5,318.5 C 903.082,320.308 901.082,320.975 898.5,320.5C 899.918,318.692 901.918,318.025 904.5,318.5 Z"/></g>
<g><path style="opacity:0.267" fill="#190e03" d="M 757.5,317.5 C 757.5,318.167 757.5,318.833 757.5,319.5C 754.664,320.776 751.664,321.442 748.5,321.5C 750.962,319.309 753.962,317.976 757.5,317.5 Z"/></g>
<g><path style="opacity:0.165" fill="#1d1003" d="M 896.5,320.5 C 895.082,322.308 893.082,322.975 890.5,322.5C 891.918,320.692 893.918,320.025 896.5,320.5 Z"/></g>
<g><path style="opacity:0.014" fill="#0d0501" d="M 993.5,318.5 C 993.843,320.483 993.176,321.817 991.5,322.5C 991.5,321.833 991.5,321.167 991.5,320.5C 991.5,319.167 992.167,318.5 993.5,318.5 Z"/></g>
<g><path style="opacity:0.243" fill="#1f1002" d="M 748.5,321.5 C 747.082,323.308 745.082,323.975 742.5,323.5C 743.918,321.692 745.918,321.025 748.5,321.5 Z"/></g>
<g><path style="opacity:0.141" fill="#180c02" d="M 883.5,322.5 C 885.5,322.5 887.5,322.5 889.5,322.5C 888.082,324.308 886.082,324.975 883.5,324.5C 883.5,323.833 883.5,323.167 883.5,322.5 Z"/></g>
<g><path style="opacity:0.616" fill="#592d0a" d="M 991.5,320.5 C 991.5,321.167 991.5,321.833 991.5,322.5C 990.167,322.833 988.833,323.167 987.5,323.5C 988.035,321.554 989.368,320.554 991.5,320.5 Z"/></g>
<g><path style="opacity:0.286" fill="#1e1104" d="M 742.5,323.5 C 741.082,325.308 739.082,325.975 736.5,325.5C 737.918,323.692 739.918,323.025 742.5,323.5 Z"/></g>
<g><path style="opacity:0.349" fill="#7a3d0c" d="M 881.5,322.5 C 882.167,322.5 882.833,322.5 883.5,322.5C 883.5,323.167 883.5,323.833 883.5,324.5C 880.918,324.025 878.918,324.692 877.5,326.5C 877.167,326.5 876.833,326.5 876.5,326.5C 873.391,326.264 870.391,326.597 867.5,327.5C 871.763,324.927 876.43,323.26 881.5,322.5 Z"/></g>
<g><path style="opacity:0.218" fill="#1d1003" d="M 937.5,323.5 C 937.5,324.833 936.833,325.5 935.5,325.5C 935.5,324.167 936.167,323.5 937.5,323.5 Z"/></g>
<g><path style="opacity:0.059" fill="#100600" d="M 883.5,324.5 C 881.898,326.074 879.898,326.741 877.5,326.5C 878.918,324.692 880.918,324.025 883.5,324.5 Z"/></g>
<g><path style="opacity:0.05" fill="#100601" d="M 735.5,325.5 C 734.082,327.308 732.082,327.975 729.5,327.5C 730.918,325.692 732.918,325.025 735.5,325.5 Z"/></g>
<g><path style="opacity:0.114" fill="#080400" d="M 935.5,325.5 C 935.672,326.492 935.338,327.158 934.5,327.5C 934.167,327.5 933.833,327.5 933.5,327.5C 933.5,326.167 934.167,325.5 935.5,325.5 Z"/></g>
<g><path style="opacity:0.243" fill="#291605" d="M 852.5,318.5 C 856.01,320.431 858.01,323.431 858.5,327.5C 861.5,327.5 864.5,327.5 867.5,327.5C 870.391,326.597 873.391,326.264 876.5,326.5C 874.189,328.068 871.522,328.902 868.5,329C 861.4,331.321 856.4,329.155 853.5,322.5C 852.571,321.311 852.238,319.978 852.5,318.5 Z"/></g>
<g><path style="opacity:0.031" fill="#1b0e03" d="M 991.5,322.5 C 990.241,324.604 988.741,326.604 987,328.5C 986.329,329.252 985.496,329.586 984.5,329.5C 985.096,327.255 986.096,325.255 987.5,323.5C 988.833,323.167 990.167,322.833 991.5,322.5 Z"/></g>
<g><path style="opacity:0.447" fill="#231204" d="M 729.5,327.5 C 728.817,329.176 727.483,329.843 725.5,329.5C 722.904,330.265 720.237,330.599 717.5,330.5C 721.076,328.272 725.076,327.272 729.5,327.5 Z"/></g>
<g><path style="opacity:0.188" fill="#120a02" d="M 984.5,329.5 C 984.5,330.833 983.833,331.5 982.5,331.5C 982.5,330.167 983.167,329.5 984.5,329.5 Z"/></g>
<g><path style="opacity:0.037" fill="#0c0501" d="M 716.5,330.5 C 715.817,332.176 714.483,332.843 712.5,332.5C 713.183,330.824 714.517,330.157 716.5,330.5 Z"/></g>
<g><path style="opacity:0.353" fill="#84420c" d="M 800.5,325.5 C 800.5,329.5 800.5,333.5 800.5,337.5C 798.656,339.279 797.99,341.612 798.5,344.5C 797.839,342.866 797.506,341.033 797.5,339C 798.299,334.317 799.299,329.817 800.5,325.5 Z"/></g>
<g><path style="opacity:0.054" fill="#180b01" d="M 800.5,325.5 C 801.167,325.5 801.833,325.5 802.5,325.5C 802.665,329.182 802.499,332.848 802,336.5C 801.617,337.056 801.117,337.389 800.5,337.5C 800.5,333.5 800.5,329.5 800.5,325.5 Z"/></g>
<g><path style="opacity:0.71" fill="#562b0b" d="M 933.5,327.5 C 933.833,327.5 934.167,327.5 934.5,327.5C 934.646,330.554 933.313,332.554 930.5,333.5C 930.5,332.5 930.5,331.5 930.5,330.5C 931.167,329.167 932.167,328.167 933.5,327.5 Z"/></g>
<g><path style="opacity:0.169" fill="#190d02" d="M 712.5,332.5 C 711.082,334.308 709.082,334.975 706.5,334.5C 707.918,332.692 709.918,332.025 712.5,332.5 Z"/></g>
<g><path style="opacity:0.403" fill="#86420d" d="M 725.5,329.5 C 715.443,334.52 704.776,338.187 693.5,340.5C 693.5,339.833 693.5,339.167 693.5,338.5C 696.082,338.975 698.082,338.308 699.5,336.5C 701.781,336.923 703.448,336.256 704.5,334.5C 705.167,334.5 705.833,334.5 706.5,334.5C 709.082,334.975 711.082,334.308 712.5,332.5C 714.483,332.843 715.817,332.176 716.5,330.5C 716.833,330.5 717.167,330.5 717.5,330.5C 720.237,330.599 722.904,330.265 725.5,329.5 Z"/></g>
<g><path style="opacity:0.149" fill="#180b02" d="M 930.5,330.5 C 930.5,331.5 930.5,332.5 930.5,333.5C 928.798,335.537 926.798,337.203 924.5,338.5C 925.544,335.062 927.544,332.396 930.5,330.5 Z"/></g>
<g><path style="opacity:0.014" fill="#1b0e02" d="M 982.5,331.5 C 982.646,334.554 981.313,336.554 978.5,337.5C 978.354,334.446 979.687,332.446 982.5,331.5 Z"/></g>
<g><path style="opacity:0.271" fill="#140902" d="M 704.5,334.5 C 703.448,336.256 701.781,336.923 699.5,336.5C 700.635,334.787 702.302,334.12 704.5,334.5 Z"/></g>
<g><path style="opacity:0.042" fill="#0e0601" d="M 699.5,336.5 C 698.082,338.308 696.082,338.975 693.5,338.5C 694.918,336.692 696.918,336.025 699.5,336.5 Z"/></g>
<g><path style="opacity:0.063" fill="#010100" d="M 976.5,337.5 C 977.167,337.5 977.833,337.5 978.5,337.5C 978.5,338.833 977.833,339.5 976.5,339.5C 976.5,338.833 976.5,338.167 976.5,337.5 Z"/></g>
<g><path style="opacity:0.071" fill="#120701" d="M 693.5,338.5 C 693.5,339.167 693.5,339.833 693.5,340.5C 691.5,340.5 689.5,340.5 687.5,340.5C 688.918,338.692 690.918,338.025 693.5,338.5 Z"/></g>
<g><path style="opacity:0.153" fill="#0a0601" d="M 924.5,338.5 C 924.5,339.833 923.833,340.5 922.5,340.5C 922.5,339.167 923.167,338.5 924.5,338.5 Z"/></g>
<g><path style="opacity:0.655" fill="#95490d" d="M 976.5,337.5 C 976.5,338.167 976.5,338.833 976.5,339.5C 975.167,339.5 974.5,340.167 974.5,341.5C 973.167,341.5 972.5,342.167 972.5,343.5C 971.833,343.5 971.167,343.5 970.5,343.5C 971.149,340.184 973.149,338.184 976.5,337.5 Z"/></g>
<g><path style="opacity:0.076" fill="#020200" d="M 976.5,339.5 C 976.5,340.833 975.833,341.5 974.5,341.5C 974.5,340.167 975.167,339.5 976.5,339.5 Z"/></g>
<g><path style="opacity:0.072" fill="#0e0501" d="M 687.5,340.5 C 687.179,342.048 686.179,342.715 684.5,342.5C 683.5,342.5 682.5,342.5 681.5,342.5C 682.918,340.692 684.918,340.025 687.5,340.5 Z"/></g>
<g><path style="opacity:0.184" fill="#1d1004" d="M 800.5,337.5 C 801.036,340.698 800.369,343.365 798.5,345.5C 798.5,345.167 798.5,344.833 798.5,344.5C 797.99,341.612 798.656,339.279 800.5,337.5 Z"/></g>
<g><path style="opacity:0.163" fill="#110901" d="M 974.5,341.5 C 974.5,342.833 973.833,343.5 972.5,343.5C 972.5,342.167 973.167,341.5 974.5,341.5 Z"/></g>
<g><path style="opacity:0.055" fill="#0c0501" d="M 680.5,342.5 C 680.5,343.167 680.5,343.833 680.5,344.5C 679.167,344.5 677.833,344.5 676.5,344.5C 677.183,342.824 678.517,342.157 680.5,342.5 Z"/></g>
<g><path style="opacity:0.898" fill="#8c450f" d="M 680.5,342.5 C 680.833,342.5 681.167,342.5 681.5,342.5C 682.5,342.5 683.5,342.5 684.5,342.5C 683.817,344.176 682.483,344.843 680.5,344.5C 680.5,343.833 680.5,343.167 680.5,342.5 Z"/></g>
<g><path style="opacity:0.329" fill="#2c1806" d="M 922.5,340.5 C 922.768,342.099 922.434,343.432 921.5,344.5C 920.5,344.5 919.5,344.5 918.5,344.5C 919.167,342.5 920.5,341.167 922.5,340.5 Z"/></g>
<g><path style="opacity:0.212" fill="#190c02" d="M 676.5,344.5 C 675.082,346.308 673.082,346.975 670.5,346.5C 671.918,344.692 673.918,344.025 676.5,344.5 Z"/></g>
<g><path style="opacity:0.71" fill="#71390b" d="M 918.5,344.5 C 919.5,344.5 920.5,344.5 921.5,344.5C 920.878,346.122 919.878,347.455 918.5,348.5C 918.5,347.167 918.5,345.833 918.5,344.5 Z"/></g>
<g><path style="opacity:0.506" fill="#281605" d="M 970.5,343.5 C 971.167,343.5 971.833,343.5 972.5,343.5C 972.719,344.675 972.386,345.675 971.5,346.5C 969.47,348.652 967.47,350.652 965.5,352.5C 965.833,351.167 966.167,349.833 966.5,348.5C 967.46,346.539 968.793,344.873 970.5,343.5 Z"/></g>
<g><path style="opacity:0.275" fill="#281504" d="M 918.5,344.5 C 918.5,345.833 918.5,347.167 918.5,348.5C 917.341,350.25 915.674,351.25 913.5,351.5C 914.044,348.3 915.71,345.967 918.5,344.5 Z"/></g>
<g><path style="opacity:0.329" fill="#311a06" d="M 670.5,346.5 C 667.527,348.052 664.527,349.719 661.5,351.5C 660.167,351.5 658.833,351.5 657.5,351.5C 660.814,347.72 665.147,346.053 670.5,346.5 Z"/></g>
<g><path style="opacity:0.173" fill="#381d06" d="M 798.5,346.5 C 798.5,347.833 797.833,348.5 796.5,348.5C 796.5,347.167 797.167,346.5 798.5,346.5 Z"/></g>
<g><path style="opacity:0.063" fill="#170b01" d="M 796.5,348.5 C 795.082,350.308 793.082,350.975 790.5,350.5C 791.918,348.692 793.918,348.025 796.5,348.5 Z"/></g>
<g><path style="opacity:0.214" fill="#170b02" d="M 784.5,350.5 C 786.5,350.5 788.5,350.5 790.5,350.5C 789.082,352.308 787.082,352.975 784.5,352.5C 784.5,351.833 784.5,351.167 784.5,350.5 Z"/></g>
<g><path style="opacity:0.143" fill="#090500" d="M 913.5,351.5 C 913.5,352.167 913.5,352.833 913.5,353.5C 912.833,353.5 912.167,353.5 911.5,353.5C 911.5,352.167 912.167,351.5 913.5,351.5 Z"/></g>
<g><path style="opacity:0.176" fill="#1d0f03" d="M 784.5,352.5 C 781.493,355.165 777.827,356.498 773.5,356.5C 776.376,353.476 780.042,352.143 784.5,352.5 Z"/></g>
<g><path style="opacity:0.118" fill="#060400" d="M 965.5,352.5 C 965.5,353.833 964.833,354.5 963.5,354.5C 963.5,353.167 964.167,352.5 965.5,352.5 Z"/></g>
<g><path style="opacity:0.306" fill="#7e3f0c" d="M 966.5,348.5 C 966.167,349.833 965.833,351.167 965.5,352.5C 964.167,352.5 963.5,353.167 963.5,354.5C 962.833,354.5 962.167,354.5 961.5,354.5C 962.19,351.623 963.857,349.623 966.5,348.5 Z"/></g>
<g><path style="opacity:0.531" fill="#2e1907" d="M 657.5,351.5 C 656.167,354.167 654.167,356.167 651.5,357.5C 651.5,356.833 651.5,356.167 651.5,355.5C 652.446,352.687 654.446,351.354 657.5,351.5 Z"/></g>
<g><path style="opacity:0.169" fill="#110a02" d="M 961.5,354.5 C 962.167,354.5 962.833,354.5 963.5,354.5C 963.5,355.833 962.833,356.5 961.5,356.5C 961.5,355.833 961.5,355.167 961.5,354.5 Z"/></g>
<g><path style="opacity:0.086" fill="#020200" d="M 651.5,355.5 C 651.5,356.167 651.5,356.833 651.5,357.5C 650.833,357.5 650.167,357.5 649.5,357.5C 649.5,356.167 650.167,355.5 651.5,355.5 Z"/></g>
<g><path style="opacity:0.032" fill="#040200" d="M 773.5,356.5 C 772.082,358.308 770.082,358.975 767.5,358.5C 768.918,356.692 770.918,356.025 773.5,356.5 Z"/></g>
<g><path style="opacity:0.073" fill="#010100" d="M 649.5,357.5 C 649.5,358.833 648.833,359.5 647.5,359.5C 647.5,358.167 648.167,357.5 649.5,357.5 Z"/></g>
<g><path style="opacity:0.025" fill="#0e0601" d="M 767.5,358.5 C 766.01,360.28 764.01,360.946 761.5,360.5C 762.918,358.692 764.918,358.025 767.5,358.5 Z"/></g>
<g><path style="opacity:0.086" fill="#020200" d="M 647.5,359.5 C 647.5,360.833 646.833,361.5 645.5,361.5C 645.5,360.167 646.167,359.5 647.5,359.5 Z"/></g>
<g><path style="opacity:0.264" fill="#261405" d="M 911.5,353.5 C 912.167,353.5 912.833,353.5 913.5,353.5C 910.833,357.5 907.5,360.833 903.5,363.5C 903.238,362.022 903.571,360.689 904.5,359.5C 906.553,357.109 908.886,355.109 911.5,353.5 Z"/></g>
<g><path style="opacity:0.749" fill="#92480d" d="M 784.5,350.5 C 784.5,351.167 784.5,351.833 784.5,352.5C 780.042,352.143 776.376,353.476 773.5,356.5C 770.918,356.025 768.918,356.692 767.5,358.5C 764.918,358.025 762.918,358.692 761.5,360.5C 761.167,360.5 760.833,360.5 760.5,360.5C 757.918,360.025 755.918,360.692 754.5,362.5C 751.763,362.401 749.096,362.735 746.5,363.5C 758.582,358.16 771.248,353.826 784.5,350.5 Z"/></g>
<g><path style="opacity:0.118" fill="#140901" d="M 760.5,360.5 C 759.082,362.308 757.082,362.975 754.5,362.5C 755.918,360.692 757.918,360.025 760.5,360.5 Z"/></g>
<g><path style="opacity:0.976" fill="#a04f10" d="M 657.5,351.5 C 658.833,351.5 660.167,351.5 661.5,351.5C 656.101,356.183 650.768,360.849 645.5,365.5C 645.5,364.167 645.5,362.833 645.5,361.5C 646.833,361.5 647.5,360.833 647.5,359.5C 648.833,359.5 649.5,358.833 649.5,357.5C 650.167,357.5 650.833,357.5 651.5,357.5C 654.167,356.167 656.167,354.167 657.5,351.5 Z"/></g>
<g><path style="opacity:0.192" fill="#251303" d="M 961.5,356.5 C 961.762,357.978 961.429,359.311 960.5,360.5C 958.71,362.961 956.377,364.627 953.5,365.5C 955.122,361.546 957.789,358.546 961.5,356.5 Z"/></g>
<g><path style="opacity:0.204" fill="#1a0c02" d="M 645.5,361.5 C 645.5,362.833 645.5,364.167 645.5,365.5C 644.833,365.5 644.167,365.5 643.5,365.5C 643.157,363.517 643.824,362.183 645.5,361.5 Z"/></g>
<g><path style="opacity:0.718" fill="#321b08" d="M 754.5,362.5 C 754.389,363.117 754.056,363.617 753.5,364C 748.121,365.124 742.788,366.291 737.5,367.5C 739.591,364.457 742.591,363.124 746.5,363.5C 749.096,362.735 751.763,362.401 754.5,362.5 Z"/></g>
<g><path style="opacity:0.176" fill="#0e0801" d="M 903.5,363.5 C 903.5,364.833 902.833,365.5 901.5,365.5C 901.5,364.167 902.167,363.5 903.5,363.5 Z"/></g>
<g><path style="opacity:0.237" fill="#0d0701" d="M 953.5,365.5 C 953.5,366.833 952.833,367.5 951.5,367.5C 951.5,366.167 952.167,365.5 953.5,365.5 Z"/></g>
<g><path style="opacity:0.065" fill="#150b02" d="M 729.5,367.5 C 732.167,367.5 734.833,367.5 737.5,367.5C 733.678,369.835 729.344,371.168 724.5,371.5C 726.167,370.167 727.833,368.833 729.5,367.5 Z"/></g>
<g><path style="opacity:0.188" fill="#2e1806" d="M 901.5,365.5 C 901.649,366.552 901.483,367.552 901,368.5C 898.621,371.715 895.787,374.381 892.5,376.5C 892.5,375.167 892.5,373.833 892.5,372.5C 893.5,372.5 894.5,372.5 895.5,372.5C 896.054,368.945 898.054,366.612 901.5,365.5 Z"/></g>
<g><path style="opacity:0.807" fill="#9c4d0f" d="M 729.5,367.5 C 727.833,368.833 726.167,370.167 724.5,371.5C 721.918,371.025 719.918,371.692 718.5,373.5C 715.918,373.025 713.918,373.692 712.5,375.5C 709.762,375.706 707.428,376.706 705.5,378.5C 703.242,378.225 702.908,377.225 704.5,375.5C 712.615,372.079 720.949,369.413 729.5,367.5 Z"/></g>
<g><path style="opacity:0.133" fill="#190c01" d="M 724.5,371.5 C 723.082,373.308 721.082,373.975 718.5,373.5C 719.918,371.692 721.918,371.025 724.5,371.5 Z"/></g>
<g><path style="opacity:0.086" fill="#291504" d="M 951.5,367.5 C 950.831,370.849 949.164,373.516 946.5,375.5C 946.5,374.167 946.5,372.833 946.5,371.5C 947.873,369.793 949.539,368.46 951.5,367.5 Z"/></g>
<g><path style="opacity:0.23" fill="#1e0e02" d="M 641.5,368.5 C 642.036,371.698 641.369,374.365 639.5,376.5C 639.111,373.447 639.777,370.78 641.5,368.5 Z"/></g>
<g><path style="opacity:0.06" fill="#150a01" d="M 718.5,373.5 C 717.082,375.308 715.082,375.975 712.5,375.5C 713.918,373.692 715.918,373.025 718.5,373.5 Z"/></g>
<g><path style="opacity:0.167" fill="#090500" d="M 892.5,376.5 C 892.5,377.833 891.833,378.5 890.5,378.5C 890.5,377.167 891.167,376.5 892.5,376.5 Z"/></g>
<g><path style="opacity:0.353" fill="#321b09" d="M 946.5,375.5 C 945.833,377.5 944.5,378.833 942.5,379.5C 942.5,378.167 942.5,376.833 942.5,375.5C 943.833,375.5 945.167,375.5 946.5,375.5 Z"/></g>
<g><path style="opacity:0.024" fill="#130801" d="M 712.5,375.5 C 711.942,376.79 710.942,377.623 709.5,378C 711.119,378.236 712.119,379.069 712.5,380.5C 710.071,380.116 707.737,379.449 705.5,378.5C 707.428,376.706 709.762,375.706 712.5,375.5 Z"/></g>
<g><path style="opacity:0.471" fill="#8e460e" d="M 946.5,371.5 C 946.5,372.833 946.5,374.167 946.5,375.5C 945.167,375.5 943.833,375.5 942.5,375.5C 942.5,376.833 942.5,378.167 942.5,379.5C 941.167,379.833 939.833,380.167 938.5,380.5C 940.315,376.784 942.982,373.784 946.5,371.5 Z"/></g>
<g><path style="opacity:0.608" fill="#70370c" d="M 643.5,365.5 C 640.984,376.332 642.651,386.332 648.5,395.5C 647.5,395.5 646.5,395.5 645.5,395.5C 645.715,393.821 645.048,392.821 643.5,392.5C 643.843,390.517 643.176,389.183 641.5,388.5C 641.5,387.833 641.5,387.167 641.5,386.5C 642.036,383.302 641.369,380.635 639.5,378.5C 639.5,377.833 639.5,377.167 639.5,376.5C 641.369,374.365 642.036,371.698 641.5,368.5C 641.285,366.821 641.952,365.821 643.5,365.5 Z"/></g>
<g><path style="opacity:0.251" fill="#1e1103" d="M 712.5,380.5 C 715.082,380.025 717.082,380.692 718.5,382.5C 715.918,382.975 713.918,382.308 712.5,380.5 Z"/></g>
<g><path style="opacity:0.341" fill="#160a02" d="M 890.5,378.5 C 890.5,380.5 890.5,382.5 890.5,384.5C 889.307,384.03 888.64,383.03 888.5,381.5C 888.64,379.97 889.307,378.97 890.5,378.5 Z"/></g>
<g><path style="opacity:0.231" fill="#251303" d="M 639.5,378.5 C 641.369,380.635 642.036,383.302 641.5,386.5C 639.631,384.365 638.964,381.698 639.5,378.5 Z"/></g>
<g><path style="opacity:0.318" fill="#211103" d="M 942.5,379.5 C 942.279,380.735 941.612,381.735 940.5,382.5C 941.95,383.85 942.617,385.516 942.5,387.5C 939.932,385.973 938.599,383.639 938.5,380.5C 939.833,380.167 941.167,379.833 942.5,379.5 Z"/></g>
<g><path style="opacity:0.537" fill="#2e1806" d="M 718.5,382.5 C 723.663,382.519 727.997,384.186 731.5,387.5C 729.435,387.483 727.435,387.15 725.5,386.5C 722.626,385.903 720.292,384.569 718.5,382.5 Z"/></g>
<g><path style="opacity:0.073" fill="#1a0d01" d="M 890.5,384.5 C 892.176,385.183 892.843,386.517 892.5,388.5C 890.824,387.817 890.157,386.483 890.5,384.5 Z"/></g>
<g><path style="opacity:0.037" fill="#050200" d="M 733.5,387.5 C 735.483,387.157 736.817,387.824 737.5,389.5C 735.517,389.843 734.183,389.176 733.5,387.5 Z"/></g>
<g><path style="opacity:0.104" fill="#170c02" d="M 737.5,389.5 C 739.483,389.157 740.817,389.824 741.5,391.5C 739.517,391.843 738.183,391.176 737.5,389.5 Z"/></g>
<g><path style="opacity:0.047" fill="#140801" d="M 641.5,388.5 C 643.176,389.183 643.843,390.517 643.5,392.5C 641.824,391.817 641.157,390.483 641.5,388.5 Z"/></g>
<g><path style="opacity:0.441" fill="#2c1805" d="M 942.5,387.5 C 945.892,388.99 947.226,391.657 946.5,395.5C 944.153,393.473 942.819,390.806 942.5,387.5 Z"/></g>
<g><path style="opacity:0.793" fill="#9a4c0e" d="M 725.5,386.5 C 727.435,387.15 729.435,387.483 731.5,387.5C 732.167,387.5 732.833,387.5 733.5,387.5C 734.183,389.176 735.517,389.843 737.5,389.5C 738.183,391.176 739.517,391.843 741.5,391.5C 742.167,391.5 742.833,391.5 743.5,391.5C 744.5,392.833 745.5,394.167 746.5,395.5C 739.004,393.241 732.004,390.241 725.5,386.5 Z"/></g>
<g><path style="opacity:0.137" fill="#160b02" d="M 743.5,391.5 C 746.639,391.599 748.973,392.932 750.5,395.5C 749.167,395.5 747.833,395.5 746.5,395.5C 745.5,394.167 744.5,392.833 743.5,391.5 Z"/></g>
<g><path style="opacity:0.053" fill="#050200" d="M 752.5,395.5 C 754.483,395.157 755.817,395.824 756.5,397.5C 754.517,397.843 753.183,397.176 752.5,395.5 Z"/></g>
<g><path style="opacity:0.031" fill="#2b1706" d="M 892.5,388.5 C 895.529,390.197 897.196,392.863 897.5,396.5C 897.831,398.322 898.498,399.989 899.5,401.5C 898.504,401.586 897.671,401.252 897,400.5C 895.19,396.575 893.69,392.575 892.5,388.5 Z"/></g>
<g><path style="opacity:0.082" fill="#190d03" d="M 756.5,397.5 C 758.483,397.157 759.817,397.824 760.5,399.5C 758.517,399.843 757.183,399.176 756.5,397.5 Z"/></g>
<g><path style="opacity:0.655" fill="#2d1806" d="M 946.5,395.5 C 948.796,396.733 950.13,398.733 950.5,401.5C 947.221,400.969 945.887,398.969 946.5,395.5 Z"/></g>
<g><path style="opacity:0.29" fill="#251505" d="M 643.5,392.5 C 645.048,392.821 645.715,393.821 645.5,395.5C 646.5,395.5 647.5,395.5 648.5,395.5C 649.771,398.433 651.438,401.099 653.5,403.5C 652.167,403.5 650.833,403.5 649.5,403.5C 647.075,400.072 645.075,396.406 643.5,392.5 Z"/></g>
<g><path style="opacity:0.251" fill="#2b1705" d="M 761.5,399.5 C 764.626,399.485 767.293,400.485 769.5,402.5C 769.5,402.833 769.5,403.167 769.5,403.5C 766.194,403.181 763.527,401.847 761.5,399.5 Z"/></g>
<g><path style="opacity:0.363" fill="#6c360a" d="M 769.5,402.5 C 770.167,402.5 770.833,402.5 771.5,402.5C 772.183,404.176 773.517,404.843 775.5,404.5C 775.5,405.5 775.5,406.5 775.5,407.5C 774.833,407.5 774.167,407.5 773.5,407.5C 772.167,406.167 770.833,404.833 769.5,403.5C 769.5,403.167 769.5,402.833 769.5,402.5 Z"/></g>
<g><path style="opacity:0.055" fill="#050200" d="M 771.5,402.5 C 774.323,402.025 776.323,403.025 777.5,405.5C 777.253,406.713 776.586,407.38 775.5,407.5C 775.5,406.5 775.5,405.5 775.5,404.5C 773.517,404.843 772.183,404.176 771.5,402.5 Z"/></g>
<g><path style="opacity:0.025" fill="#170b02" d="M 950.5,402.5 C 952.545,403.923 953.545,405.923 953.5,408.5C 951.799,407.475 950.465,405.975 949.5,404C 949.57,403.235 949.903,402.735 950.5,402.5 Z"/></g>
<g><path style="opacity:0.008" fill="#0a0400" d="M 653.5,403.5 C 655.5,404.167 656.833,405.5 657.5,407.5C 656.167,407.5 654.833,407.5 653.5,407.5C 653.5,406.167 653.5,404.833 653.5,403.5 Z"/></g>
<g><path style="opacity:0.014" fill="#020100" d="M 899.5,403.5 C 901.176,404.183 901.843,405.517 901.5,407.5C 899.824,406.817 899.157,405.483 899.5,403.5 Z"/></g>
<g><path style="opacity:0.527" fill="#301a07" d="M 657.5,407.5 C 660.813,408.155 663.813,409.489 666.5,411.5C 666.5,412.167 666.5,412.833 666.5,413.5C 662.674,412.663 659.674,410.663 657.5,407.5 Z"/></g>
<g><path style="opacity:0.102" fill="#050300" d="M 901.5,407.5 C 902.833,407.5 903.5,408.167 903.5,409.5C 903.5,408.167 902.833,407.5 901.5,407.5 Z"/></g>
<g><path style="opacity:0.188" fill="#180c02" d="M 773.5,407.5 C 774.167,407.5 774.833,407.5 775.5,407.5C 774.267,409.796 772.267,411.13 769.5,411.5C 770.167,409.5 771.5,408.167 773.5,407.5 Z"/></g>
<g><path style="opacity:0.23" fill="#180d02" d="M 953.5,410.5 C 954.833,410.5 955.5,411.167 955.5,412.5C 955.5,411.167 954.833,410.5 953.5,410.5 Z"/></g>
<g><path style="opacity:0.071" fill="#020200" d="M 903.5,411.5 C 904.833,411.5 905.5,412.167 905.5,413.5C 905.5,412.167 904.833,411.5 903.5,411.5 Z"/></g>
<g><path style="opacity:0.875" fill="#85420d" d="M 897.5,396.5 C 899.709,398.535 901.709,400.868 903.5,403.5C 904.401,407.047 905.734,410.38 907.5,413.5C 906.833,413.5 906.167,413.5 905.5,413.5C 905.5,412.167 904.833,411.5 903.5,411.5C 903.5,410.833 903.5,410.167 903.5,409.5C 903.5,408.167 902.833,407.5 901.5,407.5C 901.843,405.517 901.176,404.183 899.5,403.5C 899.5,402.833 899.5,402.167 899.5,401.5C 898.498,399.989 897.831,398.322 897.5,396.5 Z"/></g>
<g><path style="opacity:0.553" fill="#060504" d="M 147.5,414.5 C 139.882,413.525 132.215,412.858 124.5,412.5C 116.785,412.858 109.118,413.525 101.5,414.5C 103.475,412.91 105.808,411.743 108.5,411C 119.5,410.333 130.5,410.333 141.5,411C 143.889,411.739 145.889,412.905 147.5,414.5 Z"/></g>
<g><path style="opacity:0.796" fill="#7f3f0d" d="M 666.5,411.5 C 670.127,412.321 673.46,413.654 676.5,415.5C 674.5,415.5 672.5,415.5 670.5,415.5C 669.817,413.824 668.483,413.157 666.5,413.5C 666.5,412.833 666.5,412.167 666.5,411.5 Z"/></g>
<g><path style="opacity:0.282" fill="#3b1f09" d="M 769.5,411.5 C 769.279,412.735 768.612,413.735 767.5,414.5C 764.833,416.167 762.167,417.833 759.5,419.5C 757.929,420.309 756.262,420.643 754.5,420.5C 758.234,415.469 763.234,412.469 769.5,411.5 Z"/></g>
<g><path style="opacity:0.999" fill="#1e1916" d="M 147.5,414.5 C 156.692,416.13 164.692,420.13 171.5,426.5C 172.386,427.325 172.719,428.325 172.5,429.5C 175.5,429.167 176.833,430.5 176.5,433.5C 177.675,433.281 178.675,433.614 179.5,434.5C 182.934,439.727 186.767,444.727 191,449.5C 191.798,451.259 191.631,452.926 190.5,454.5C 176.745,465.267 162.745,475.601 148.5,485.5C 142.643,476.303 135.31,468.303 126.5,461.5C 122.799,459.988 118.966,458.988 115,458.5C 108.475,459.62 102.308,461.62 96.5,464.5C 95.7857,466.874 94.4524,468.874 92.5,470.5C 92.0188,473.083 91.3521,475.583 90.5,478C 91.5409,482.288 92.8742,486.455 94.5,490.5C 94.238,491.978 94.5713,493.311 95.5,494.5C 98.9559,498.446 102.623,502.113 106.5,505.5C 109.45,510.118 112.784,514.452 116.5,518.5C 129.455,529.464 140.788,541.797 150.5,555.5C 151.417,556.127 152.417,556.461 153.5,556.5C 153.511,558.547 153.844,560.547 154.5,562.5C 162.744,577.708 164.578,593.708 160,610.5C 156.462,619.247 152.629,627.914 148.5,636.5C 141.473,643.86 134.807,651.526 128.5,659.5C 123.593,662.091 118.593,664.757 113.5,667.5C 95.3967,675.335 76.3967,679.002 56.5,678.5C 51.8856,676.411 46.8856,674.745 41.5,673.5C 22.206,665.876 9.53936,652.21 3.5,632.5C 2.5,632.5 1.5,632.5 0.5,632.5C 0.5,628.833 0.5,625.167 0.5,621.5C 4.16538,620.781 7.83204,619.948 11.5,619C 20.2748,614.097 28.9415,608.93 37.5,603.5C 39.7427,602.526 42.076,602.192 44.5,602.5C 45.2847,605.858 46.2847,609.191 47.5,612.5C 49.4459,615.262 51.7792,617.596 54.5,619.5C 54.5211,622.535 55.8545,624.868 58.5,626.5C 61.947,629.443 65.7804,631.776 70,633.5C 77.836,634.547 85.6693,634.38 93.5,633C 99.2948,628.71 104.961,624.21 110.5,619.5C 117.099,608.783 117.099,598.116 110.5,587.5C 109.735,586.388 108.735,585.721 107.5,585.5C 106.277,582.726 104.777,580.059 103,577.5C 85.5708,561.907 69.7375,544.907 55.5,526.5C 53.7229,523.28 52.2229,519.947 51,516.5C 50.0922,514.561 48.5922,513.561 46.5,513.5C 44.9256,513.063 43.7589,512.063 43,510.5C 41.8652,505.764 40.5319,501.097 39,496.5C 38.3333,490.833 38.3333,485.167 39,479.5C 46.2464,448.42 64.7464,427.086 94.5,415.5C 96.7427,414.526 99.076,414.192 101.5,414.5C 109.118,413.525 116.785,412.858 124.5,412.5C 132.215,412.858 139.882,413.525 147.5,414.5 Z"/></g>
<g><path style="opacity:0.239" fill="#110801" d="M 666.5,413.5 C 668.483,413.157 669.817,413.824 670.5,415.5C 668.517,415.843 667.183,415.176 666.5,413.5 Z"/></g>
<g><path style="opacity:0.037" fill="#1c0e03" d="M 905.5,413.5 C 906.167,413.5 906.833,413.5 907.5,413.5C 908.449,415.737 909.116,418.071 909.5,420.5C 906.932,418.973 905.599,416.639 905.5,413.5 Z"/></g>
<g><path style="opacity:0.373" fill="#1d0e03" d="M 955.5,412.5 C 957.176,413.183 957.843,414.517 957.5,416.5C 955.824,415.817 955.157,414.483 955.5,412.5 Z"/></g>
<g><path style="opacity:0.165" fill="#391d07" d="M 670.5,415.5 C 672.5,415.5 674.5,415.5 676.5,415.5C 679.374,416.435 681.707,418.101 683.5,420.5C 678.548,420.16 674.215,418.493 670.5,415.5 Z"/></g>
<g><path style="opacity:0.398" fill="#261403" d="M 957.5,416.5 C 959.176,417.183 959.843,418.517 959.5,420.5C 958.833,420.5 958.167,420.5 957.5,420.5C 957.5,419.167 957.5,417.833 957.5,416.5 Z"/></g>
<g><path style="opacity:0.271" fill="#100702" d="M 683.5,420.5 C 685.483,420.157 686.817,420.824 687.5,422.5C 685.517,422.843 684.183,422.176 683.5,420.5 Z"/></g>
<g><path style="opacity:0.202" fill="#0a0501" d="M 754.5,420.5 C 754.5,421.833 753.833,422.5 752.5,422.5C 752.5,421.167 753.167,420.5 754.5,420.5 Z"/></g>
<g><path style="opacity:0.106" fill="#150a01" d="M 959.5,420.5 C 961.048,420.821 961.715,421.821 961.5,423.5C 959.952,423.179 959.285,422.179 959.5,420.5 Z"/></g>
<g><path style="opacity:1" fill="#1d1816" d="M 779.5,477.5 C 780.231,488.567 778.897,499.233 775.5,509.5C 773.398,516.102 772.065,523.102 771.5,530.5C 773.179,530.715 774.179,530.048 774.5,528.5C 778.795,524.879 783.128,521.212 787.5,517.5C 791.741,509.924 797.408,503.59 804.5,498.5C 807.218,494.464 809.885,490.464 812.5,486.5C 814.607,481.207 818.107,476.874 823,473.5C 827.259,466.406 832.759,460.406 839.5,455.5C 840.833,453.5 842.167,451.5 843.5,449.5C 844.325,448.614 845.325,448.281 846.5,448.5C 846.5,447.167 846.5,445.833 846.5,444.5C 848.167,444.5 849.833,444.5 851.5,444.5C 851.5,447.833 851.5,451.167 851.5,454.5C 851.411,466.421 853.078,478.087 856.5,489.5C 854.586,493.089 852.252,496.422 849.5,499.5C 844.009,505.124 838.509,510.791 833,516.5C 832.517,517.448 832.351,518.448 832.5,519.5C 824.555,530.163 815.555,539.997 805.5,549C 816.2,562.098 826.366,575.598 836,589.5C 838.367,592.901 840.2,596.568 841.5,600.5C 844.277,607.05 847.277,613.383 850.5,619.5C 851.833,619.5 853.167,619.5 854.5,619.5C 857.834,627.531 862.834,634.531 869.5,640.5C 871.012,645.107 873.678,648.773 877.5,651.5C 878.562,655.588 880.896,658.921 884.5,661.5C 885.389,664.389 886.722,667.055 888.5,669.5C 870.179,670.5 851.845,670.833 833.5,670.5C 832.347,665.856 830.347,661.523 827.5,657.5C 824.491,652.5 820.824,648.167 816.5,644.5C 813.578,642.327 811.078,639.66 809,636.5C 805.89,631.685 803.057,626.685 800.5,621.5C 793.023,611.897 786.023,601.897 779.5,591.5C 778.571,590.311 778.238,588.978 778.5,587.5C 775.931,580.94 772.931,574.607 769.5,568.5C 768.167,568.5 766.833,568.5 765.5,568.5C 763.974,581.816 762.474,595.149 761,608.5C 756.679,628.938 753.846,649.604 752.5,670.5C 738.167,670.5 723.833,670.5 709.5,670.5C 710.092,660.844 710.425,651.178 710.5,641.5C 711.752,626.523 712.918,611.523 714,596.5C 721.943,548.837 728.276,500.837 733,452.5C 735.511,449.657 738.344,447.157 741.5,445C 746.556,442.771 751.222,439.938 755.5,436.5C 757.99,434.917 760.657,433.917 763.5,433.5C 770.095,429.097 777.095,425.43 784.5,422.5C 782.354,440.975 780.688,459.308 779.5,477.5 Z"/></g>
<g><path style="opacity:0.063" fill="#170a01" d="M 909.5,420.5 C 911.176,421.183 911.843,422.517 911.5,424.5C 909.824,423.817 909.157,422.483 909.5,420.5 Z"/></g>
<g><path style="opacity:0.422" fill="#0a0807" d="M 779.5,477.5 C 780.688,459.308 782.354,440.975 784.5,422.5C 777.095,425.43 770.095,429.097 763.5,433.5C 763.721,432.265 764.388,431.265 765.5,430.5C 771.692,425.627 778.359,421.627 785.5,418.5C 786.5,418.833 787.5,419.167 788.5,419.5C 786.5,435.167 784.5,450.833 782.5,466.5C 782.112,470.589 781.112,474.256 779.5,477.5 Z"/></g>
<g><path style="opacity:0.048" fill="#1c0f02" d="M 687.5,422.5 C 692.114,422.976 696.447,424.31 700.5,426.5C 700.5,427.167 700.5,427.833 700.5,428.5C 697.418,427.87 694.418,426.87 691.5,425.5C 689.668,424.943 688.335,423.943 687.5,422.5 Z"/></g>
<g><path style="opacity:0.995" fill="#b45910" d="M 957.5,420.5 C 958.167,420.5 958.833,420.5 959.5,420.5C 959.285,422.179 959.952,423.179 961.5,423.5C 961.819,426.806 963.153,429.473 965.5,431.5C 965.5,432.833 965.5,434.167 965.5,435.5C 960.993,431.485 958.326,426.485 957.5,420.5 Z"/></g>
<g><path style="opacity:0.429" fill="#2d1806" d="M 961.5,423.5 C 964.058,425.434 965.391,428.101 965.5,431.5C 963.153,429.473 961.819,426.806 961.5,423.5 Z"/></g>
<g><path style="opacity:0.812" fill="#8e470d" d="M 700.5,426.5 C 704.173,427.189 707.506,428.522 710.5,430.5C 708.5,430.5 706.5,430.5 704.5,430.5C 703.817,428.824 702.483,428.157 700.5,428.5C 700.5,427.833 700.5,427.167 700.5,426.5 Z"/></g>
<g><path style="opacity:0.263" fill="#0f0701" d="M 700.5,428.5 C 702.483,428.157 703.817,428.824 704.5,430.5C 702.517,430.843 701.183,430.176 700.5,428.5 Z"/></g>
<g><path style="opacity:0.29" fill="#2d1908" d="M 752.5,422.5 C 748.775,425.828 744.775,428.995 740.5,432C 739.552,432.483 738.552,432.649 737.5,432.5C 738.167,431.167 738.833,429.833 739.5,428.5C 743.418,425.709 747.751,423.709 752.5,422.5 Z"/></g>
<g><path style="opacity:0.227" fill="#331b07" d="M 911.5,424.5 C 914.313,425.446 915.646,427.446 915.5,430.5C 914.833,430.5 914.5,430.833 914.5,431.5C 912.706,429.572 911.706,427.238 911.5,424.5 Z"/></g>
<g><path style="opacity:0.433" fill="#331a06" d="M 704.5,430.5 C 706.5,430.5 708.5,430.5 710.5,430.5C 710.5,431.167 710.5,431.833 710.5,432.5C 708.102,432.741 706.102,432.074 704.5,430.5 Z"/></g>
<g><path style="opacity:0.282" fill="#87420c" d="M 739.5,428.5 C 738.833,429.833 738.167,431.167 737.5,432.5C 736.167,432.5 734.833,432.5 733.5,432.5C 735.06,430.571 737.06,429.238 739.5,428.5 Z"/></g>
<g><path style="opacity:0.078" fill="#120801" d="M 914.5,432.5 C 916.719,433.828 918.052,435.828 918.5,438.5C 915.956,437.292 914.622,435.292 914.5,432.5 Z"/></g>
<g><path style="opacity:0.267" fill="#72390b" d="M 915.5,430.5 C 918.768,433.362 920.768,437.028 921.5,441.5C 920.778,440.449 919.778,439.782 918.5,439.5C 918.5,439.167 918.5,438.833 918.5,438.5C 918.052,435.828 916.719,433.828 914.5,432.5C 914.5,432.167 914.5,431.833 914.5,431.5C 914.5,430.833 914.833,430.5 915.5,430.5 Z"/></g>
<g><path style="opacity:0.086" fill="#2c1806" d="M 965.5,431.5 C 967.969,432.607 968.969,434.607 968.5,437.5C 967.222,437.218 966.222,436.551 965.5,435.5C 965.5,434.167 965.5,432.833 965.5,431.5 Z"/></g>
<g><path style="opacity:0.227" fill="#301907" d="M 710.5,432.5 C 715.599,433.79 720.599,435.456 725.5,437.5C 727.965,435.34 730.632,433.673 733.5,432.5C 734.833,432.5 736.167,432.5 737.5,432.5C 735.305,434.294 732.972,436.127 730.5,438C 728.801,438.958 726.967,439.458 725,439.5C 719.386,438.374 714.552,436.041 710.5,432.5 Z"/></g>
<g><path style="opacity:0.048" fill="#040201" d="M 866.5,440.5 C 869.01,440.054 871.01,440.72 872.5,442.5C 869.918,442.975 867.918,442.308 866.5,440.5 Z"/></g>
<g><path style="opacity:0.424" fill="#6d360b" d="M 866.5,440.5 C 867.918,442.308 869.918,442.975 872.5,442.5C 872.5,443.167 872.5,443.833 872.5,444.5C 869.873,443.908 867.206,443.575 864.5,443.5C 863.662,443.842 863.328,444.508 863.5,445.5C 862.833,445.5 862.167,445.5 861.5,445.5C 861.5,443.833 861.5,442.167 861.5,440.5C 863.167,440.5 864.833,440.5 866.5,440.5 Z"/></g>
<g><path style="opacity:0.018" fill="#0e0601" d="M 872.5,442.5 C 874.781,442.077 876.448,442.744 877.5,444.5C 875.833,444.5 874.167,444.5 872.5,444.5C 872.5,443.833 872.5,443.167 872.5,442.5 Z"/></g>
<g><path style="opacity:0.359" fill="#291604" d="M 918.5,439.5 C 919.778,439.782 920.778,440.449 921.5,441.5C 922.434,442.568 922.768,443.901 922.5,445.5C 920.204,444.267 918.87,442.267 918.5,439.5 Z"/></g>
<g><path style="opacity:0.282" fill="#110801" d="M 968.5,437.5 C 971.068,439.027 972.401,441.361 972.5,444.5C 971.167,443.5 969.833,442.5 968.5,441.5C 968.5,440.167 968.5,438.833 968.5,437.5 Z"/></g>
<g><path style="opacity:0.074" fill="#150a02" d="M 877.5,444.5 C 880.698,443.964 883.365,444.631 885.5,446.5C 884.833,446.5 884.167,446.5 883.5,446.5C 880.918,446.975 878.918,446.308 877.5,444.5 Z"/></g>
<g><path style="opacity:0.937" fill="#a3510f" d="M 968.5,441.5 C 969.833,442.5 971.167,443.5 972.5,444.5C 972.157,446.483 972.824,447.817 974.5,448.5C 974.5,449.167 974.5,449.833 974.5,450.5C 973.5,450.5 972.5,450.5 971.5,450.5C 970.486,447.493 969.486,444.493 968.5,441.5 Z"/></g>
<g><path style="opacity:0.031" fill="#040200" d="M 887.5,446.5 C 889.483,446.157 890.817,446.824 891.5,448.5C 890.167,448.5 888.833,448.5 887.5,448.5C 887.5,447.833 887.5,447.167 887.5,446.5 Z"/></g>
<g><path style="opacity:0.718" fill="#5e2f0a" d="M 883.5,446.5 C 884.167,446.5 884.833,446.5 885.5,446.5C 886.167,446.5 886.833,446.5 887.5,446.5C 887.5,447.167 887.5,447.833 887.5,448.5C 885.517,448.843 884.183,448.176 883.5,446.5 Z"/></g>
<g><path style="opacity:0.08" fill="#160b03" d="M 922.5,445.5 C 924.176,446.183 924.843,447.517 924.5,449.5C 922.824,448.817 922.157,447.483 922.5,445.5 Z"/></g>
<g><path style="opacity:0.294" fill="#0d0602" d="M 972.5,444.5 C 974.176,445.183 974.843,446.517 974.5,448.5C 972.824,447.817 972.157,446.483 972.5,444.5 Z"/></g>
<g><path style="opacity:0.094" fill="#120802" d="M 892.5,448.5 C 895.082,448.025 897.082,448.692 898.5,450.5C 895.918,450.975 893.918,450.308 892.5,448.5 Z"/></g>
<g><path style="opacity:0.325" fill="#1e0f02" d="M 974.5,448.5 C 976.176,449.183 976.843,450.517 976.5,452.5C 975.167,452.5 974.5,451.833 974.5,450.5C 974.5,449.833 974.5,449.167 974.5,448.5 Z"/></g>
<g><path style="opacity:0.322" fill="#201205" d="M 900.5,450.5 C 904.973,451.007 908.973,452.341 912.5,454.5C 909.753,454.813 907.086,454.48 904.5,453.5C 902.668,452.943 901.335,451.943 900.5,450.5 Z"/></g>
<g><path style="opacity:0.071" fill="#080300" d="M 913.5,454.5 C 916.082,454.025 918.082,454.692 919.5,456.5C 916.918,456.975 914.918,456.308 913.5,454.5 Z"/></g>
<g><path style="opacity:0.076" fill="#110801" d="M 924.5,449.5 C 927.068,451.027 928.401,453.361 928.5,456.5C 927.833,456.5 927.5,456.833 927.5,457.5C 925.265,457.795 923.265,457.461 921.5,456.5C 923.167,456.5 924.833,456.5 926.5,456.5C 925.551,454.263 924.884,451.929 924.5,449.5 Z"/></g>
<g><path style="opacity:0.361" fill="#1e1004" d="M 976.5,452.5 C 978.176,453.183 978.843,454.517 978.5,456.5C 977.833,456.5 977.167,456.5 976.5,456.5C 976.5,455.167 976.5,453.833 976.5,452.5 Z"/></g>
<g><path style="opacity:0.136" fill="#4c2609" d="M 919.5,456.5 C 920.167,456.5 920.833,456.5 921.5,456.5C 923.265,457.461 925.265,457.795 927.5,457.5C 928.167,457.5 928.5,457.167 928.5,456.5C 930.176,457.183 930.843,458.517 930.5,460.5C 926.173,460.498 922.507,459.165 919.5,456.5 Z"/></g>
<g><path style="opacity:0.098" fill="#150a01" d="M 978.5,456.5 C 980.048,456.821 980.715,457.821 980.5,459.5C 978.952,459.179 978.285,458.179 978.5,456.5 Z"/></g>
<g><path style="opacity:0.224" fill="#1a0e03" d="M 861.5,445.5 C 862.167,445.5 862.833,445.5 863.5,445.5C 864.296,451.817 864.963,458.15 865.5,464.5C 863.839,461.555 862.672,458.221 862,454.5C 861.502,451.518 861.335,448.518 861.5,445.5 Z"/></g>
<g><path style="opacity:0.499" fill="#9b4c0e" d="M 864.5,443.5 C 866.913,458.465 869.246,473.465 871.5,488.5C 876.344,488.832 880.678,490.165 884.5,492.5C 882.236,491.781 879.903,491.448 877.5,491.5C 876.833,491.5 876.167,491.5 875.5,491.5C 874.082,489.692 872.082,489.025 869.5,489.5C 869.5,488.5 869.5,487.5 869.5,486.5C 869.5,486.167 869.5,485.833 869.5,485.5C 870.036,482.302 869.369,479.635 867.5,477.5C 868.08,473.351 867.414,469.684 865.5,466.5C 865.5,465.833 865.5,465.167 865.5,464.5C 864.963,458.15 864.296,451.817 863.5,445.5C 863.328,444.508 863.662,443.842 864.5,443.5 Z"/></g>
<g><path style="opacity:0.306" fill="#1c0e04" d="M 980.5,459.5 C 982.176,460.183 982.843,461.517 982.5,463.5C 980.824,462.817 980.157,461.483 980.5,459.5 Z"/></g>
<g><path style="opacity:0.263" fill="#1d0e02" d="M 982.5,463.5 C 984.176,464.183 984.843,465.517 984.5,467.5C 982.824,466.817 982.157,465.483 982.5,463.5 Z"/></g>
<g><path style="opacity:0.056" fill="#100701" d="M 865.5,466.5 C 867.414,469.684 868.08,473.351 867.5,477.5C 865.586,474.316 864.92,470.649 865.5,466.5 Z"/></g>
<g><path style="opacity:0.047" fill="#311a07" d="M 984.5,469.5 C 986.369,471.635 987.036,474.302 986.5,477.5C 984.631,475.365 983.964,472.698 984.5,469.5 Z"/></g>
<g><path style="opacity:0.827" fill="#87420d" d="M 976.5,456.5 C 977.167,456.5 977.833,456.5 978.5,456.5C 978.285,458.179 978.952,459.179 980.5,459.5C 980.157,461.483 980.824,462.817 982.5,463.5C 982.157,465.483 982.824,466.817 984.5,467.5C 984.5,468.167 984.5,468.833 984.5,469.5C 983.964,472.698 984.631,475.365 986.5,477.5C 985.515,482.111 984.848,486.778 984.5,491.5C 984.5,491.833 984.5,492.167 984.5,492.5C 981.687,493.446 980.354,495.446 980.5,498.5C 979.167,498.5 978.5,499.167 978.5,500.5C 977.167,500.5 976.5,501.167 976.5,502.5C 975.833,502.5 975.167,502.5 974.5,502.5C 977.039,498.517 979.706,494.517 982.5,490.5C 984.931,478.29 982.931,466.957 976.5,456.5 Z"/></g>
<g><path style="opacity:0.57" fill="#0f0c0b" d="M 534.5,482.5 C 519.845,481.53 505.178,481.363 490.5,482C 483.078,484.604 475.411,486.104 467.5,486.5C 467.611,485.883 467.944,485.383 468.5,485C 487.375,479.057 506.709,477.057 526.5,479C 529.311,479.983 531.977,481.149 534.5,482.5 Z"/></g>
<g><path style="opacity:1" fill="#1e1916" d="M 377.5,545.5 C 377.5,546.167 377.5,546.833 377.5,547.5C 377.622,559.525 377.122,571.525 376,583.5C 372.734,592.798 369.567,602.131 366.5,611.5C 362.307,619.24 357.64,626.573 352.5,633.5C 346.134,639.531 340.134,645.864 334.5,652.5C 328.883,655.312 323.549,658.646 318.5,662.5C 302.07,670.917 284.57,675.584 266,676.5C 256.688,675.852 247.521,674.352 238.5,672C 231.414,669.095 224.414,665.929 217.5,662.5C 215.822,659.139 213.155,657.472 209.5,657.5C 206.956,674.436 204.789,691.436 203,708.5C 202.5,714.825 202.334,721.158 202.5,727.5C 202.5,728.833 202.5,730.167 202.5,731.5C 187.833,731.5 173.167,731.5 158.5,731.5C 158.558,728.336 159.224,725.336 160.5,722.5C 162.931,713.852 164.765,704.852 166,695.5C 167.993,681.873 169.66,668.206 171,654.5C 172.467,645.801 174.133,637.134 176,628.5C 178.073,612.911 179.24,597.245 179.5,581.5C 180.075,569.369 182.575,557.703 187,546.5C 187.759,544.937 188.926,543.937 190.5,543.5C 194.546,537.111 198.879,530.777 203.5,524.5C 209.93,519.016 215.93,513.016 221.5,506.5C 231.969,499.279 242.635,492.612 253.5,486.5C 260.882,486.427 267.882,484.927 274.5,482C 285.833,481.333 297.167,481.333 308.5,482C 317.556,484.859 326.556,488.026 335.5,491.5C 340.733,494.07 345.399,497.403 349.5,501.5C 353.119,506.788 357.453,511.454 362.5,515.5C 366.529,521.308 369.195,527.642 370.5,534.5C 371.5,534.5 372.5,534.5 373.5,534.5C 374.18,538.594 375.514,542.261 377.5,545.5 Z M 315.5,532.5 C 318.754,536.76 322.421,540.76 326.5,544.5C 329.564,550.86 331.731,557.527 333,564.5C 333.383,565.056 333.883,565.389 334.5,565.5C 334.5,568.833 334.5,572.167 334.5,575.5C 332.238,586.05 328.238,596.05 322.5,605.5C 317.799,609.866 313.466,614.533 309.5,619.5C 302.681,623.235 296.015,626.902 289.5,630.5C 279.575,632.493 269.575,632.826 259.5,631.5C 237.308,624.218 225.308,608.885 223.5,585.5C 224.334,580.504 225.001,575.504 225.5,570.5C 231.173,557.823 238.839,546.489 248.5,536.5C 253.902,533.299 259.568,530.465 265.5,528C 272.29,526.272 279.123,524.772 286,523.5C 296.398,524.75 306.231,527.75 315.5,532.5 Z"/></g>
<g><path style="opacity:1" fill="#1d1916" d="M 534.5,482.5 C 536.604,482.201 538.604,482.534 540.5,483.5C 546.962,486.474 553.295,489.641 559.5,493C 565.657,497.324 570.99,502.49 575.5,508.5C 576.325,509.386 577.325,509.719 578.5,509.5C 582.489,516.145 585.989,523.145 589,530.5C 595.156,546.166 597.156,562.5 595,579.5C 591.933,599.806 588.766,620.14 585.5,640.5C 583.934,644.217 582.768,648.217 582,652.5C 581.488,658.569 580.654,664.569 579.5,670.5C 566.5,670.5 553.5,670.5 540.5,670.5C 543.249,656.36 545.416,642.027 547,627.5C 547.5,620.842 547.666,614.175 547.5,607.5C 548.741,590.81 548.574,574.143 547,557.5C 545.429,554.321 544.262,550.987 543.5,547.5C 542.25,542.333 539.917,537.667 536.5,533.5C 532.056,529.892 527.222,526.892 522,524.5C 488.466,516.595 462.466,527.262 444,556.5C 443.256,559.89 442.423,563.223 441.5,566.5C 440.655,572.794 439.988,579.127 439.5,585.5C 439.928,591.55 440.595,597.55 441.5,603.5C 443.27,611.968 447.603,618.968 454.5,624.5C 467.948,634.313 482.948,637.313 499.5,633.5C 506.253,631.36 512.92,629.027 519.5,626.5C 523.22,624.114 526.22,621.114 528.5,617.5C 529.184,614.149 531.184,612.149 534.5,611.5C 534.355,621.6 533.021,631.267 530.5,640.5C 527.86,648.022 526.36,656.022 526,664.5C 523.047,666.726 519.88,668.559 516.5,670C 505.177,673.128 493.677,675.294 482,676.5C 474.116,675.902 466.283,674.902 458.5,673.5C 450.809,670.785 443.142,668.118 435.5,665.5C 434.022,665.762 432.689,665.429 431.5,664.5C 410.391,650.278 397.891,630.611 394,605.5C 392.033,583.529 395.533,562.529 404.5,542.5C 409.708,533.855 415.375,525.521 421.5,517.5C 428.49,511.178 435.49,504.844 442.5,498.5C 450.737,494.214 459.07,490.214 467.5,486.5C 475.411,486.104 483.078,484.604 490.5,482C 505.178,481.363 519.845,481.53 534.5,482.5 Z"/></g>
<g><path style="opacity:0.12" fill="#1b0e03" d="M 867.5,477.5 C 869.369,479.635 870.036,482.302 869.5,485.5C 867.631,483.365 866.964,480.698 867.5,477.5 Z"/></g>
<g><path style="opacity:1" fill="#1d1916" d="M 668.5,484.5 C 681.833,484.5 695.167,484.5 708.5,484.5C 707.256,498.185 705.589,511.852 703.5,525.5C 693.167,526.167 682.833,526.833 672.5,527.5C 664.684,531.794 661.017,538.46 661.5,547.5C 658.159,587.07 653.159,626.403 646.5,665.5C 644.744,666.552 644.077,668.219 644.5,670.5C 630.5,670.5 616.5,670.5 602.5,670.5C 607.596,634.805 612.929,599.138 618.5,563.5C 618.167,562.833 617.833,562.167 617.5,561.5C 619.229,552.269 619.895,542.935 619.5,533.5C 619.27,526.285 621.103,519.619 625,513.5C 630.455,506.708 636.289,500.208 642.5,494C 646.802,491.849 651.136,489.682 655.5,487.5C 659.592,485.394 663.925,484.394 668.5,484.5 Z"/></g>
<g><path style="opacity:0.041" fill="#000100" d="M 869.5,486.5 C 869.5,487.5 869.5,488.5 869.5,489.5C 866.833,488.5 866.833,487.5 869.5,486.5 Z"/></g>
<g><path style="opacity:0.039" fill="#180c02" d="M 986.5,477.5 C 987.152,478.449 987.486,479.615 987.5,481C 987.054,484.175 986.554,487.342 986,490.5C 985.617,491.056 985.117,491.389 984.5,491.5C 984.848,486.778 985.515,482.111 986.5,477.5 Z"/></g>
<g><path style="opacity:0.11" fill="#110601" d="M 869.5,489.5 C 872.082,489.025 874.082,489.692 875.5,491.5C 872.918,491.975 870.918,491.308 869.5,489.5 Z"/></g>
<g><path style="opacity:0.024" fill="#2b1705" d="M 877.5,491.5 C 879.903,491.448 882.236,491.781 884.5,492.5C 886.483,492.157 887.817,492.824 888.5,494.5C 885.449,494.636 882.449,494.302 879.5,493.5C 878.287,493.253 877.62,492.586 877.5,491.5 Z"/></g>
<g><path style="opacity:0.447" fill="#080706" d="M 253.5,486.5 C 242.635,492.612 231.969,499.279 221.5,506.5C 215.93,513.016 209.93,519.016 203.5,524.5C 198.879,530.777 194.546,537.111 190.5,543.5C 191.366,539.254 193.032,535.254 195.5,531.5C 208.702,512.026 226.035,497.359 247.5,487.5C 249.396,486.534 251.396,486.201 253.5,486.5 Z"/></g>
<g><path style="opacity:0.251" fill="#1a0f03" d="M 888.5,494.5 C 891.082,494.025 893.082,494.692 894.5,496.5C 891.918,496.975 889.918,496.308 888.5,494.5 Z"/></g>
<g><path style="opacity:0.278" fill="#251404" d="M 984.5,492.5 C 984.13,495.267 982.796,497.267 980.5,498.5C 980.354,495.446 981.687,493.446 984.5,492.5 Z"/></g>
<g><path style="opacity:0.6" fill="#0a0807" d="M 851.5,454.5 C 853.094,457.061 854.094,460.061 854.5,463.5C 856.324,472.729 857.991,482.062 859.5,491.5C 858.833,492.833 858.167,494.167 857.5,495.5C 849.402,503.935 841.069,511.935 832.5,519.5C 832.351,518.448 832.517,517.448 833,516.5C 838.509,510.791 844.009,505.124 849.5,499.5C 852.252,496.422 854.586,493.089 856.5,489.5C 853.078,478.087 851.411,466.421 851.5,454.5 Z"/></g>
<g><path style="opacity:0.078" fill="#0f0601" d="M 894.5,496.5 C 896.781,496.077 898.448,496.744 899.5,498.5C 897.219,498.923 895.552,498.256 894.5,496.5 Z"/></g>
<g><path style="opacity:0.127" fill="#080500" d="M 980.5,498.5 C 980.5,499.833 979.833,500.5 978.5,500.5C 978.5,499.167 979.167,498.5 980.5,498.5 Z"/></g>
<g><path style="opacity:0.038" fill="#170c02" d="M 901.5,498.5 C 903.5,498.5 905.5,498.5 907.5,498.5C 909.5,499.833 911.5,501.167 913.5,502.5C 910.753,502.813 908.086,502.48 905.5,501.5C 903.668,500.943 902.335,499.943 901.5,498.5 Z"/></g>
<g><path style="opacity:0.135" fill="#090500" d="M 978.5,500.5 C 978.5,501.833 977.833,502.5 976.5,502.5C 976.5,501.167 977.167,500.5 978.5,500.5 Z"/></g>
<g><path style="opacity:0.376" fill="#3e200a" d="M 974.5,502.5 C 975.167,502.5 975.833,502.5 976.5,502.5C 975.833,504.5 974.5,505.833 972.5,506.5C 972.5,505.833 972.5,505.167 972.5,504.5C 972.5,503.167 973.167,502.5 974.5,502.5 Z"/></g>
<g><path style="opacity:0.294" fill="#211204" d="M 913.5,502.5 C 917.827,502.502 921.493,503.835 924.5,506.5C 922.801,506.66 921.134,506.494 919.5,506C 917.242,505.124 915.242,503.957 913.5,502.5 Z"/></g>
<g><path style="opacity:0.338" fill="#070605" d="M 812.5,486.5 C 809.885,490.464 807.218,494.464 804.5,498.5C 797.408,503.59 791.741,509.924 787.5,517.5C 783.128,521.212 778.795,524.879 774.5,528.5C 774.179,530.048 773.179,530.715 771.5,530.5C 772.065,523.102 773.398,516.102 775.5,509.5C 775.334,514.511 775.501,519.511 776,524.5C 787.237,512.344 798.237,500.011 809,487.5C 810.011,486.663 811.178,486.33 812.5,486.5 Z"/></g>
<g><path style="opacity:0.361" fill="#91480d" d="M 907.5,498.5 C 917.828,501.634 928.161,504.634 938.5,507.5C 938.5,508.5 938.5,509.5 938.5,510.5C 938.167,510.5 937.833,510.5 937.5,510.5C 935.721,508.656 933.388,507.99 930.5,508.5C 929.817,506.824 928.483,506.157 926.5,506.5C 925.833,506.5 925.167,506.5 924.5,506.5C 921.493,503.835 917.827,502.502 913.5,502.5C 911.5,501.167 909.5,499.833 907.5,498.5 Z"/></g>
<g><path style="opacity:0.208" fill="#0d0601" d="M 926.5,506.5 C 928.483,506.157 929.817,506.824 930.5,508.5C 928.517,508.843 927.183,508.176 926.5,506.5 Z"/></g>
<g><path style="opacity:0.029" fill="#0e0501" d="M 972.5,506.5 C 971.817,508.176 970.483,508.843 968.5,508.5C 969.183,506.824 970.517,506.157 972.5,506.5 Z"/></g>
<g><path style="opacity:0.439" fill="#803f0b" d="M 972.5,504.5 C 972.5,505.167 972.5,505.833 972.5,506.5C 970.517,506.157 969.183,506.824 968.5,508.5C 966.517,508.157 965.183,508.824 964.5,510.5C 964.167,510.5 963.833,510.5 963.5,510.5C 963.5,509.833 963.167,509.5 962.5,509.5C 965.178,506.827 968.512,505.161 972.5,504.5 Z"/></g>
<g><path style="opacity:0.033" fill="#130801" d="M 930.5,508.5 C 933.388,507.99 935.721,508.656 937.5,510.5C 934.772,510.829 932.438,510.163 930.5,508.5 Z"/></g>
<g><path style="opacity:0.049" fill="#100601" d="M 968.5,508.5 C 967.817,510.176 966.483,510.843 964.5,510.5C 965.183,508.824 966.517,508.157 968.5,508.5 Z"/></g>
<g><path style="opacity:0.371" fill="#402108" d="M 962.5,509.5 C 963.167,509.5 963.5,509.833 963.5,510.5C 961.052,511.473 958.385,511.806 955.5,511.5C 954.833,511.5 954.167,511.5 953.5,511.5C 955.988,509.612 958.988,508.945 962.5,509.5 Z"/></g>
<g><path style="opacity:0.529" fill="#381d09" d="M 949.5,511.5 C 948.833,511.5 948.167,511.5 947.5,511.5C 944.615,511.806 941.948,511.473 939.5,510.5C 940.964,509.84 942.631,509.507 944.5,509.5C 946.64,509.556 948.306,510.223 949.5,511.5 Z"/></g>
<g><path style="opacity:0.069" fill="#000000" d="M 947.5,511.5 C 948.167,511.5 948.833,511.5 949.5,511.5C 950.833,511.5 952.167,511.5 953.5,511.5C 954.167,511.5 954.833,511.5 955.5,511.5C 954.666,512.748 953.333,513.415 951.5,513.5C 949.667,513.415 948.334,512.748 947.5,511.5 Z"/></g>
<g><path style="opacity:0.259" fill="#0d0b0a" d="M 377.5,545.5 C 375.514,542.261 374.18,538.594 373.5,534.5C 372.5,534.5 371.5,534.5 370.5,534.5C 369.195,527.642 366.529,521.308 362.5,515.5C 357.453,511.454 353.119,506.788 349.5,501.5C 345.399,497.403 340.733,494.07 335.5,491.5C 326.556,488.026 317.556,484.859 308.5,482C 297.167,481.333 285.833,481.333 274.5,482C 267.882,484.927 260.882,486.427 253.5,486.5C 254.335,485.057 255.668,484.057 257.5,483.5C 268.509,479.709 279.842,478.042 291.5,478.5C 331.442,478.633 359.276,496.966 375,533.5C 376.785,537.305 377.618,541.305 377.5,545.5 Z"/></g>
<g><path style="opacity:0.547" fill="#0c0a08" d="M 315.5,532.5 C 306.231,527.75 296.398,524.75 286,523.5C 279.123,524.772 272.29,526.272 265.5,528C 259.568,530.465 253.902,533.299 248.5,536.5C 248.539,535.417 248.873,534.417 249.5,533.5C 267.772,520.924 287.438,518.257 308.5,525.5C 310.156,527.329 312.156,528.663 314.5,529.5C 315.127,530.417 315.461,531.417 315.5,532.5 Z"/></g>
<g><path style="opacity:0.576" fill="#0a0807" d="M 661.5,547.5 C 661.017,538.46 664.684,531.794 672.5,527.5C 682.833,526.833 693.167,526.167 703.5,525.5C 705.589,511.852 707.256,498.185 708.5,484.5C 695.167,484.5 681.833,484.5 668.5,484.5C 682.461,482.517 696.794,481.85 711.5,482.5C 711.666,487.511 711.499,492.511 711,497.5C 710,502.167 709,506.833 708,511.5C 707.667,516.5 707.333,521.5 707,526.5C 706.308,527.025 705.808,527.692 705.5,528.5C 694.649,529.199 683.816,529.866 673,530.5C 671.5,531.5 670,532.5 668.5,533.5C 665.267,537.943 662.934,542.609 661.5,547.5 Z"/></g>
<g><path style="opacity:0.363" fill="#090807" d="M 543.5,547.5 C 533.108,531.076 518.108,523.243 498.5,524C 473.293,527.413 455.293,540.58 444.5,563.5C 443.859,564.993 442.859,565.993 441.5,566.5C 442.423,563.223 443.256,559.89 444,556.5C 462.466,527.262 488.466,516.595 522,524.5C 527.222,526.892 532.056,529.892 536.5,533.5C 539.917,537.667 542.25,542.333 543.5,547.5 Z"/></g>
<g><path style="opacity:0.1" fill="#080706" d="M 94.5,490.5 C 97.9464,491.612 99.9464,493.945 100.5,497.5C 101.822,497.33 102.989,497.663 104,498.5C 105.63,501.298 107.463,503.965 109.5,506.5C 124.856,520.856 139.189,536.19 152.5,552.5C 153.429,553.689 153.762,555.022 153.5,556.5C 152.417,556.461 151.417,556.127 150.5,555.5C 140.788,541.797 129.455,529.464 116.5,518.5C 112.784,514.452 109.45,510.118 106.5,505.5C 102.623,502.113 98.9559,498.446 95.5,494.5C 94.5713,493.311 94.238,491.978 94.5,490.5 Z"/></g>
<g><path style="opacity:0.176" fill="#070605" d="M 315.5,532.5 C 316.978,532.238 318.311,532.571 319.5,533.5C 326.233,539.213 330.899,546.213 333.5,554.5C 334.246,558.132 334.579,561.798 334.5,565.5C 333.883,565.389 333.383,565.056 333,564.5C 331.731,557.527 329.564,550.86 326.5,544.5C 322.421,540.76 318.754,536.76 315.5,532.5 Z"/></g>
<g><path style="opacity:0.153" fill="#080706" d="M 46.5,513.5 C 48.5922,513.561 50.0922,514.561 51,516.5C 52.2229,519.947 53.7229,523.28 55.5,526.5C 69.7375,544.907 85.5708,561.907 103,577.5C 104.777,580.059 106.277,582.726 107.5,585.5C 106.417,585.461 105.417,585.127 104.5,584.5C 90.4723,569.807 76.4723,555.14 62.5,540.5C 57.3205,533.628 52.3205,526.628 47.5,519.5C 46.5344,517.604 46.2011,515.604 46.5,513.5 Z"/></g>
<g><path style="opacity:0.309" fill="#0a0807" d="M 153.5,556.5 C 154.735,556.721 155.735,557.388 156.5,558.5C 160.005,564.51 162.505,570.844 164,577.5C 167.142,598.338 163.308,617.672 152.5,635.5C 148.668,639.839 145.335,644.506 142.5,649.5C 138.479,653.834 133.812,657.168 128.5,659.5C 134.807,651.526 141.473,643.86 148.5,636.5C 152.629,627.914 156.462,619.247 160,610.5C 164.578,593.708 162.744,577.708 154.5,562.5C 153.844,560.547 153.511,558.547 153.5,556.5 Z"/></g>
<g><path style="opacity:0.899" fill="#0f0c0a" d="M 225.5,570.5 C 225.001,575.504 224.334,580.504 223.5,585.5C 225.308,608.885 237.308,624.218 259.5,631.5C 269.575,632.826 279.575,632.493 289.5,630.5C 288.322,631.999 286.655,632.999 284.5,633.5C 274.326,634.773 264.16,634.773 254,633.5C 247.776,630.44 241.943,626.773 236.5,622.5C 235.167,620.5 233.833,618.5 232.5,616.5C 231.311,615.571 229.978,615.238 228.5,615.5C 225.73,609.773 223.563,603.773 222,597.5C 221.169,590.808 221.336,584.142 222.5,577.5C 222.938,574.705 223.938,572.372 225.5,570.5 Z"/></g>
<g><path style="opacity:0.301" fill="#090706" d="M 334.5,575.5 C 334.894,585.987 332.228,595.654 326.5,604.5C 322.873,608.277 319.54,612.277 316.5,616.5C 310.471,622.044 303.804,626.544 296.5,630C 294.19,630.497 291.857,630.663 289.5,630.5C 296.015,626.902 302.681,623.235 309.5,619.5C 313.466,614.533 317.799,609.866 322.5,605.5C 328.238,596.05 332.238,586.05 334.5,575.5 Z"/></g>
<g><path style="opacity:0.288" fill="#0c0908" d="M 54.5,619.5 C 51.7792,617.596 49.4459,615.262 47.5,612.5C 46.2847,609.191 45.2847,605.858 44.5,602.5C 42.076,602.192 39.7427,602.526 37.5,603.5C 28.9415,608.93 20.2748,614.097 11.5,619C 7.83204,619.948 4.16538,620.781 0.5,621.5C 14.1931,613.175 28.3598,605.509 43,598.5C 44.3651,598.844 45.5318,599.511 46.5,600.5C 48.4747,605.783 50.9747,610.783 54,615.5C 54.49,616.793 54.6567,618.127 54.5,619.5 Z"/></g>
<g><path style="opacity:0.624" fill="#0c0908" d="M 841.5,600.5 C 844.194,602.342 846.528,604.676 848.5,607.5C 856.025,619.861 864.525,631.528 874,642.5C 876.281,645.063 877.448,648.063 877.5,651.5C 873.678,648.773 871.012,645.107 869.5,640.5C 862.834,634.531 857.834,627.531 854.5,619.5C 853.167,619.5 851.833,619.5 850.5,619.5C 847.277,613.383 844.277,607.05 841.5,600.5 Z"/></g>
<g><path style="opacity:0.887" fill="#0f0c0a" d="M 107.5,585.5 C 108.735,585.721 109.735,586.388 110.5,587.5C 117.099,598.116 117.099,608.783 110.5,619.5C 104.961,624.21 99.2948,628.71 93.5,633C 85.6693,634.38 77.836,634.547 70,633.5C 65.7804,631.776 61.947,629.443 58.5,626.5C 55.8545,624.868 54.5211,622.535 54.5,619.5C 58.6086,622.097 62.6086,624.931 66.5,628C 70.6007,629.592 74.7674,631.092 79,632.5C 84.5114,631.121 90.0114,629.455 95.5,627.5C 99.7767,624.893 103.777,621.893 107.5,618.5C 112.116,612.318 113.616,605.318 112,597.5C 109.993,593.641 108.493,589.641 107.5,585.5 Z"/></g>
<g><path style="opacity:0.239" fill="#080706" d="M 441.5,603.5 C 457.345,629.953 480.011,638.119 509.5,628C 515.942,624.451 522.275,620.951 528.5,617.5C 526.22,621.114 523.22,624.114 519.5,626.5C 512.92,629.027 506.253,631.36 499.5,633.5C 482.948,637.313 467.948,634.313 454.5,624.5C 447.603,618.968 443.27,611.968 441.5,603.5 Z"/></g>
<g><path style="opacity:0.125" fill="#0c0a09" d="M 377.5,547.5 C 379.052,552.878 380.385,558.545 381.5,564.5C 376.387,619.67 347.72,656.503 295.5,675C 276.697,679.365 257.863,679.531 239,675.5C 229.284,672.644 220.617,667.977 213,661.5C 210.264,683.998 206.764,705.998 202.5,727.5C 202.334,721.158 202.5,714.825 203,708.5C 204.789,691.436 206.956,674.436 209.5,657.5C 213.155,657.472 215.822,659.139 217.5,662.5C 224.414,665.929 231.414,669.095 238.5,672C 247.521,674.352 256.688,675.852 266,676.5C 284.57,675.584 302.07,670.917 318.5,662.5C 323.549,658.646 328.883,655.312 334.5,652.5C 340.134,645.864 346.134,639.531 352.5,633.5C 357.64,626.573 362.307,619.24 366.5,611.5C 369.567,602.131 372.734,592.798 376,583.5C 377.122,571.525 377.622,559.525 377.5,547.5 Z"/></g>
<g><path style="opacity:0.561" fill="#0f0c0b" d="M 619.5,533.5 C 619.895,542.935 619.229,552.269 617.5,561.5C 617.833,562.167 618.167,562.833 618.5,563.5C 612.929,599.138 607.596,634.805 602.5,670.5C 616.5,670.5 630.5,670.5 644.5,670.5C 644.077,668.219 644.744,666.552 646.5,665.5C 646.5,668.167 646.5,670.833 646.5,673.5C 631.167,673.5 615.833,673.5 600.5,673.5C 602.116,660.56 603.282,647.56 604,634.5C 606.337,620.11 608.671,605.777 611,591.5C 611.333,586.167 611.667,580.833 612,575.5C 614.107,561.245 616.607,547.245 619.5,533.5 Z"/></g>
<g><path style="opacity:0.161" fill="#0a0807" d="M 0.5,632.5 C 1.5,632.5 2.5,632.5 3.5,632.5C 9.53936,652.21 22.206,665.876 41.5,673.5C 46.8856,674.745 51.8856,676.411 56.5,678.5C 42.8423,678.667 30.8423,674.334 20.5,665.5C 12.5896,657.593 6.2563,648.593 1.5,638.5C 0.534431,636.604 0.201097,634.604 0.5,632.5 Z"/></g>
<g><path style="opacity:0.623" fill="#0c0a08" d="M 530.5,640.5 C 530.544,649.553 529.877,658.553 528.5,667.5C 522.415,671.124 515.915,673.791 509,675.5C 487.881,680.023 467.047,679.023 446.5,672.5C 443.399,671.393 440.399,670.06 437.5,668.5C 436.388,667.735 435.721,666.735 435.5,665.5C 443.142,668.118 450.809,670.785 458.5,673.5C 466.283,674.902 474.116,675.902 482,676.5C 493.677,675.294 505.177,673.128 516.5,670C 519.88,668.559 523.047,666.726 526,664.5C 526.36,656.022 527.86,648.022 530.5,640.5 Z"/></g>
<g><path style="opacity:0.433" fill="#100e0c" d="M 547.5,607.5 C 547.666,614.175 547.5,620.842 547,627.5C 545.416,642.027 543.249,656.36 540.5,670.5C 553.5,670.5 566.5,670.5 579.5,670.5C 580.654,664.569 581.488,658.569 582,652.5C 582.768,648.217 583.934,644.217 585.5,640.5C 585.488,651.615 584.488,662.615 582.5,673.5C 567.5,673.5 552.5,673.5 537.5,673.5C 539.393,655.556 541.726,637.556 544.5,619.5C 544.882,615.084 545.882,611.084 547.5,607.5 Z"/></g>
<g><path style="opacity:0.433" fill="#100d0c" d="M 778.5,587.5 C 774.14,583.962 770.64,579.629 768,574.5C 763.445,607.71 758.945,640.71 754.5,673.5C 737.833,673.5 721.167,673.5 704.5,673.5C 705.896,662.508 707.896,651.841 710.5,641.5C 710.425,651.178 710.092,660.844 709.5,670.5C 723.833,670.5 738.167,670.5 752.5,670.5C 753.846,649.604 756.679,628.938 761,608.5C 762.474,595.149 763.974,581.816 765.5,568.5C 766.833,568.5 768.167,568.5 769.5,568.5C 772.931,574.607 775.931,580.94 778.5,587.5 Z"/></g>
<g><path style="opacity:0.433" fill="#0e0c0a" d="M 816.5,644.5 C 820.824,648.167 824.491,652.5 827.5,657.5C 830.347,661.523 832.347,665.856 833.5,670.5C 851.845,670.833 870.179,670.5 888.5,669.5C 886.722,667.055 885.389,664.389 884.5,661.5C 880.896,658.921 878.562,655.588 877.5,651.5C 881.114,653.78 884.114,656.78 886.5,660.5C 888.174,663.844 890.34,666.844 893,669.5C 893.49,670.793 893.657,672.127 893.5,673.5C 873.489,673.833 853.489,673.5 833.5,672.5C 828.158,664.494 822.825,656.494 817.5,648.5C 816.571,647.311 816.238,645.978 816.5,644.5 Z"/></g>
<g><path style="opacity:0.639" fill="#080605" d="M 128.5,659.5 C 128.279,660.735 127.612,661.735 126.5,662.5C 109.147,674.592 89.8133,680.592 68.5,680.5C 64.107,680.491 60.107,679.824 56.5,678.5C 76.3967,679.002 95.3967,675.335 113.5,667.5C 118.593,664.757 123.593,662.091 128.5,659.5 Z"/></g>
<g><path style="opacity:0.56" fill="#0e0b0a" d="M 179.5,581.5 C 179.24,597.245 178.073,612.911 176,628.5C 174.133,637.134 172.467,645.801 171,654.5C 169.66,668.206 167.993,681.873 166,695.5C 164.765,704.852 162.931,713.852 160.5,722.5C 162.429,699.111 164.929,675.777 168,652.5C 171.45,628.69 175.283,605.023 179.5,581.5 Z"/></g>
</svg>
